SplineFontDB: 3.2
FontName: Acathist-Regular
FullName: Acathist
FamilyName: Acathist
Weight: Regular
Copyright: Copyright 2013-2020 Aleksandr Andreev and Nikita Simmons (<https://sci.ponomar.net/>).
Version: 1.0
ItalicAngle: 0
UnderlinePosition: -45
UnderlineWidth: 7
Ascent: 800
Descent: 200
InvalidEm: 0
LayerCount: 2
Layer: 0 0 "Back" 1
Layer: 1 0 "Fore" 0
XUID: [1021 16 -658691101 2596357]
StyleMap: 0x0000
FSType: 0
OS2Version: 2
OS2_WeightWidthSlopeOnly: 0
OS2_UseTypoMetrics: 1
CreationTime: 1220731200
ModificationTime: 1589255406
PfmFamily: 17
TTFWeight: 400
TTFWidth: 5
LineGap: 17
VLineGap: 0
Panose: 2 0 5 0 9 0 0 2 0 3
OS2TypoAscent: 939
OS2TypoAOffset: 0
OS2TypoDescent: -582
OS2TypoDOffset: 0
OS2TypoLinegap: 33
OS2WinAscent: 939
OS2WinAOffset: 0
OS2WinDescent: 582
OS2WinDOffset: 0
HheadAscent: 939
HheadAOffset: 0
HheadDescent: -582
HheadDOffset: 0
OS2SubXSize: 203
OS2SubYSize: 203
OS2SubXOff: 0
OS2SubYOff: 286
OS2SupXSize: 203
OS2SupYSize: 203
OS2SupXOff: 0
OS2SupYOff: 286
OS2StrikeYSize: 50
OS2StrikeYPos: 250
OS2CapHeight: 663
OS2XHeight: 437
OS2Vendor: '    '
OS2CodePages: 00000005.00000000
OS2UnicodeRanges: 80000203.0000004a.00000000.00000000
Lookup: 4 0 0 "'ccmp' Precomposed Glyphs" { "'ccmp' Precomposed Glyphs-1"  } ['ccmp' ('DFLT' <'dflt' > 'cyrl' <'dflt' > 'latn' <'dflt' > ) ]
Lookup: 5 0 0 "'ccmp' Alternative Forms for Uppercase Letters" { "'ccmp' Alternative Forms for Uppercase Letters-1"  } ['ccmp' ('DFLT' <'dflt' > 'cyrl' <'dflt' > 'latn' <'dflt' > ) ]
Lookup: 6 0 0 "'ccmp' Uk at Right" { "'ccmp' Uk at Right-1"  } ['ccmp' ('DFLT' <'dflt' > 'cyrl' <'dflt' > 'latn' <'dflt' > ) ]
Lookup: 3 0 0 "'salt' Stylistic Alternatives" { "'salt' Stylistic Alternatives-1"  } ['salt' ('DFLT' <'dflt' > 'cyrl' <'dflt' > 'latn' <'dflt' > ) ]
Lookup: 1 0 0 "'ss01' Style Set 1 Alternative Hyphen" { "'ss01' Style Set 1 Alternative Hyphen-1"  } ['ss01' ('DFLT' <'dflt' > 'cyrl' <'dflt' > 'latn' <'dflt' > ) ]

StartChar: .notdef
Encoding: 1114112 -1 0
Width: 366
Flags: W
HStem: 0 18<24 342> 645 18<24 342>
VStem: 0 18<31 632> 348 18<31 632>
DStem2: 24 645 18 632 0.466696 -0.884418<8.69726 339.948 362.058 694.242> 18 31 24 18 0.466696 0.884418<0 331.25 353.361 685.545>
LayerCount: 2
Fore
SplineSet
0 663 m 1
 366 663 l 1
 366 0 l 1
 0 0 l 1
 0 663 l 1
24 645 m 1
 182 344 l 1
 342 645 l 1
 24 645 l 1
189 331 m 1
 348 31 l 1
 348 632 l 1
 189 331 l 1
342 18 m 1
 182 319 l 1
 24 18 l 1
 342 18 l 1
18 632 m 1
 18 31 l 1
 176 331 l 1
 18 632 l 1
EndSplineSet
Validated: 1
EndChar

StartChar: period
Encoding: 46 46 2
Width: 216
Flags: W
HStem: -2 129<54.2469 149.754>
VStem: 37 130<14.6734 110.049>
LayerCount: 2
Fore
SplineSet
37 62 m 256
 37 97.7134243418 66.2875842389 127 102 127 c 256
 137.713424341 127 167 97.7124157615 167 62 c 256
 167 26.7855947545 136.868728944 -2 102 -2 c 256
 67.1327050829 -2 37 26.7890214122 37 62 c 256
EndSplineSet
Validated: 1
EndChar

StartChar: slash
Encoding: 47 47 3
Width: 405
Flags: W
VStem: -53 59<-353 -294> 362 59<880 939>
DStem2: -53 -353 6 -353 0.305818 0.95209<18.0433 1357.01>
LayerCount: 2
Fore
SplineSet
6 -353 m 1
 -53 -353 l 1
 362 939 l 1
 421 939 l 1
 6 -353 l 1
EndSplineSet
Validated: 1
EndChar

StartChar: uni0443
Encoding: 1091 1091 4
Width: 433
Flags: W
HStem: -11 21G<102.333 120.5> 9 18<188 208> 423 20G<48 66.2783 376.511 403.333>
VStem: 99 89<26 246.559> 206 45<-260.634 8.00146>
DStem2: 220.5 191 273 278 0.0526315 0.998614<-302.473 -182.406 0 140.202>
AnchorPoint: "Yerok" 346 557 basechar 0
AnchorPoint: "Diacritic" 201 556 basechar 0
LayerCount: 2
Fore
SplineSet
208 9 m 1x78
 171.493381517 4.78769786732 136.999649984 -2.1154788504 104 -11 c 0xb8
 100.666666667 -11 99 -9 99 -5 c 0
 99 137.65608905 78.6951838821 265.453104632 56.5 384.5 c 0
 52.8333333333 404.166666667 49.3333333333 421.333333333 46 436 c 0
 46 440.666666667 47 443 49 443 c 0
 83.5565463741 443 120.195961009 439.134006497 151 434 c 1
 172.418399996 312.629066687 182.425106725 162.584885282 188 26 c 1
 209 27 l 1
 212.450865049 85.6647058433 215.018134531 136.18134532 220.5 191 c 2
 226 246 l 258
 232.299842864 308.998428637 246.27092001 368.321717512 278 406 c 0
 303.348369953 436.101189319 351.021914026 440.316942842 402 443 c 0
 404.666666667 443 406 440.333333333 406 435 c 1
 389.940125688 415.49872405 379 396.752188321 379 365 c 0
 379 357 380 348 382 338 c 0
 382 334.078156998 381.026144022 329 377 329 c 0
 360.861076059 335.207278438 349.654342342 343 329 343 c 0
 296.280946933 343 276.780383989 306.982943918 273 278 c 0
 260.583813186 172.462412096 251 61.1052768269 251 -55.5 c 2
 251 -113.5 l 2
 251 -234.936044525 242.263642049 -358.225730097 221 -461 c 0
 214.367274575 -493.058172885 214.203484842 -518.786434343 181 -521 c 1
 177.666666667 -518.333333333 176 -514.333333333 176 -509 c 1
 183.175748745 -506.129700503 186.952920078 -484.423719291 188 -475 c 0
 198.900344315 -339.835730479 206 -198.270621434 206 -49 c 0
 206 -31.6666666667 206.666666667 -12.3333333333 208 9 c 1x78
EndSplineSet
Validated: 1
EndChar

StartChar: acutecomb
Encoding: 769 769 5
Width: 1
Flags: W
HStem: 544 262.5
VStem: -207 165
AnchorPoint: "Stacking" -189 857 basemark 0
AnchorPoint: "Stacking" -190 542 mark 0
AnchorPoint: "Diacritic" -190 542 mark 0
LayerCount: 2
Fore
SplineSet
-111 787 m 1
 -103.895195487 797.657206772 -89.8005414045 800.328455413 -75 803.5 c 2
 -61 806.5 l 2
 -56.3333333333 807.5 -52.6666666667 808 -50 808 c 0
 -44.6666666667 808 -42 805.333333333 -42 800 c 1
 -166 549 l 2
 -168 545.666666667 -171.333333333 544 -176 544 c 0
 -187.771957191 545.17719572 -204.199508785 546.198280745 -207 556 c 1
 -111 787 l 1
EndSplineSet
Validated: 1
EndChar

StartChar: gravecomb
Encoding: 768 768 6
Width: 1
Flags: W
HStem: 555 137
VStem: -315 236
DStem2: -308 692 -310 642 0.93185 -0.362844<3.34803 253.671>
AnchorPoint: "Stacking" -166 557 mark 0
AnchorPoint: "Stacking" -165 726 basemark 0
AnchorPoint: "Diacritic" -166 557 mark 0
LayerCount: 2
Fore
SplineSet
-79 563 m 256
 -79 557.666666667 -81.6666666667 555 -87 555 c 1
 -310 642 l 1
 -313.376551435 654.380688593 -315 670.49199294 -315 685 c 0
 -315 689.666666667 -312.666666667 692 -308 692 c 1
 -82 604 l 1
 -79.7820646432 591.801355538 -79 576.199343341 -79 563 c 256
EndSplineSet
Validated: 1
EndChar

StartChar: uni0486
Encoding: 1158 1158 7
Width: 1
Flags: W
HStem: 644 61<-205.587 -126.879>
VStem: -254 25<575.031 614.944> -145 54<587.44 663.234>
AnchorPoint: "Stacking" -176 773 basemark 0
AnchorPoint: "Stacking" -177 542 mark 0
AnchorPoint: "Diacritic" -177 542 mark 0
LayerCount: 2
Fore
SplineSet
-241 575 m 0
 -251.005033398 575 -254 585.768184115 -254 595 c 0
 -254 644.153651288 -218.886603254 680.301028535 -184 696 c 0
 -170.666666667 702 -157 705 -143 705 c 0
 -110.758458384 705 -91 678.468826123 -91 648 c 0
 -91 601.389668693 -126.602334627 568.118132296 -153 547 c 1
 -162.02770213 547 -168 552.297890455 -168 562 c 1
 -158.139918793 578.022631963 -145 590.678543526 -145 615 c 0
 -145 635.450965766 -156.323206552 644 -176 644 c 0
 -205.988643289 644 -222.756273512 610.726160658 -229 587 c 0
 -231.25571266 581.360718349 -233.677691786 575 -241 575 c 0
EndSplineSet
Validated: 1
Substitution2: "Uppercase diacritics-1" uniE000
EndChar

StartChar: uniE001
Encoding: 57345 57345 8
Width: 1
Flags: W
HStem: 645 74<-289.432 -217.961>
VStem: -330 28<557.503 624.686> -215 46<576.358 668.585>
AnchorPoint: "Stacking" -206 786 basemark 0
AnchorPoint: "Stacking" -207 537 mark 0
AnchorPoint: "Diacritic" -209 535 mark 0
LayerCount: 2
Fore
SplineSet
-308 547 m 1
 -322.483213506 560.166557734 -330 587.283207227 -330 615 c 0
 -330 659.92787512 -304.603532789 693.158082202 -274.5 709.5 c 0
 -262.833333333 715.833333333 -250 719 -236 719 c 0
 -195.425311896 719 -169 688.169713594 -169 649 c 0
 -169 601.088574052 -198.076590773 559.677238767 -223 536 c 1
 -230.150641815 536 -236 540.490303882 -236 548 c 1
 -225.266074681 564.697217162 -215 580.679546694 -215 606 c 256
 -215 626.785191704 -226.01067177 645 -246 645 c 0
 -282.388771685 645 -302 615.483218395 -302 580 c 0
 -302 569.98297999 -299.613867705 564.841603116 -297 557 c 0
 -297 550.333333333 -300.666666667 547 -308 547 c 1
-61 770 m 1
 -52.2870697376 775.445581413 -29.6725185662 780 -16 780 c 0
 -8.91058281229 780 -5 774.43289713 -5 768 c 1
 -114 554 l 1
 -120.666666667 552.666666667 -127 552 -133 552 c 0
 -143.562457337 552 -153 553.228757247 -153 564 c 1
 -61 770 l 1
EndSplineSet
Validated: 1
Substitution2: "Uppercase diacritics-1" uniE002
LCarets2: 1 0
Ligature2: "'ccmp' Precomposed Glyphs-1" uni0486 acutecomb
EndChar

StartChar: uniE003
Encoding: 57347 57347 9
Width: 1
Flags: W
HStem: 502 15<-197.212 -183.339> 610 53<-238.855 -161.341> 667 21G<-130.373 -44.6667>
VStem: -271 26<540.579 596.264> -157 47<527.861 604.393>
DStem2: -284 772 -291 726 0.971767 -0.235943<-6.33146 258.325>
AnchorPoint: "Stacking" -186 816 basemark 0
AnchorPoint: "Stacking" -194 497 mark 0
AnchorPoint: "Diacritic" -192 495 mark 0
LayerCount: 2
Fore
SplineSet
-186 663 m 260
 -139.489647329 663 -110 629.405226449 -110 583 c 4
 -110 549.930137096 -131.334330902 523.4437794 -151.5 510 c 4
 -159.622858158 504.584761228 -171.388782506 499.834178936 -183.134560766 499.834178936 c 4
 -187.487978828 499.834178936 -191.838629387 500.486774322 -196 502 c 5
 -198 507.333333333 -197.666666667 512.333333333 -195 517 c 5
 -167.191977734 520.792003036 -157 539.887942936 -157 570 c 4
 -157 595.707093056 -177.094898756 610 -202 610 c 4
 -226.008692745 610 -245 589.925593211 -245 565 c 4
 -245 556.333333333 -243.666666667 548.666666667 -241 542 c 5
 -243 537.333333333 -247 534.333333333 -253 533 c 5
 -265 545 -271 560 -271 578 c 4
 -271 626.864198345 -233.880720775 663 -186 663 c 260
-41 713 m 1
 -38.4400238522 705.320071556 -38 691.31961607 -38 681 c 0
 -38 671.666666667 -41.3333333333 667 -48 667 c 1
 -291 726 l 1
 -294.333333333 732.666666667 -296 741.333333333 -296 752 c 0
 -296 761.861972576 -294.418803778 772 -284 772 c 1
 -41 713 l 1
EndSplineSet
Validated: 1
Substitution2: "Uppercase diacritics-1" uniE004
LCarets2: 1 0
Ligature2: "'ccmp' Precomposed Glyphs-1" uni0486 gravecomb
EndChar

StartChar: uni0311
Encoding: 785 785 10
Width: 1
Flags: W
HStem: 653 46<-252.855 -146.59>
VStem: -317 46<557 634.009> -129 46<557 635.012>
AnchorPoint: "Stacking" -199 767 basemark 0
AnchorPoint: "Stacking" -200 558 mark 0
AnchorPoint: "Diacritic" -199 558 mark 0
LayerCount: 2
Fore
SplineSet
-200 653 m 256
 -240.78152587 653 -271 624.471745586 -271 583 c 2
 -271 557 l 1
 -317 557 l 1
 -317 583 l 2
 -317 636.016901999 -283.746649635 673.989774571 -245.5 690 c 0
 -231.166666667 696 -216 699 -200 699 c 256
 -145.146288394 699 -109.922589418 666.513092398 -92.5 628 c 0
 -86.1666666667 614 -83 599 -83 583 c 2
 -83 557 l 1
 -129 557 l 1
 -129 583 l 2
 -129 625.356734108 -158.677237935 653 -200 653 c 256
EndSplineSet
Validated: 1
EndChar

StartChar: uni0483
Encoding: 1155 1155 11
Width: 1
Flags: W
HStem: 584 18<-29 -11> 648 18<-409 -391>
VStem: -367 96<537 625> -152 96<624 712>
DStem2: -409 666 -411 648 0.987316 -0.158764<-2.34129 45.4364 142.759 260.408 357.572 407.166>
AnchorPoint: "Stacking" -206 769 basemark 0
AnchorPoint: "Stacking" -207 554 mark 0
AnchorPoint: "Diacritic" -209 554 mark 0
LayerCount: 2
Fore
SplineSet
-11 602 m 1
 -9 600 -8 597.666666667 -8 595 c 0
 -8 591 -9.66666666667 587.333333333 -13 584 c 1
 -271 625 l 1
 -271 537 l 1
 -367 537 l 1
 -367 641 l 1
 -411 648 l 1
 -412.333333333 650.666666667 -413 653.333333333 -413 656 c 0
 -413 660.666666667 -411.666666667 664 -409 666 c 1
 -152 624 l 1
 -152 712 l 1
 -56 712 l 1
 -56 609 l 1
 -11 602 l 1
EndSplineSet
Validated: 1
EndChar

StartChar: uni033E
Encoding: 830 830 12
Width: 1
Flags: W
HStem: 525 288
VStem: -325 293
DStem2: -325 543 -315 525 0.88429 0.466938<-3.97054 135.065> -256 700 -152 732 0.88429 0.466938<106.908 246.411>
AnchorPoint: "Stacking" -279 855 basemark 0
AnchorPoint: "Stacking" -280 526 mark 0
AnchorPoint: "Yerok" -272 526 mark 0
LayerCount: 2
Fore
SplineSet
-152 732 m 1
 -100 646 l 2
 -97.3330078125 642 -97.6669921875 639.333007812 -101 638 c 2
 -315 525 l 1
 -321.403765951 526.067815466 -328.246156771 534.883419003 -325 543 c 1
 -205 605 l 1
 -257 692 l 2
 -259.666992188 696 -259.333007812 698.666992188 -256 700 c 2
 -42 813 l 1
 -35.596234049 811.932184534 -28.7538432283 803.116580996 -32 795 c 1
 -152 732 l 1
EndSplineSet
Validated: 1
EndChar

StartChar: colon
Encoding: 58 58 13
Width: 202
Flags: W
VStem: 33 131
LayerCount: 2
Fore
SplineSet
102 261 m 2
 99.3333333333 258.333333333 96.6666666667 258.333333333 94 261 c 2
 33 333 l 2
 31 336.333333333 31 339 33 341 c 2
 94 413 l 1
 97.3333333333 415 100 415 102 413 c 2
 164 342 l 2
 166.666666667 339.333333333 166.666666667 336.666666667 164 334 c 2
 102 261 l 2
102 3 m 2
 99.3333333333 0.333333333333 96.6666666667 0.333333333333 94 3 c 2
 33 75 l 2
 31 78.3333333333 31 81 33 83 c 2
 94 155 l 1
 97.3333333333 157 100 157 102 155 c 2
 164 84 l 2
 166.666666667 81.3333333333 166.666666667 78.6666666667 164 76 c 2
 102 3 l 2
EndSplineSet
Validated: 1
EndChar

StartChar: semicolon
Encoding: 59 59 14
Width: 263
Flags: W
HStem: 43 73<88.0334 166.545> 208 129<79.2469 174.754>
VStem: 62 130<224.673 320.049> 140 72<-57.1988 34.2399>
LayerCount: 2
Fore
SplineSet
62 272 m 256xe0
 62 307.713424341 91.2875842389 337 127 337 c 256
 162.713424341 337 192 307.712415761 192 272 c 256
 192 236.785594754 161.868728944 208 127 208 c 256
 92.1327050826 208 62 236.789021413 62 272 c 256xe0
100 43 m 0
 76.0667888345 43 61.1960916468 24.1960916468 49 12 c 1
 42.3893572474 14.644257101 36 19.6574993125 36 29 c 1
 60.9199646568 59.2599570833 86.5436391825 87.6102836889 123.5 108 c 0
 133.166666667 113.333333333 143.333333333 116 154 116 c 0
 179.090415336 110.424352149 196.76517819 82.0870545257 206 59 c 0
 210 49 212 39 212 29 c 0
 212 -31.1603411468 183.947873682 -73.7613766612 156 -109 c 0
 138 -132.333333333 119 -149.666666667 99 -161 c 1
 93 -157 88.6666666667 -151.666666667 86 -145 c 1
 115.505003703 -120.034227637 140 -86.7111841942 140 -33 c 0xd0
 140 -6.11516749038 130.844070451 20.7663248525 117.5 35 c 0
 112.5 40.3333333333 106.666666667 43 100 43 c 0
EndSplineSet
Validated: 1
EndChar

StartChar: uni2DEF
Encoding: 11759 11759 15
Width: 1
Flags: W
HStem: 783 26<-366 -318.429>
VStem: -425 59<687.8 775.67>
DStem2: -242 692 -225 673 0.696475 0.717581<-120.235 -1.79395> -248 810 -242 692 0.622014 -0.783006<-7.23617 87.4552 121.578 244.098>
AnchorPoint: "Stacking" -216 896 basemark 0
AnchorPoint: "Stacking" -217 590 mark 0
AnchorPoint: "Diacritic" -215 590 mark 0
LayerCount: 2
Fore
SplineSet
-44 721 m 0
 -56.2779067031 733.277906703 -87.6758711928 761.336873536 -105 768 c 0
 -110.333333333 768 -114.333333333 767 -117 765 c 0
 -135.97484451 751.200113084 -157.105241477 735.78330214 -176 718 c 1
 -145.207314161 676.496814737 -112.309714682 634.268527914 -78 596 c 0
 -76.6666666667 594.666666667 -76 593.166666667 -76 591.5 c 2
 -76 587 l 1
 -101.374651577 587 -124.548175112 588.554817512 -149 591 c 0
 -161.637107153 593.808246033 -167.394024536 596.751634349 -174 606 c 0
 -191.741137811 631.929355261 -204.518686038 649.787844177 -225 673 c 1
 -250.16982579 647.83017421 -279.178967706 614.938322623 -301 590 c 1
 -303.782102228 590 -306.710931282 589.950476431 -309.627864117 589.950476431 c 0
 -321.919552804 589.950476431 -334 590.829867762 -334 600 c 1
 -242 692 l 1
 -262.044102871 715.581297495 -294.812080418 755.904066227 -318 775 c 0
 -326.896349167 777.224087291 -352.461349787 780.560385654 -361 783 c 0
 -364.333333333 783 -366 781.333333333 -366 778 c 2
 -366 755 l 2
 -366 730.300846431 -368.480586028 703.918681437 -376 687 c 1
 -388.761646972 684.679700551 -408.737978086 679 -423 679 c 0
 -424.333333333 679 -425 679.833333333 -425 681.5 c 2
 -425 685 l 1
 -414.562281724 718.922584398 -406.188178708 769.61489686 -396 804 c 0
 -395.333333333 808 -391.666666667 810 -385 810 c 0
 -379.666666667 809.333333333 -374 809 -368 809 c 2
 -350 809 l 2
 -318.501954701 809 -285.475366655 810.436924639 -256 813 c 0
 -252.981390411 813 -250.229359732 811.114679866 -248 810 c 0
 -229.333333333 788.666666667 -211 766 -193 742 c 1
 -171.666666667 767.333333333 -152.666666667 788 -136 804 c 0
 -114 823.333333333 -85.6666666667 834.333333333 -51 837 c 0
 -27.0449384968 837 2 836.000497418 2 819 c 1
 -9.1342563114 806.47396165 -20.3306470247 798.340317737 -27 781 c 0
 -33.1745267276 763.711325163 -36.5181516263 746.74587723 -38 726 c 0
 -38 722.666666667 -40 721 -44 721 c 0
EndSplineSet
Validated: 1
EndChar

StartChar: uni2DE9
Encoding: 11753 11753 16
Width: 1
Flags: W
HStem: 553 140<-298.694 -219.57 -175.694 -96.5695> 614 25<-219 -176> 676 17<-310 -299 -182 -176>
VStem: -299 80<556.7 614 639 676> -176 80<556.7 614 639 693>
AnchorPoint: "Stacking" -198 772 basemark 0
AnchorPoint: "Stacking" -199 553 mark 0
AnchorPoint: "Diacritic" -198 552 mark 0
LayerCount: 2
Fore
SplineSet
-270 553 m 0x98
 -282.599979289 553 -292.529158131 553.529158131 -299 560 c 1
 -299 676 l 1
 -310 675 l 1
 -310 693 l 1
 -219 697 l 1
 -219 639 l 1
 -176 639 l 1
 -176 676 l 1
 -182 676 l 1
 -182 693 l 1x78
 -96 697 l 1
 -96 565 l 1
 -108.019248055 557.788451168 -128.417824982 553 -147 553 c 0x98
 -159.599979289 553 -169.529158131 553.529158131 -176 560 c 1
 -176 614 l 1
 -219 614 l 1x58
 -219 565 l 1
 -231.019248055 557.788451168 -251.417824982 553 -270 553 c 0x98
EndSplineSet
Validated: 1
EndChar

StartChar: uni2DEC
Encoding: 11756 11756 17
Width: 1
Flags: W
HStem: 561 17<-392 -376.398> 622 29<-296 -266.55> 711 24<-293.993 -266.265>
VStem: -376 80<578.001 627 651 710.192> -263 77<651.396 710.5>
AnchorPoint: "Stacking" -284 800 basemark 0
AnchorPoint: "Stacking" -285 559 mark 0
AnchorPoint: "Diacritic" -284 559 mark 0
LayerCount: 2
Fore
SplineSet
-285 735 m 0
 -237.53357086 735 -186 722.606083853 -186 675 c 0
 -186 636.467389635 -214.08253628 622 -250 622 c 256
 -266 622 -281.333333333 623.666666667 -296 627 c 1
 -296 577 l 1
 -318.84542708 563.292743752 -356.788513625 561 -391 561 c 1
 -391.666666667 564.333333333 -392 567 -392 569 c 2
 -392 578 l 1
 -386.666666667 578 -381.333333333 579 -376 581 c 1
 -376 672 l 2
 -376 716.366167591 -329.96316728 735 -285 735 c 0
-281 711 m 0
 -295.849032996 711 -296 694.431370471 -296 680 c 2
 -296 651 l 1
 -286 651 l 2
 -273.002984314 651 -263 665.632285051 -263 680 c 0
 -263 695.123437537 -265.189022551 711 -281 711 c 0
EndSplineSet
Validated: 1
EndChar

StartChar: uni2DF1
Encoding: 11761 11761 18
Width: 1
Flags: W
HStem: 552 114<-204.938 -148.394> 629 98<-272.533 -208.032>
VStem: -297 94<666.879 718.767>
AnchorPoint: "Stacking" -206 796 basemark 0
AnchorPoint: "Stacking" -209 548 mark 0
AnchorPoint: "Diacritic" -209 550 mark 0
LayerCount: 2
Fore
SplineSet
-203 666 m 1xa0
 -171.678885754 666 -140.233371791 693.04071083 -121 708 c 1
 -113.8263068 705.13052272 -114.765850672 703.324388004 -109 699 c 1
 -118.971109095 656.124230893 -129.889098631 601.218027367 -132 559 c 1
 -136.666666667 554.333333333 -144.666666667 552 -156 552 c 0xa0
 -178.773453337 552 -194.943483452 555.161266709 -211 561 c 1
 -209.795220308 581.481254758 -207.648082436 615.463422942 -205 634 c 1
 -216.830590546 631.042352364 -225.575197947 629 -241 629 c 0
 -253.9909043 629 -263.020733172 633.257774939 -273 637 c 1
 -284.514803008 648.514803008 -297 668.082909206 -297 691 c 0
 -297 698.333333333 -296 706 -294 714 c 1
 -274.198158933 719.824070902 -236.928116799 727 -212 727 c 0x60
 -210 725.666666667 -208.666666667 724.333333333 -208 723 c 0
 -208 707.788654759 -206.307045627 678.125833965 -203 666 c 1xa0
EndSplineSet
Validated: 1
EndChar

StartChar: uni0450
Encoding: 1104 1104 19
Width: 274
Flags: W
HStem: -9 90<77 143> 363 83<152.346 228.255> 644 20G<22.1318 80.3333>
VStem: 55 84<257.335 348.698> 65 74<80.0278 172.956>
DStem2: 27 664 22 615 0.936329 -0.351123<-0.816085 217.463>
AnchorPoint: "Yerok" 141 717 basechar 0
AnchorPoint: "Diacritic" 141 716 basechar 0
LayerCount: 2
Fore
SplineSet
22 615 m 1xe0
 18.4747943525 624.400548393 17 631.488627802 17 643 c 0
 17 651.321440553 17.2636301625 664 27 664 c 1
 219 592 l 1
 221.666666667 584 223 575.333333333 223 566 c 0
 223 558.364019154 222.745414922 543 214 543 c 1
 22 615 l 1xe0
58 7 m 0
 62.0353460613 36.5925377827 65 58.7945845547 65 92 c 0xe8
 65 152.112067348 55 203.909888306 55 266 c 0
 55 323.333333333 70 368 100 400 c 0
 120.620480936 421.995179665 164.583337262 443.489899229 206 446 c 0
 220.257880595 446 230 444.353646221 230 429 c 2
 230 420 l 2
 230 416.509968164 230.043982646 412.832631271 230.043982646 409.106770781 c 0
 230.043982646 390.595991491 228.958363276 370.887508983 216 367 c 0
 207.333333333 364.333333333 200.166666667 363 194.5 363 c 0
 166.632724725 363 139 336.729197156 139 310 c 2xf0
 139 257 l 1
 151.643591913 269.643591913 177.63765077 285.011073756 198 291 c 0
 201.333333333 292.333333333 204.333333333 293 207 293 c 2
 216 293 l 258
 219.333333333 293 221 291.333333333 221 288 c 0
 221 270.121936215 219.253896491 233.300654376 218 217 c 0
 218 212.333333333 215.333333333 209 210 207 c 0
 166.6948503 192.113854791 147.299462858 165.154303677 138 116 c 0
 138 104.03375781 139 90.498923202 139 80 c 1xe8
 140.333333333 80.6666666667 141.666666667 81 143 81 c 0
 159.234886126 81 173.92607174 92.0967705121 181.5 100 c 0
 189.166666667 108 196.666666667 115.333333333 204 122 c 1
 208 122 210.666666667 121 212 119 c 1
 212 104 l 2
 212 89.3333333333 211 76.6666666667 209 66 c 1
 184.536497532 29.94852268 136.082201529 -7.65722269251 77 -9 c 0
 68.5790435929 -9 58 -1.79935621587 58 7 c 0
EndSplineSet
Validated: 1
Ligature2: "'ccmp' Precomposed Glyphs-1" afii10070 gravecomb
EndChar

StartChar: uni0472
Encoding: 1138 1138 20
Width: 823
Flags: W
HStem: -10 21G<107 110.667 340.412 377.319 711.667 716> 231 18<169.161 232 345 489 592 652.891> 653 20G<427.966 461.258>
VStem: 103 29<-3.11975 78.2318> 216 101<250.869 478.884> 333 43<17 84.0565> 423 44<553.34 638.057> 492 102<171.768 231 249 380.829> 706 14<-9.98169 5.93784>
AnchorPoint: "Yerok" 535 716 basechar 0
AnchorPoint: "Diacritic" 415 716 basechar 0
LayerCount: 2
Fore
SplineSet
594 283 m 0
 594 271.000000001 593.333333334 259.666666666 592 249 c 1
 794 249 l 2
 796 249 797 247.333333333 797 244 c 0
 797 239.333333333 796 236 794 234 c 0
 753.346411513 171.664497655 728.931610586 85.2933093935 720 -7 c 0
 720 -9 718 -10 714 -10 c 0
 709.333333333 -10 706.666666667 -9 706 -7 c 0
 683.653098817 40.4871650166 670.589638257 115.374519733 660 174.5 c 0
 656 196.833333333 653.333333333 215.666666667 652 231 c 1
 589 231 l 1
 577.576804954 165.316628483 544.167101086 106.50305895 505 65.5 c 0
 466.906498685 25.6208658102 412.638390685 -8.05673372147 342 -11 c 0
 338.82409279 -7.82409278985 335.542927643 -4.81439146611 333 -1 c 0
 333 65.1379398228 300.875123833 100.555335407 277 143 c 0
 261.666666667 171 248.666666667 200.333333333 238 231 c 1
 170 231 l 1
 164.536970476 168.175160456 148.216833022 95.4570452409 132 40.5 c 0
 126 20.1666666667 120.666666667 4.33333333333 116 -7 c 0
 114.666666667 -9 112.333333333 -10 109 -10 c 0
 105 -10 103 -9 103 -7 c 0
 96.2135082217 63.1270817095 78.8782069678 127.164258452 56 181.5 c 0
 48 200.5 39 217.666666667 29 233 c 0
 26.3333333333 235.666666667 25 239 25 243 c 256
 25 247 26.3333333333 249 29 249 c 2
 232 249 l 1
 221.333333333 285.666666667 216 326.333333333 216 371 c 0
 216 455.570949639 254.257589894 523.497881714 296.5 570.5 c 0
 336.669037185 615.195125881 395.932682153 658.936442424 460 673 c 0
 462.515875277 671.742062361 465.748961914 666.502076171 467 664 c 0
 467 636 471.166666667 607.833333333 479.5 579.5 c 0
 487.833333333 551.166666667 504 519.333333333 528 484 c 0
 565.011171045 430.397614348 594 371.030855291 594 283 c 0
491 249 m 1
 491 257.499439998 492 266.173355672 492 275 c 0
 492 381.548897647 429.621161143 435.508518906 424 539.5 c 0
 423.333333333 551.833333333 423 565.666666667 423 581 c 0
 423 606.165222335 425.662440895 618.758057512 430 639 c 1
 425 638 l 1
 374.402425914 603.501654033 340.974282084 536.999647205 325.5 466 c 0
 319.833333333 440 317 413.666666667 317 387 c 0
 317 329.625139742 324.179439443 292.114357986 339 249 c 1
 491 249 l 1
345 231 m 1
 351.375438879 207.623390778 361.154061673 185.10986589 365.5 160 c 0
 373.096147884 116.11114556 376 67.3044248456 376 17 c 1
 384 18 l 1
 432.20475689 42.1023784459 459.326461305 105.115756246 475.5 163 c 0
 481.833333333 185.666666667 486.333333333 208.333333333 489 231 c 1
 345 231 l 1
EndSplineSet
Validated: 1
EndChar

StartChar: uni0406
Encoding: 1030 1030 21
Width: 316
Flags: W
HStem: 0 18<45 60.9656> 645 18<245.478 261>
VStem: 59 198<286.71 380.524 630.527 661> 135 45<400.863 567.163>
AnchorPoint: "Yerok" 154 716 basechar 0
AnchorPoint: "Diacritic" 154 716 basechar 0
LayerCount: 2
Fore
SplineSet
257 335 m 0xe0
 257 291.103137922 218.949156168 268.324859361 181 262 c 1
 185.094328807 182.160588236 196.158596322 103.5172783 229.5 53 c 0
 240.5 36.3333333333 254.333333333 24.6666666667 271 18 c 1
 271 0 l 1
 257.666666667 0 244.333333333 0.333333333333 231 1 c 0
 208.861390036 1 180.135910105 2 158 2 c 256
 135.861390036 2 107.135910105 1 85 1 c 0
 71.6666666667 0.333333333333 58.3333333333 0 45 0 c 1
 45 18 l 1
 117.731548179 47.0926192717 130.054879983 165.570159652 135 262 c 1xd0
 97.0399848055 268.326669198 59 291.098792421 59 335 c 256xe0
 59 378.91696439 97.0559099529 399.675984993 135 406 c 1
 132.940628073 484.25613319 125.53321325 561.447501636 94.5 610.5 c 0
 84.1666666667 626.833333333 71 638.333333333 55 645 c 1
 55 663 l 1
 67 662.333333333 79 662 91 662 c 0
 101.666666667 661.333333333 113 661 125 661 c 2
 190.5 661 l 2
 202.166666667 661 213.333333333 661.333333333 224 662 c 0
 236 662 248.333333333 662.333333333 261 663 c 1
 261 645 l 1
 189.916539406 616.566615761 182.540454008 502.537252266 180 406 c 1xd0
 216.771472118 399.871421314 257 376.978703417 257 335 c 0xe0
EndSplineSet
Validated: 1
EndChar

StartChar: uni047A
Encoding: 1146 1146 22
Width: 982
Flags: W
HStem: -59 122<445.607 536.936> -12 23<370.494 433.752 548.612 612.665> 598 122<445.064 536.862> 650 23<369.259 433.388 548.612 611.506>
VStem: 55 109<199.352 463.692> 818 109<197.003 461.342>
AnchorPoint: "Yerok" 845 716 basechar 0
AnchorPoint: "Diacritic" 490 776 basechar 0
LayerCount: 2
Fore
SplineSet
491 720 m 256x2c
 522.906473224 720 544.738663981 696.297611283 551 670 c 1
 563 672 575.666666667 673 589 673 c 0
 669.388699875 673 746.505347368 641.548629825 800 607 c 0
 878.283588521 557.420393935 927 456.147721657 927 330 c 0
 927 233.100148732 897.234575105 157.4008496 853.5 102.5 c 0
 816.033135634 55.4671277117 757.982568499 24.869552656 696 5.5 c 0
 658.666666667 -6.16666666667 623 -12 589 -12 c 0x5c
 575.666666667 -12 563 -11 551 -9 c 1
 545.995617111 -35.2730101631 521.567639988 -59 491 -59 c 0x8c
 459.552600475 -59 436.098720783 -35.7682841096 431 -9 c 1
 417.666666667 -11 405 -12 393 -12 c 0
 312.611300125 -12 235.494652632 19.4513701753 182 54 c 0
 121.305083258 92.4401139368 80.4840856241 163.076763462 63.5 245 c 0
 57.8333333333 272.333333333 55 300.666666667 55 330 c 0
 55 426.746696587 84.8898168003 503.755301941 128.5 558.5 c 0
 165.966864365 605.532872288 224.017431502 636.130447344 286 655.5 c 0
 323.333333333 667.166666667 359 673 393 673 c 0x5c
 405 673 417.666666667 672 431 670 c 1
 436.099960411 696.774792154 459.548791138 720 491 720 c 256x2c
551 650 m 1
 547.169684931 621.911022825 522.443074377 598 491 598 c 256x2c
 459.560825008 598 434.829443897 621.917411422 431 650 c 1
 421 650 l 2
 417.666666667 650 414.333333333 649.666666667 411 649 c 0
 326.852627717 634.975437952 260.897833577 590.256967011 220 533 c 0
 193.366105351 495.71254749 181.739509807 458.880183022 171.5 407 c 0
 166.5 381.666666667 164 356.333333333 164 331 c 0
 164 278.096154848 175.970506364 224.537663886 190 185 c 0
 213.557736883 116.682563044 269.06747424 66.1903593866 333 36 c 0
 357 24.6666666667 383 16.6666666667 411 12 c 0
 414.333333333 11.3333333333 417.666666667 11 421 11 c 2
 431 11 l 1x5c
 436.018124859 38.5996867217 459.079584664 63 491 63 c 256x8c
 522.439174992 63 547.170556103 39.0825885772 551 11 c 1
 561 11 l 2
 564.333333333 11 567.666666667 11.3333333333 571 12 c 0
 655.181071861 26.0301786435 719.938572534 71.2331722418 761.5 128 c 0
 788.704452245 165.157300627 800.21405343 201.884537377 810.5 254 c 0
 815.5 279.333333333 818 305 818 331 c 0
 818 382.977500123 805.852148424 436.962127166 792 476 c 0
 768.6059504 543.842743836 711.629661934 594.768894286 648.5 625 c 0
 624.833333333 636.333333333 599 644.333333333 571 649 c 0
 567.666666667 649.666666667 564.333333333 650 561 650 c 2
 551 650 l 1
EndSplineSet
Validated: 1
EndChar

StartChar: uni0470
Encoding: 1136 1136 23
Width: 607
Flags: W
HStem: 0 18<226.395 276 341 399.482> 535 132<531.298 591.875> 786 18<208.667 246.051>
VStem: 261 107<549.232 786.965> 276 65<-55.0952 0 18 245.52>
DStem2: 399 18 421 71 0.0715218 0.997439<0 442.814>
AnchorPoint: "Yerok" 525 756 basechar 0
AnchorPoint: "Diacritic" 86 758 basechar 0
LayerCount: 2
Fore
SplineSet
587 535 m 0xe8
 565.816644349 546.768530918 558.004602198 553 530 553 c 0
 514 553 499.666666667 548.333333333 487 539 c 1
 459.946478464 495.0380275 450.057100721 427.042456863 443 360 c 0
 431.850082716 273.030645175 427.13902826 163.085423905 421 71 c 0
 419 41 417.666666667 17.3333333333 417 0 c 1
 341 0 l 1
 341 -7 l 2
 341 -38.6991621875 362.196789035 -58.5983945173 385 -70 c 0
 389.666666667 -72.6666666667 392 -76.6666666667 392 -82 c 256
 392 -87.3333333333 389.666666667 -91 385 -93 c 0
 369.560774888 -99.1756900444 354.83521071 -117.839985125 345 -131.5 c 0
 335.957192262 -144.059455191 323.73674788 -163.053008477 320 -178 c 0
 318 -183.333333333 314 -186.333333333 308 -187 c 0
 302.666666667 -186.333333333 299 -183.333333333 297 -178 c 0
 290.54463274 -152.178530956 269.206657649 -125.502212775 252.5 -108 c 0
 245.5 -100.666666667 238.666666667 -95.6666666667 232 -93 c 0
 226.666666667 -91 224 -87.3333333333 224 -82 c 0
 224 -77.3333333333 226.666666667 -73.3333333333 232 -70 c 0
 254.825674116 -58.5871629414 276 -38.7189228535 276 -7 c 2
 276 0 l 1
 142 0 l 1
 131.003754656 157.612849932 105.424815196 319.088331618 74 460.5 c 0
 58.7680367476 529.043834635 39.602358418 601.182340962 15 655 c 0
 15 658.369416284 18.0626608017 662.062660802 20 664 c 0
 32.6666666667 666 49.3333333333 667 70 667 c 0
 88.6666666667 667 106 666 122 664 c 1
 141.669010677 621.085794885 154.232445444 559.020523866 165.5 500 c 0
 193.958198754 350.93324462 214.202608288 181.166744307 227 18 c 1
 276 18 l 1xe8
 276 196.08308264 268.256552761 390.842733725 261 565 c 0
 257.761186861 642.731515327 253.367930738 725.530606047 246 790 c 1
 228 788 l 2
 222 787.333333333 215.666666667 786.666666667 209 786 c 1
 207 804 l 1
 248.824046164 808.326625465 270.8860079 811.396002258 308 822 c 256
 343.159606715 832.045601918 372.975714598 839.487857298 402 854 c 1
 410 838 l 1
 396.629432838 831.31471642 382.704505616 826.347092952 368 821 c 1xf0
 351.523758738 562.872220225 345.463012818 285.780768973 341 18 c 1
 399 18 l 1
 402.385155434 65.3921760944 406.6689078 127.459306969 410.5 180 c 2
 417.5 276 l 2
 426.183045304 395.081764179 434.695706053 512.656219546 481.5 593.5 c 0
 504.954554151 634.012411716 542.975993832 667 603 667 c 0
 609.898497786 667 619.759711485 665.180216386 624 662 c 1
 624 656.225374064 623.37350522 648.56025783 621 645 c 0
 610.464633998 638.415396249 599.717252821 616.629927008 596 603 c 0
 593.333333333 592.333333333 592 581 592 569 c 0
 592 560.333333333 593 552 595 544 c 0
 595 538 592.333333333 535 587 535 c 0xe8
EndSplineSet
Validated: 1
EndChar

StartChar: uni047C
Encoding: 1148 1148 24
Width: 1356
VWidth: 1400
Flags: WO
HStem: -14 129.2<996.184 1112.89> -14 45.2002<257.784 469.263> 543.2 112.399<1003.03 1109.56> 614 23<616.186 672.237> 727 73<596.151 695.317> 757 23<1008.2 1079.53> 883 45<569.469 718.069>
VStem: 47.2002 84.3994<189.307 420.926> 327 149<711.556 765.683> 527 17<675.119 693.033> 682 90<654.685 720.333> 1222.2 90<227.818 461.898>
DStem2: 818 879 750 843 0.862639 -0.50582<-134.227 193.314>
AnchorPoint: "Diacritic" 687.4 1046.4 basechar 0
AnchorPoint: "Yerok" 687.4 1046.4 basechar 0
LayerCount: 2
Fore
SplineSet
682 675 m 0x1bf0
 682 704.155273438 645.69921875 727 616 727 c 0
 581.202148438 727 555.984375 701.97265625 544 681 c 0
 541.333007812 677 538 675 534 675 c 0
 527.946289062 675 527 680.677734375 527 686 c 0
 535.83203125 738.985351562 577.619140625 774.145507812 623.5 791 c 0
 639.833007812 797 656.666992188 800 674 800 c 0
 716.633789062 800 748.354492188 777.5078125 763.5 749 c 0
 769.166992188 738.333007812 772 726.666992188 772 714 c 0
 772 666.671875 739.416992188 637.28515625 705.5 622.5 c 0
 692.5 616.833007812 679 614 665 614 c 0
 641.40234375 614 614.442382812 621.9453125 604 635 c 0
 604 641.115234375 604.452148438 642.78125 610 645 c 1
 622.666992188 639.666992188 637.333007812 637 654 637 c 0
 669.404296875 639.799804688 682 656.184570312 682 675 c 0x1bf0
393 708 m 0
 371.381835938 708 349.029296875 709.360351562 331 711 c 0
 326.84375 711 327 717.104492188 327 721 c 0
 349.182617188 776.458984375 377.413085938 816.413085938 418.5 857.5 c 0
 420.166992188 859.166992188 422.666992188 860.666992188 426 862 c 0
 507.421875 892.533203125 577.408203125 911.400390625 677 928 c 1
 692.5 928 l 2
 713.577148438 928 727.874023438 923.03125 742 919.5 c 0
 768.919921875 912.770507812 794.836914062 894.106445312 818 879 c 2
 864 849 l 2
 900.384765625 825.26953125 940.268554688 798.926757812 990.5 792 c 0
 1014.88476562 788.637695312 1053.453125 789.338867188 1074 780 c 0
 1080.09570312 775.122070312 1083 767.375976562 1083 757 c 1x07f0
 1035.25585938 745.330078125 971.317382812 742 918 742 c 1
 852.883789062 772.053710938 805.430664062 806.848632812 750 843 c 0
 734.666992188 853 717.333007812 862.333007812 698 871 c 1
 667.530273438 877.623046875 654.217773438 883 619 883 c 0
 530.546875 883 476 832.881835938 476 746 c 0
 476 732.004882812 476.512695312 722.895507812 478 711 c 1
 453.25390625 709.543945312 420.557617188 708 393 708 c 0
363.428710938 -14 m 0x43f0
 136.180881476 -14 47.2001953125 127.203833812 47.2001953125 354.400390625 c 0
 47.2001953125 485.767578125 116.96484375 576.946289062 209.934570312 619.676757812 c 0
 244.216796875 635.266601562 282.150390625 643 323.44921875 643 c 0
 353.627929688 643 377.237304688 638.525390625 400.935546875 632.715820312 c 1
 485.748046875 597.604492188 569.043945312 542.491210938 632.701171875 490.143554688 c 1
 623.964408678 423.734606012 567.861730443 382.349928539 500.930664062 377.811523438 c 1
 467.829101562 396.745117188 434.247070312 432.11328125 404.365234375 459.036132812 c 0
 373.786132812 486.586914062 338.486328125 518.965820312 303.697265625 536.956054688 c 1
 211.284179688 512.137695312 162.684570312 416.13671875 142.615234375 313.27734375 c 0
 135.313476562 275.85546875 131.645507812 238.46875 131.599609375 201.100585938 c 1
 143.26171875 118.727539062 206.028320312 67.880859375 281.596679688 44.021484375 c 0
 308.659179688 35.4765625 336.854492188 31.2001953125 366.28515625 31.2001953125 c 0x43f0
 453.271484375 31.2001953125 523.8671875 74.3056640625 575.180664062 118.327148438 c 0
 629.26087377 164.725160285 678.328727748 226.305409921 703.2734375 293 c 1
 722.36328125 293 l 1
 803.388671875 233.416015625 900.141601562 168.982421875 1005.06152344 132.837890625 c 0
 1039.3984375 121.008789062 1071.58691406 115.200195312 1101.6328125 115.200195312 c 0
 1215.83178003 115.200195312 1222.20019531 210.267162941 1222.20019531 326.400390625 c 0
 1222.20019531 416.35546875 1202.20703125 491.618164062 1152.84960938 526.142578125 c 0
 1136.68945312 537.401367188 1117.04003906 543.200195312 1093.06542969 543.200195312 c 0
 977.74487247 543.200195312 940.071151488 476.242956321 934.7734375 368.10546875 c 0
 934.581181254 356.859376826 923.833181718 348.599609375 913.155273438 348.599609375 c 2
 909.872070312 348.599609375 l 1
 845.200195312 394.17578125 791.623046875 426.303710938 715.90625 461.470703125 c 1
 715.90625 467.799804688 l 2
 715.90625 473.870117188 717.190429688 480.530273438 720.959960938 485.200195312 c 0
 774.176757812 551.107421875 836.403320312 610.436523438 926.967773438 641.055664062 c 0
 955.728515625 650.78125 986.861328125 655.599609375 1020.24414062 655.599609375 c 2
 1020.79589844 655.599609375 l 1
 1135.10253906 643.591796875 1215.7109375 579.626953125 1276.82324219 518.515625 c 1
 1302.50585938 467.150390625 1312.20019531 427.745117188 1312.20019531 355.799804688 c 0
 1312.20019531 257.387695312 1273.57714844 168.689453125 1229.08300781 107.713867188 c 0
 1186.76171875 49.8642578125 1116.26757812 -14 1020.24414062 -14 c 0xa3f0
 895.369140625 -14 795.08203125 38.265625 722.2109375 90.8408203125 c 0
 700.096679688 106.795898438 680.963867188 122.27734375 664.802734375 137.34765625 c 1
 592.751953125 66.5986328125 510.026367188 -14 363.428710938 -14 c 0x43f0
EndSplineSet
LCarets2: 1 0
Ligature2: "'ccmp' Precomposed Glyphs-1" uniA64C uniE005
EndChar

StartChar: uni047E
Encoding: 1150 1150 25
Width: 945
Flags: W
HStem: -11 50<259.037 386.553 557.087 685.957> 164 91<398.148 462 482 545.99> 370 20<360.078 392.508 551.01 583.922> 485 114<314.372 401.321 542.744 630.628> 654 20<276.514 366.618 577.375 668.712> 724 153<422 522> 859 18<142.099 169.6 302.375 422 522 641.625 774.39 801.956>
VStem: 55 109<179.289 499.526> 261 12<711.001 731.157> 417 18<550.724 605.629> 422 100<724 859> 462 20<106.943 164 255 307.817> 510 18<549.154 604.671> 671 12<711.001 731.166> 781 109<180.9 497.994>
AnchorPoint: "Yerok" 855 716 basechar 0
AnchorPoint: "Diacritic" 855 716 basechar 0
LayerCount: 2
Fore
SplineSet
644 542 m 256xf9de
 644 511.619908991 617.379082427 485 587 485 c 0
 552.029381346 485 527.455644643 510.717743129 516.5 536 c 0
 512.166666667 546 510 556.666666667 510 568 c 0
 510 617.821995131 542.650373411 651.460149365 579 666 c 0
 592.333333333 671.333333333 606.333333333 674 621 674 c 0
 718.498579554 674 772.444053402 639.536043685 821 586 c 0
 875.694759871 526.332989233 890 428.491310058 890 315 c 0
 890 207.354956554 860.941676223 109.450591395 807 53 c 0
 769.977692414 15.9776924136 723.255856589 -11 651 -11 c 0
 583.026116374 -11 528.184594798 18.9784862429 496.5 57 c 0
 484.833333333 71 476.666666667 86.3333333333 472 103 c 1
 456.719999687 48.4285703154 406.852685394 13.7104500298 352.5 -2.5 c 0
 333.5 -8.16666666667 314 -11 294 -11 c 0
 221.794147195 -11 173.978705064 16.0212949359 137 53 c 0
 80.6034532606 109.396546738 55 203.582640503 55 315 c 256
 55 427.853303076 68.7801668011 526.851091057 123 586 c 0
 171.556787848 639.536971218 226.480252528 674 324 674 c 0
 374.323148831 674 409.737219173 644.736025125 426 609.5 c 0
 432 596.5 435 582.666666667 435 568 c 0
 435 530.545946378 412.040646277 503.590300057 386 491.5 c 0
 376.666666667 487.166666667 367.333333333 485 358 485 c 0
 327.619908991 485 301 511.620917573 301 542 c 256
 301 572.380091009 327.620917573 599 358 599 c 0
 386.751040125 599 410.194017448 575.373217016 414 550 c 1
 416 554.666666667 417 560.666666667 417 568 c 0
 417 609.652604008 389.907832901 635.521156737 359.5 647.5 c 0
 348.5 651.833333333 337 654 325 654 c 0
 254.607899536 654 218.030387543 603.744323723 197 550 c 0
 174.243682469 491.844966308 164 409.602207751 164 330 c 0
 164 218.25572663 194.540556986 114.127334027 255.5 63.5 c 0
 275.166666667 47.1666666667 297 39 321 39 c 0
 376.245302066 39 424.516161669 67.6332585834 448.5 100.5 c 0
 457.5 112.833333333 462 126.333333333 462 141 c 2
 462 164 l 1
 426.484460438 164 388 176.644603152 388 212 c 0
 388 247.942137948 427.171996222 253.756142722 462 255 c 1
 462 274 l 2
 462 297.591057778 448.53644523 317.420639151 435.5 331.5 c 0
 418.416954548 349.949689089 392.675563036 363.548790645 363 370 c 0
 361 370 360 372.666666667 360 378 c 0
 360 384 361.666666667 388 365 390 c 0
 393.686603577 386.088190421 439.009464085 382 472 382 c 256
 505.005814936 382 550.309847618 386.087706493 579 390 c 0
 582.333333333 388 584 384 584 378 c 0
 584 372.666666667 583 370 581 370 c 0
 539.144225142 360.90091851 503.582949929 337.806807531 488.5 303 c 0
 484.166666667 293 482 283.333333333 482 274 c 2
 482 255 l 1
 517.756950219 255 556 247.723705198 556 212 c 256
 556 176.64170118 517.515061677 164 482 164 c 1
 482 141 l 2
 482 106.878537467 507.126248936 83.2045542557 530 68.5 c 0
 553.642147172 53.301476818 588.273177267 39 624 39 c 0
 681.354775873 39 717.763429804 85.495945352 739 128.5 c 0
 764.555087321 180.249051827 781 253.702454788 781 330 c 0
 781 450.782392134 761.466799694 566.563316417 699 625 c 0
 678.333333333 644.333333333 652 654 620 654 c 0
 579.250695307 654 549.093865686 630.593989084 535.5 602.5 c 0
 530.5 592.166666667 528 580.666666667 528 568 c 0
 528 560.740433351 528.73346261 555.332686949 530 549 c 1
 533.821820845 575.752745912 556.880509725 599 587 599 c 0
 617.380091009 599 644 572.379082427 644 542 c 256xf9de
422 724 m 1xfda6
 422 859 l 1
 303 859 l 1
 300.3533756 814.007385182 286.502283765 749.369449585 273 715 c 0
 272.333333333 712.333333333 270.333333333 711 267 711 c 0
 263 711 261 712.333333333 261 715 c 0
 250.631795366 786.096260344 210.136042989 837.931061215 147 861 c 0
 143.666666667 861.666666667 142 864.666666667 142 870 c 0
 142 874.666666667 143.666666667 877 147 877 c 2
 797 877 l 6
 800.333333333 877 802 874.333333333 802 869 c 0
 802 865 800.333333333 862.333333333 797 861 c 0
 733.829249504 837.918379626 693.37503254 786.143080271 683 715 c 0
 682.333333333 712.333333333 680.333333333 711 677 711 c 256
 673.666666667 711 671.666666667 712.333333333 671 715 c 0
 657.485195386 749.401320839 643.647531604 813.991962716 641 859 c 1
 522 859 l 1xfba6
 522 724 l 1
 422 724 l 1xfda6
EndSplineSet
Validated: 1
EndChar

StartChar: uni0478
Encoding: 1144 1144 26
Width: 900
Flags: W
HStem: -11 21G<187.333 223.692 581.333 599.5> 9 18<667 687> 423 20G<527 545.278 855.511 882.333> 653 20G<264.159 301>
VStem: 35 106<274.37 481.456> 180 59<28 84.4067> 334 108<180.16 369.104> 578 89<26 246.559> 685 45<-260.634 8.00146>
DStem2: 699.5 191 752 278 0.0526315 0.998614<-302.473 -182.406 0 140.202>
AnchorPoint: "Yerok" 692 556 basechar 0
AnchorPoint: "Diacritic" 691 556 basechar 0
LayerCount: 2
Fore
SplineSet
299 673 m 0xbf80
 303 671.666666667 305.666666667 668.666666667 307 664 c 0
 316.654381825 589.983072672 340.139947847 541.546988269 374 482 c 0
 406.551759719 426.91240663 442 368.91100527 442 283 c 0
 442 200.089641962 405.025002703 137.420777503 362.5 92.5 c 0
 318.947007 46.4933172546 257.384207405 7.63818502718 190 -11 c 1
 184.666666667 -7 181.333333333 -3.66666666667 180 -1 c 1
 180 18 l 1
 169.777667844 81.8895759644 137.301369661 121.497717232 110 167 c 0
 72.4991270423 228.766143696 35 280.412666293 35 378 c 0
 35 463.151000412 76.1224643525 528.031970462 121 573.5 c 0
 165.264699082 618.347129334 229.317142828 659.36639751 299 673 c 0xbf80
687 9 m 1x7f80
 650.493381517 4.78769786732 615.999649984 -2.1154788504 583 -11 c 0xbf80
 579.666666667 -11 578 -9 578 -5 c 0
 578 137.656089049 557.695183884 265.453104632 535.5 384.5 c 0
 531.833333333 404.166666667 528.333333333 421.333333333 525 436 c 0
 525 440.666666667 526 443 528 443 c 0
 562.556546375 443 599.195961009 439.134006497 630 434 c 1
 651.418399996 312.629066687 661.425106725 162.584885282 667 26 c 1
 688 27 l 1
 691.450865049 85.6647058433 694.018134531 136.18134532 699.5 191 c 2
 705 246 l 258
 711.299842864 308.998428637 725.27092001 368.321717512 757 406 c 0
 782.348369953 436.101189319 830.021914026 440.316942842 881 443 c 0
 883.666666667 443 885 440.333333333 885 435 c 1
 868.940125688 415.49872405 858 396.752188321 858 365 c 0
 858 357 859 348 861 338 c 0
 861 334.078156998 860.026144022 329 856 329 c 0
 839.861076059 335.207278438 828.654342342 343 808 343 c 0
 775.280946933 343 755.780383989 306.982943918 752 278 c 0
 739.583813186 172.462412096 730 61.1052768269 730 -55.5 c 2
 730 -113.5 l 2
 730 -234.936044525 721.263642049 -358.225730097 700 -461 c 0
 693.367274575 -493.058172885 693.203484842 -518.786434343 660 -521 c 1
 656.666666667 -518.333333333 655 -514.333333333 655 -509 c 1
 662.175748745 -506.129700503 665.952920078 -484.423719291 667 -475 c 0
 677.900344315 -339.835730479 685 -198.270621434 685 -49 c 0
 685 -31.6666666667 685.666666667 -12.3333333333 687 9 c 1x7f80
245 29 m 1
 295.600038339 76.9368784269 334 166.471114113 334 266 c 0
 334 331.364898126 309.159263929 373.973531636 292 423 c 0
 274.125286652 472.15546171 259 514.535997173 259 581 c 0
 259 605.492898841 259.771565305 625.267304758 264 645 c 1
 259 644 l 1
 203.227233174 611.465886019 167.716639679 540.491114444 150.5 468 c 0
 144.166666667 441.333333333 141 414.666666667 141 388 c 0
 141 352 145.666666667 321 155 295 c 0
 164.333333333 269 176 241.333333333 190 212 c 0
 221.333333333 144.666666667 237.666666667 83.3333333333 239 28 c 1
 245 29 l 1
EndSplineSet
Validated: 1
Ligature2: "'ccmp' Precomposed Glyphs-1" afii10032 uni0443
EndChar

StartChar: uni0474
Encoding: 1140 1140 27
Width: 493
Flags: W
HStem: 0 18<116 142 238.726 271 289 321> 578 95<399.186 467.366> 645 18<20 50.4476 152 192>
VStem: 48 104<559.477 645> 142 97<18 253.105> 271 18<18 178.594>
AnchorPoint: "Yerok" 255 716 basechar 0
AnchorPoint: "Diacritic" 255 716 basechar 0
LayerCount: 2
Fore
SplineSet
459 558 m 0xcc
 442.701507583 568.029841486 432.6087128 578 408 578 c 0
 388 578 373.333333333 571.833333333 364 559.5 c 0
 325.750764744 508.956367697 320.30228871 429.353115977 312 345.5 c 0
 301.74650879 241.939738768 293.136487456 127.616917622 289 18 c 1
 321 18 l 1
 321 0 l 1
 116 0 l 1
 116 18 l 1
 142 18 l 1xcc
 139.188341417 124.843026113 123.885112709 235.112013861 109 336 c 0
 93.3135676337 442.319152706 74.3366118884 552.821858392 48 645 c 1
 20 645 l 1
 20 663 l 1
 192 663 l 1
 192 645 l 1
 152 645 l 1xb4
 178.393242572 555.262975259 193.415840566 440.928225659 207 336.5 c 0
 220.443535375 233.1528218 233.263019097 124.134146729 239 18 c 1
 271 18 l 1
 276.263883931 160.124866175 287.255544759 306.393249111 304 437 c 0
 317.136864335 540.452806641 340.554722294 627.308926456 421.5 664.5 c 0
 433.833333333 670.166666667 447.666666667 673 463 673 c 0
 482.741636301 673 511 671.938105333 511 653 c 1
 495.981569465 639.34688133 490.316035049 631.974052574 479 615 c 256
 469.665692344 600.998538515 468 583.373675205 468 562 c 0
 466.666666667 559.333333333 463.666666667 558 459 558 c 0xcc
EndSplineSet
Validated: 1
EndChar

StartChar: uni0460
Encoding: 1120 1120 28
Width: 780
Flags: W
HStem: -10 21G<169.667 171 510.333 511.667> 645 21.0628G<108.376 116.957 393.406 411 657.547 672.667>
VStem: 45 109<200.93 558.99> 320 107<248.086 593.593> 634 101<266.817 512.648>
AnchorPoint: "Yerok" 395 716 basechar 0
AnchorPoint: "Diacritic" 395 716 basechar 0
LayerCount: 2
Fore
SplineSet
201 652 m 0
 173.537377095 569.612131282 154 466.023924338 154 354 c 0
 154 253.586742543 177.985937342 169.422500253 217 107 c 0
 224.266665316 93.6777802532 236.057923017 84.4826230946 251 80 c 1
 273.581623109 98.065298489 300.107288638 124.054606422 318 141.5 c 0
 331.333333333 154.5 345.333333333 169.333333333 360 186 c 1
 333.333333333 250 320 322.333333333 320 403 c 0
 320 489.486862272 332.166008691 590.247039113 347 657 c 0
 348.333333333 661 351.666666667 663 357 663 c 0
 371.189300904 664.289936447 385.811298687 665 401 665 c 0
 421 665 441 664 461 662 c 1
 463.97783276 660.51108362 469 659.07122131 469 655 c 0
 442.348798968 591.703397543 427 507.487362578 427 418 c 0
 427 297.899456857 457.309744589 185.38178128 509 114 c 0
 523 94.6666666667 537 77.6666666667 551 63 c 1
 593 102.333333333 617.666666667 150.333333333 625 207 c 0
 630.34977863 247.12333972 634 276.325419119 634 321 c 0
 634 443.352042754 607.953985187 560.062307018 569 642 c 1
 569 653.778006307 585.016073472 652.296354763 596 655.5 c 0
 619.249478433 662.281097875 645.093670204 669.471576402 670 674 c 0
 675.333333333 674 678.666666667 673.333333333 680 672 c 0
 706.332534421 605.475702517 735 523.226221015 735 428 c 0
 735 210.966315719 634.476050665 91.4028121003 517 -8 c 0
 514.333333333 -9.33333333333 512.333333333 -10 511 -10 c 256
 509.666666667 -10 507.666666667 -9.33333333333 505 -8 c 0
 445.480829571 38.5802203369 405.600145188 94.7997096233 370 166 c 1
 310.746508993 101.103319374 246.02454341 45.2684075584 175 -8 c 0
 173.666666667 -9.33333333333 172 -10 170 -10 c 0
 169.333333333 -10 167.666666667 -9.33333333333 165 -8 c 0
 93.7179378338 79.8296837412 45 208.013611705 45 364 c 0
 45 466.177314711 61.737634069 581.792113564 84 656 c 0
 85.5208304338 665.124982603 101.558581009 666.06277302 115.193032503 666.06277302 c 0
 118.720567152 666.06277302 122.087231804 666 125 666 c 0
 147.056849362 666 179.762879902 663.134021835 197 660 c 0
 199.666666667 658 201 655.333333333 201 652 c 0
EndSplineSet
Validated: 1
AlternateSubs2: "'salt' Stylistic Alternatives-1" uni0460.alt
EndChar

StartChar: uni046E
Encoding: 1134 1134 29
Width: 607
Flags: W
HStem: -179 41<118.953 249.31> -86 26<374.795 483.717> -9 18<243.179 362.817> 118 18<35 50 165.108 193> 333 18<237.255 362.776> 421 18<35 53 170.591 193> 788 18<136 162>
VStem: 37 100<-123.143 -14.5888> 47 114<136.583 250.977> 53 113<136 165.47 439 537.299> 428 104<418.888 589.644> 451 110<79.9894 258.268> 463 123<-174.656 -101.819>
AnchorPoint: "Yerok" 445 870 basechar 0
AnchorPoint: "Diacritic" 295 870 basechar 0
LayerCount: 2
Fore
SplineSet
166 500 m 0xfe60
 166 474.146784323 167.990248901 461.721922894 172 439 c 1
 193 439 l 1
 193 421 l 1
 35 421 l 1
 35 439 l 1
 53 439 l 1
 54.6667588422 477.335453369 57.862533265 505.889487048 73 535 c 0
 97.570288844 584.140577689 143.956218294 627.658593536 194.5 651.5 c 0
 212.166666667 659.833333333 229.666666667 665 247 667 c 1
 162 788 l 1
 136 788 l 1
 136 806 l 1
 257 806 l 1
 295 730 l 1
 298.513606324 740.540818967 314.435966088 764.29064406 323 770 c 0
 347.800092249 789.8400738 389.794400248 808.422432069 424 818 c 0
 427.582039041 818 435 818.098542639 435 815 c 0
 435 796.967459694 425.317180887 764.512214706 406 761 c 0
 376.501553747 757.529594559 359.293639087 746.529092724 336 731 c 1
 328.280437184 720.192612056 320.022253722 706.874131823 313 694 c 1
 325 670 l 1
 332.333333333 669.333333333 340 668.5 348 667.5 c 2
 376 664 l 1
 461.99333465 648.0753084 532 609.934869537 532 508 c 0xfe60
 532 468.283659493 526.29681026 431.917679942 505 412.5 c 0
 493.666666667 402.166666667 481.333333333 391.333333333 468 380 c 1
 436 368 411 355.333333333 393 342 c 1
 450.865273156 332.120563119 486.485371533 314.340196955 524 282 c 1
 545.979574731 254.025995796 561 215.611035604 561 165 c 256xfe10
 561 34.7610623996 450.983946197 -9 321 -9 c 0
 278.816151015 -9 249.063756979 -3 208 -3 c 0
 156.452371688 -3 137 -20.9077638582 137 -71 c 0
 137 -109.570456156 162.750358808 -138 200 -138 c 0
 249.302357147 -138 275.265516715 -126.481650565 309 -106 c 0
 354.45696372 -78.9715350857 389.904480945 -60 457 -60 c 0
 510.433563762 -60 553.780420008 -79.2061036483 575 -112 c 0
 582.333333333 -123.333333333 586 -136.333333333 586 -151 c 0
 586 -159 584.666666667 -167 582 -175 c 1
 567.411830802 -177.917633839 548.111838823 -178.000298279 529.370201545 -178.000298279 c 0
 528.244405543 -178.000298279 527.12062426 -178 526 -178 c 0
 504.635714251 -178 478.495860903 -177.915976816 461 -175 c 1
 462.333333333 -168.333333333 463 -161 463 -153 c 0
 463 -128.919470313 446.941376235 -104.901086502 432.5 -93.5 c 0
 426.166666667 -88.5 419 -86 411 -86 c 0
 393.666666667 -86 378.333333333 -89.8333333333 365 -97.5 c 0
 326.421678392 -119.682534926 280.544442791 -146.94444508 237.5 -163.5 c 0
 212.07378579 -173.279313158 185.534263416 -179 151 -179 c 0
 84.4018224918 -179 37 -140.150843938 37 -74 c 0xff08
 37 -0.940830839035 88.8403688717 29 161 29 c 0
 217.053494626 29 255.945706489 9 312 9 c 0
 407.230553835 9 451 80.0953143024 451 177 c 0
 451 234.598184925 426.517801746 293.344427325 392 318 c 1
 358.893031044 332.006794558 332.594437886 333 288 333 c 256
 207.283186664 333 161 276.426594748 161 196 c 0
 161 175.580666219 162.982122237 152.071511052 167 136 c 1
 193 136 l 1
 193 118 l 1
 35 118 l 1
 35 136 l 1
 50 136 l 1
 48 144.666666667 47 154.666666667 47 166 c 0xfe90
 49.7341818912 268.531820924 119.801516481 333.421806058 215 345 c 0
 245.666666667 349 273.333333333 351 298 351 c 0
 316 351 334.666666667 350 354 348 c 0
 358 349.333333333 361.666666667 351.333333333 365 354 c 2
 380 366 l 1
 413.5025388 394.716461828 428 440.865720563 428 499 c 0
 428 568.644853233 405.250809383 618.411036781 359 642.5 c 0
 343 650.833333333 323.666666667 655 301 655 c 0
 232.611708211 655 191.847619023 607.41481474 175 555 c 0
 169 536.333333333 166 518 166 500 c 0xfe60
EndSplineSet
Validated: 1
EndChar

StartChar: uni0476
Encoding: 1142 1142 30
Width: 493
Flags: W
HStem: 0 18<116 142 238.726 271 289 321> 578 95<399.186 467.366> 645 18<20 50.4476 152 192> 706 90<155.938 215.062 282.938 342.062>
VStem: 48 104<559.477 645> 142 97<18 253.105> 271 18<18 178.594>
AnchorPoint: "Yerok" 252 856 basechar 0
AnchorPoint: "Diacritic" 252 855 basechar 0
LayerCount: 2
Fore
SplineSet
333 796 m 2x92
 335 796 336.666666667 794 338 790 c 2
 358 712 l 2
 358 708 356.666666667 706 354 706 c 2
 292 706 l 2
 290 706 288.333333333 708 287 712 c 2
 267 790 l 2
 267 794 268.333333333 796 271 796 c 2
 333 796 l 2x92
206 796 m 2
 208 796 209.666666667 794 211 790 c 2
 231 712 l 2
 231 708 229.666666667 706 227 706 c 2
 165 706 l 2
 163 706 161.333333333 708 160 712 c 2
 140 790 l 2
 140 794 141.333333333 796 144 796 c 2
 206 796 l 2
459 558 m 0
 442.701507583 568.029841486 432.6087128 578 408 578 c 0
 388 578 373.333333333 571.833333333 364 559.5 c 0
 325.750764744 508.956367697 320.30228871 429.353115977 312 345.5 c 0
 301.74650879 241.939738768 293.136487456 127.616917622 289 18 c 1
 321 18 l 1
 321 0 l 1
 116 0 l 1
 116 18 l 1
 142 18 l 1xd6
 139.188341417 124.843026113 123.885112709 235.112013861 109 336 c 0
 93.3135676337 442.319152706 74.3366118884 552.821858392 48 645 c 1
 20 645 l 1
 20 663 l 1
 192 663 l 1
 192 645 l 1
 152 645 l 1xba
 178.393242572 555.262975259 193.415840566 440.928225659 207 336.5 c 0
 220.443535375 233.1528218 233.263019097 124.134146729 239 18 c 1
 271 18 l 1
 276.263883931 160.124866175 287.255544759 306.393249111 304 437 c 0
 317.136864335 540.452806641 340.554722294 627.308926456 421.5 664.5 c 0
 433.833333333 670.166666667 447.666666667 673 463 673 c 0xd6
 482.741636301 673 511 671.938105333 511 653 c 1
 495.981569465 639.34688133 490.316035049 631.974052574 479 615 c 256
 469.665692344 600.998538515 468 583.373675205 468 562 c 0
 466.666666667 559.333333333 463.666666667 558 459 558 c 0
EndSplineSet
Validated: 1
Ligature2: "'ccmp' Precomposed Glyphs-1" uni0474 uni030F
EndChar

StartChar: uni0466
Encoding: 1126 1126 31
Width: 777
Flags: W
HStem: 0 18<42 76 194.082 242 283 333 433 483 533 572.038 701 733> 386 18<304 333 433 450> 645 18<283 331.978 443 490>
VStem: 70 105<22.0406 200.793> 333 100<18 386> 338 105<552.309 644.355> 590 114<19.5191 229.178>
AnchorPoint: "Yerok" 377 716 basechar 0
AnchorPoint: "Diacritic" 376 716 basechar 0
LayerCount: 2
Fore
SplineSet
338 606 m 1xf6
 334.153573726 617.539278823 332.375334721 631.246652798 331 645 c 1
 283 645 l 1
 283 663 l 1
 490 663 l 1
 490 645 l 1
 443 645 l 1xf6
 443 600.639235752 455.994237766 567.942360251 472.5 535.5 c 0
 491.872731911 497.422561417 508.37630813 480.741384055 534 448 c 0
 569.504506977 402.633129974 610.646566251 352.804578331 645 307 c 0
 675.112672551 265.305530314 704 194.052734273 704 126 c 0
 704 86.6735982907 703.989978948 52.384757911 701 18 c 1
 733 18 l 1
 733 0 l 1
 533 0 l 1
 533 18 l 1
 568 18 l 1
 583.127679758 48.2553595174 590 89.7474322893 590 136 c 0
 590 222.955417053 538.983214636 280.077190636 499.5 334.5 c 0
 487.166666667 351.5 474.666666667 368.666666667 462 386 c 1
 433 386 l 1
 433 18 l 1
 483 18 l 1
 483 0 l 1
 283 0 l 1
 283 18 l 1
 333 18 l 1
 333 386 l 1xfa
 295 386 l 1
 267.656569703 337.069651048 245.847300309 306.827155078 217 257 c 0
 190.23889495 209.295421433 175 176.257353036 175 111 c 0
 175 76.1654920433 185.462021116 40.153056357 199 18 c 1
 242 18 l 1
 242 0 l 1
 42 0 l 1
 42 18 l 1
 76 18 l 1
 72.4717338323 37.4054639228 70 68.2754497498 70 94 c 0
 70 203.339365638 128.01759338 267.656350265 179.5 337 c 0
 210.611920555 378.905852177 243.909639902 424.249715096 273 466.5 c 0
 296.530774478 500.675648647 313.877387304 528.48938117 327.5 563 c 0
 332.5 575.666666667 336 589 338 603 c 1
 338 606 l 1xf6
450 404 m 1
 414.907134578 453.130011586 379.672519056 502.236832124 354 560 c 1
 344.695775945 506.833005403 325.776613113 444.991271743 304 404 c 1
 450 404 l 1
EndSplineSet
Validated: 1
EndChar

StartChar: bracketleft
Encoding: 91 91 32
Width: 311
Flags: W
HStem: -362 18<160 311> 814 18<160 311>
VStem: 60 100<-344 814>
LayerCount: 2
Fore
SplineSet
311 -362 m 1
 60 -362 l 1
 60 832 l 1
 311 832 l 1
 311 814 l 1
 160 814 l 1
 160 -344 l 1
 311 -344 l 1
 311 -362 l 1
EndSplineSet
Validated: 1
EndChar

StartChar: bracketright
Encoding: 93 93 33
Width: 311
Flags: W
HStem: -362 18<0 149> 814 18<0 149>
VStem: 149 102<-344 814>
LayerCount: 2
Fore
SplineSet
251 -362 m 1
 0 -362 l 1
 0 -344 l 1
 149 -344 l 1
 149 814 l 1
 0 814 l 1
 0 832 l 1
 251 832 l 1
 251 -362 l 1
EndSplineSet
Validated: 1
EndChar

StartChar: grave
Encoding: 96 96 34
Width: 196
Flags: W
HStem: 506 211
VStem: 1 182
LayerCount: 2
Fore
SplineSet
147 506 m 1
 1 715 l 2
 0 716 1 716 1 717 c 0
 1 719 2 719 4 719 c 2
 7 719 l 1
 72 719 l 1
 183 514 l 2
 184 513 184 512 184 511 c 0
 184 508 183 506 180 506 c 2
 147 506 l 1
EndSplineSet
Validated: 1
EndChar

StartChar: uni2DED
Encoding: 11757 11757 35
Width: 1
Flags: W
HStem: 543 54<-208.846 -139.327> 673 8<-163.004 -143.012>
VStem: -273 64<598.438 657.125>
AnchorPoint: "Stacking" -186 766 basemark 0
AnchorPoint: "Stacking" -195 541 mark 0
AnchorPoint: "Diacritic" -194 539 mark 0
LayerCount: 2
Fore
SplineSet
-197 543 m 0
 -240.194258138 543 -273 568.295046716 -273 613 c 0
 -273 657.346664306 -235.088392563 685 -191 685 c 256
 -189.449258866 685 -187.960618023 685.000948956 -186.526457956 685.000948956 c 0
 -168.827222075 685.000948956 -159.425673542 684.856418386 -144 681 c 0
 -143.333333333 679 -143 676.333333333 -143 673 c 1
 -163.989014663 668.502354001 -168.826374688 669.782416874 -185 659 c 0
 -201 649 -209 636.333333333 -209 621 c 0
 -209 606.805332118 -194.704245573 597 -180 597 c 0
 -142.102716289 597 -126.453894173 627.286737731 -112 650 c 1
 -105.825919427 646.912959715 -99.69880228 644.164670466 -96 638 c 1
 -103.355449479 608.578202083 -114.19466079 591.059028491 -133 571 c 0
 -147.241801592 555.571381608 -168.993118326 543 -197 543 c 0
EndSplineSet
Validated: 1
EndChar

StartChar: uni2DE3
Encoding: 11747 11747 36
Width: 1
Flags: W
HStem: 606 18<-359 -255 -235 -129 -38.0885 50> 871 17<-257.734 -232.497>
DStem2: -255 624 -235 624 0.479288 0.877658<9.58576 145.181> -151 880 -183 776 0.397124 -0.917765<-12.5506 94.6395 118.188 241.86>
AnchorPoint: "Stacking" -177 959 basemark 0
AnchorPoint: "Stacking" -178 554 mark 0
AnchorPoint: "Diacritic" -178 554 mark 0
LayerCount: 2
Fore
SplineSet
-253 871 m 1
 -269.923570729 843.922286833 -286.022128855 805.259570485 -296 772 c 1
 -322.677763352 774.540739366 -350.883904346 778.441952172 -370 788 c 0
 -371.333333333 789.333333333 -372 791.666666667 -372 795 c 0
 -359.88066507 825.971633708 -338.671641905 858.068886154 -322 885 c 1
 -305.333333333 887 -285.666666667 888 -263 888 c 0
 -225.464858752 888 -182.871390454 885.31189841 -151 880 c 1
 -134.753894215 844.553951012 -116.577517164 797.891467805 -100 760 c 0
 -77.330002556 709.887374071 -60.8233110116 664.189227016 -33 624 c 1
 115 624 l 1
 115 612 l 1
 50 528 l 1
 40 533 l 1
 50 606 l 1
 -359 606 l 1
 -349 533 l 1
 -359 528 l 1
 -424 612 l 1
 -424 624 l 1
 -255 624 l 1
 -178 765 l 1
 -180.938823172 767.938823172 -180.529527594 772.29429139 -183 776 c 0
 -196.736767172 808.379522621 -218.10066173 853.825496298 -241 871 c 1
 -253 871 l 1
-235 624 m 1
 -129 624 l 1
 -137.400894146 662.644113073 -154.620463735 705.64969764 -170 743 c 1
 -235 624 l 1
EndSplineSet
Validated: 1
EndChar

StartChar: uni0473
Encoding: 1139 1139 37
Width: 604
Flags: W
HStem: -175.001 193.001<54.479 145.318 286.002 322.806 471.83 493.457> 0 18<29.0012 54 146 221 398 472> 426 20G<310.667 314.667>
VStem: 54 92<-174.36 0> 215 49<18 161.838> 245 132<189.244 361.852> 352 46<18 75.0095> 358 47<18.8365 160.302> 472 17<-174.989 -141.8>
AnchorPoint: "Yerok" 476 557 basechar 0
AnchorPoint: "Diacritic" 310 556 basechar 0
LayerCount: 2
Fore
SplineSet
29 9 m 0x7280
 29 12.9218430023 29.9738559782 18 34 18 c 2
 221 18 l 1
 217 36.6666666667 215 57 215 79 c 0x7a80
 215 151.529388253 229.414316543 229.955614265 245 290.5 c 0
 259.05119485 345.083487683 279.241349107 406.93788875 305 443 c 0
 305.666666667 445 308.333333333 446 313 446 c 0
 316.333333333 446 319 445 321 443 c 0
 345.48787323 408.017323957 364.115603582 349.684985072 377 296 c 0x7480
 392.056165377 233.265977597 405 152.992401191 405 77 c 0x7180
 405 55.0848615645 401.924385699 36.31379993 398 18 c 1
 572 18 l 2
 576 18 578 15.6666666667 578 11 c 0
 578 7 576.666666667 3 574 -1 c 0
 546.785199883 -38.6820309294 520.531002568 -83.1724935799 502 -129.5 c 0
 496 -144.5 491.666666667 -158 489 -170 c 0
 488.333333333 -173.333333333 485.333333333 -175 480 -175 c 256
 474.666666667 -175 472 -173.333333333 472 -170 c 0
 470.137208602 -155.097668827 470 -122.652634354 470 -104 c 258
 470 -66.5 l 2
 470 -54.1666666667 470.333333333 -43 471 -33 c 0
 471 -21 471.333333333 -10 472 0 c 1
 394 0 l 1
 376.00738603 -65.5445223229 345.245040565 -122.517649176 312 -171 c 0
 310 -173.666666667 307.333333333 -175 304 -175 c 0
 299.333333333 -175 296.666666667 -173.666666667 296 -171 c 0
 269.511813461 -127.372398639 241.033020072 -59.5512174121 225 0 c 1
 146 0 l 1x7280
 146 -172 l 1
 131.519367944 -174.632842191 113.140112269 -175 96 -175 c 256
 94.955991298 -175 93.9062039726 -175.000570296 92.8528211686 -175.000570296 c 0xb280
 78.8193459225 -175.000570296 64.1477325171 -174.899352147 54 -172 c 1
 54 0 l 1
 34 0 l 2
 30.6666666667 0 29 3 29 9 c 0x7280
352 18 m 1
 354.889083473 35.3345008419 358 54.843063416 358 76 c 256x7180
 358 113.227771735 344.200264647 153.387892812 327.5 175 c 0
 321.833333333 182.333333333 316.333333333 186 311 186 c 0
 295.270399001 186 284.921486538 160.457789695 279 146.5 c 0
 271.30162499 128.353830335 264 99.781180969 264 76 c 0
 264 54.8863112374 265.103961621 35.3762302784 268 18 c 1
 352 18 l 1
EndSplineSet
Validated: 1
EndChar

StartChar: uni2DE2
Encoding: 11746 11746 38
Width: 1
Flags: W
HStem: 555 139<-306.685 -227.57> 611 83<-153.837 -113.045> 669 25<-352.997 -307 -227 -172.693>
VStem: -307 80<558.75 669>
AnchorPoint: "Stacking" -224 757 basemark 0
AnchorPoint: "Stacking" -225 554 mark 0
AnchorPoint: "Diacritic" -223 554 mark 0
LayerCount: 2
Fore
SplineSet
-227 567 m 1x30
 -239.019248055 559.788451168 -259.417824982 555 -278 555 c 0x90
 -290.666666667 555 -300.333333333 560 -307 570 c 1
 -307 669 l 1
 -350 669 l 1
 -352 671.666666667 -353 676 -353 682 c 0
 -353 686 -352 690 -350 694 c 1
 -90 694 l 2x30
 -87.3072810007 694 -87 689.588234602 -87 687 c 0
 -105.118566887 663.940005781 -109.696228324 641.911315036 -120 611 c 1x50
 -124.315500542 611 -128.975310913 611.983540609 -132 614 c 0
 -151.971391299 627.730331517 -169.086262052 646.340027548 -179 669 c 1
 -227 669 l 1
 -227 567 l 1x30
EndSplineSet
Validated: 1
EndChar

StartChar: uni0456
Encoding: 1110 1110 39
Width: 241
Flags: W
HStem: -4 21G<119.202 138.02> 422 20G<159.367 178.066>
VStem: 68 105<0.470703 420.56>
AnchorPoint: "Yerok" 132 557 basechar 0
AnchorPoint: "Diacritic" 131 556 basechar 0
LayerCount: 2
Fore
SplineSet
180 442 m 1
 176.131500449 364.630009023 173 278.283855954 173 197 c 0
 173 143.777750747 174.819656601 88.1478981465 177 38 c 0
 177.666666667 22.6666666667 178.666666667 10 180 0 c 1
 164.982001579 -2.73054516749 147.039204072 -4 129 -4 c 256
 109.403178941 -4 89.6305144994 -2.51864492849 72 0 c 1
 68.6771890153 43.1965428017 68 100.869957369 68 152 c 0
 68 246.472499608 72.4834225232 345.026204062 79 433 c 1
 114.829501642 439.635092896 138.734035131 442 180 442 c 1
EndSplineSet
Validated: 1
EndChar

StartChar: uni047B
Encoding: 1147 1147 40
Width: 650
Flags: W
HStem: -52 102<286.422 362.532> 388 102<287.179 362.822>
VStem: 48 103<108.385 329.514> 499 103<104.726 332.81>
AnchorPoint: "Yerok" 526 557 basechar 0
AnchorPoint: "Diacritic" 321 556 basechar 0
LayerCount: 2
Fore
SplineSet
325 -52 m 0
 300.188781941 -52 282.784282354 -32.4442666734 279 -11 c 1
 135.715039148 -4.30444108166 48 67.7745864526 48 219 c 256
 48 370.227948735 135.712290914 442.30431266 279 449 c 1
 282.876859988 470.968873264 299.277717663 490 325 490 c 0
 349.811218059 490 367.215717646 470.444266673 371 449 c 1
 516.535499941 442.324059636 602 372.099899662 602 219 c 0
 602 64.9937791884 517.062495128 -4.29988554464 371 -11 c 1
 366.18867247 -31.4481419989 349.320336266 -52 325 -52 c 0
279 5 m 1
 281.591335253 29.6176849133 297.927148993 50 325 50 c 256
 352.554493565 50 368.451497463 30.4850253796 371 5 c 1
 471.670268207 18.7277638466 499 107.237898687 499 219 c 0
 499 329.420144883 470.093250278 419.487284053 371 433 c 1
 368.464848551 408.916061227 351.172387073 388 325 388 c 256
 298.831175106 388 281.534484014 408.922401864 279 433 c 1
 181.202019556 419.353770171 151 327.755489802 151 219 c 0
 151 109.78669743 181.266148766 18.6372815674 279 5 c 1
EndSplineSet
Validated: 1
EndChar

StartChar: uni0471
Encoding: 1137 1137 41
Width: 612
Flags: W
HStem: 0 18<254.342 257 344 349> 343 106<460.526 592.359> 427 20G<45.3931 66.2312>
VStem: 254 94<18 529.124> 275 39<-320 0> 349 18<18 123.473>
AnchorPoint: "Yerok" 516 557 basechar 0
AnchorPoint: "Diacritic" 101 556 basechar 0
LayerCount: 2
Fore
SplineSet
543 330 m 0xd4
 543 319.653853 543.403136138 308.984319304 545 301 c 0
 545 295.112269155 540.196759144 293 535 293 c 0
 516.635609962 307.429163601 509.918806063 315.589313332 495 332 c 0
 487.962959194 339.037040806 483.487432472 343 471 343 c 0xd4
 450.052183474 343 435.723808004 324.688885342 429 309 c 0
 389.432772681 227.227730207 367 119.175716977 367 0 c 1
 314 0 l 1
 314 -320 l 1
 328.762124109 -311.388760936 345.309808226 -299.870149159 358 -290 c 0
 362.632876693 -290 368 -290.955352974 368 -296 c 0
 365.347976738 -313.238151206 366.428686103 -317.114102234 359 -329 c 0
 341.347523577 -348.729238356 308.677802716 -369.508493799 279 -373 c 1
 271.666666667 -371 268 -365.666666667 268 -357 c 0
 268 -352.303736584 270.134196578 -339 275 -339 c 1
 270 0 l 1
 184 0 l 1
 169.14392126 74.2803937051 153.428844523 144.713466428 131 212 c 0
 104.695208852 290.914373447 69.550171902 374.075944844 39 440 c 0
 39 443.4843952 43.786236202 447 47 447 c 0xac
 85.4623567975 447 123.651740014 440.386585923 156 432 c 1
 205.388586909 315.584045138 241.317737626 168.504886124 255 18 c 1
 257 18 l 1
 254.288734287 142.718222721 254 284.076686781 254 415.5 c 0
 254 537.352842594 252 662.901018159 252 778 c 1
 247.333333333 776.666666667 243.333333333 776 240 776 c 0
 236.666666667 776 233.666666667 775.666666667 231 775 c 0
 225.666666667 776.333333333 223 779 223 783 c 256
 223 787 224.666666667 790.666666667 228 794 c 1
 282.860808843 800.857601103 346.402404874 813.600601218 396 826 c 0
 400.666666667 825.333333333 403 822.333333333 403 817 c 0
 403 802.811539717 377.019561454 801.367192991 364 799 c 1
 356.545667697 631.277523138 352.820633135 444.83763462 348 272.5 c 0
 345.652716172 188.58460314 344 98.3278209416 344 18 c 1
 349 18 l 1
 351.557460048 117.740941813 368.261064299 210.799870366 396.5 289 c 0
 417.275424266 346.531944121 450.781591976 406.051259545 502.5 431.5 c 0
 523.5 441.833333333 552.333333333 447.666666667 589 449 c 0
 595.718771332 449 597 442.588234602 597 436 c 1
 570.204032886 412.699159031 543 377.112468937 543 330 c 0xd4
EndSplineSet
Validated: 1
EndChar

StartChar: uni047D
Encoding: 1149 1149 42
Width: 969
Flags: W
HStem: -10 78<689.699 798.937> -10 18<208.135 321.526> 388 66<700.732 799.813> 401 23<429.186 485.237> 425 20G<222 246.091> 514 73<409.151 508.317> 543 23<823.201 894.527> 669 45<384.469 533.069>
VStem: 48 46<109.835 268.318> 142 149<497.556 551.683> 340 17<462.119 480.033> 495 90<441.685 507.333> 873 50<140.43 338.648>
DStem2: 633 665 565 629 0.862639 -0.50582<-134.227 193.314>
AnchorPoint: "Yerok" 480 786 basechar 0
AnchorPoint: "Diacritic" 481 786 basechar 0
LayerCount: 2
Fore
SplineSet
264 -10 m 0x41f8
 107.981829979 -10 48 88.1406448805 48 246 c 0
 48 337.100275363 96.0447813702 399.571492808 159.5 429 c 0
 182.5 439.666666667 208 445 236 445 c 0
 256.181218558 445 271.827730267 442.043067433 288 438 c 0
 344.776408659 414.027738566 402.177154952 375.915934555 445 340 c 1
 439.925437134 300.672137793 402.311894821 272.780130677 362 270 c 1
 341.295452021 282.077652988 316.809083328 308.256518023 297.5 326 c 0
 275.593854452 346.129971585 249.488851992 370.755574004 223 384 c 1
 152.216096036 366.30402401 116.65762378 293.120321875 102 218 c 0
 96.6666666667 190.666666667 94 163.333333333 94 136 c 1
 102.636611643 73.3845655928 149.865849179 35.0940485691 204.5 17.5 c 0
 224.166666667 11.1666666667 244.666666667 8 266 8 c 0x49f8
 329.432952891 8 380.427258843 39.9988514873 417 72 c 0
 453.69838111 104.111083471 489.915169754 148.405008419 507 195 c 1
 513 195 l 1
 569.321010411 152.759242192 637.236925095 106.916756048 711 81 c 0
 735.666666667 72.3333333333 759 68 781 68 c 0
 866.340714174 68 873 138.932642126 873 226 c 0
 873 290.837443035 858.98956302 347.50741575 821 374.5 c 0
 808.333333333 383.5 793 388 775 388 c 0
 689.882598212 388 660.782274003 335.427754015 657 256 c 0
 657 252.5156048 652.213763798 249 649 249 c 0
 605.242744961 280.450527059 569.214911259 302.740305193 518 327 c 1
 518 330.333333333 518.666666667 333 520 335 c 0
 556.910919474 381.624319334 599.374748618 422.749913315 661 444 c 0
 680.333333333 450.666666667 701.333333333 454 724 454 c 0
 800.798937455 445.771542416 856.173319223 401.826680777 899 359 c 1
 916.802144237 323.395711524 923 297.255275117 923 247 c 0
 923 178.601619116 896.033466902 116.527343532 865 74 c 0
 835.407090004 33.4467529683 787.77817814 -10 724 -10 c 0xa1f8
 638.660423184 -10 569.867414664 26.4371854363 519.5 63.5 c 0
 501.833333333 76.5 487 89 475 101 c 1
 423.119724227 49.119724228 366.915524352 -10 264 -10 c 0x41f8
495 462 m 0
 495 491.154760601 458.699586244 514 429 514 c 0
 394.201994308 514 368.984305134 488.972533985 357 468 c 0
 354.333333333 464 351 462 347 462 c 0
 340.945900524 462 340 467.677872959 340 473 c 0
 348.830841479 525.985048868 390.619575841 561.145966635 436.5 578 c 0
 452.833333333 584 469.666666667 587 487 587 c 0
 529.633332342 587 561.355374499 564.507530354 576.5 536 c 0
 582.166666667 525.333333333 585 513.666666667 585 501 c 0
 585 453.671991437 552.41712418 424.284387464 518.5 409.5 c 0
 505.5 403.833333333 492 401 478 401 c 0
 454.401900063 401 427.44327505 408.945906186 417 422 c 0
 417 428.115563471 417.452239644 429.780895858 423 432 c 1
 435.666666667 426.666666667 450.333333333 424 467 424 c 0x15f8
 482.404114185 426.800748033 495 443.183765442 495 462 c 0
208 494 m 0
 186.381227963 494 164.029565817 495.360948561 146 497 c 0
 141.843686003 497 142 503.104576087 142 507 c 0
 164.183418181 562.458545454 192.412575716 602.412575716 233.5 643.5 c 0
 235.166666667 645.166666667 237.666666667 646.666666667 241 648 c 0
 322.421687948 678.533132981 392.40799735 697.401332891 492 714 c 1
 507.5 714 l 2
 528.577634378 714 542.873533749 709.031616562 557 705.5 c 0
 583.92013488 698.769966281 609.835839357 680.107061289 633 665 c 2
 679 635 l 2
 715.387054092 611.269312548 755.267384667 584.928636596 805.5 578 c 0
 829.884262731 574.636653417 868.453063557 575.339516564 889 566 c 0
 895.096244506 561.123004394 898 553.374969601 898 543 c 1x03f8
 850.256597176 531.329390421 786.316778331 528 733 528 c 1
 667.883738549 558.053659131 620.431026659 592.849330439 565 629 c 0
 549.666666667 639 532.333333333 648.333333333 513 657 c 1
 482.529648412 663.623989475 469.218604075 669 434 669 c 0
 345.546564148 669 291 618.882059442 291 532 c 0
 291 518.004238463 291.513060012 508.895519894 293 497 c 1
 268.253379247 495.544316426 235.558550015 494 208 494 c 0
EndSplineSet
Validated: 1
LCarets2: 1 0
Ligature2: "'ccmp' Precomposed Glyphs-1" uniA64D uniE005
EndChar

StartChar: uni047F
Encoding: 1151 1151 43
Width: 671
Flags: W
HStem: -10 21G<173 174.667 442.667 445.667> 426 20G<183.215 203.667 394.934 415.32 581.864 605.667> 607 157<73 168 295 390 515 533.941> 746 18<37.0012 73 168 295 390 515 625.129 647.63>
VStem: 60 98<157.741 393.446> 70 101<607 746> 282 99<168.22 397.2> 292 101<607 746> 515 19<607.011 634.281> 547 74<179.057 330.533>
AnchorPoint: "Yerok" 340 846 basechar 0
AnchorPoint: "Diacritic" 341 846 basechar 0
LayerCount: 2
Fore
SplineSet
238 62 m 1xcac0
 262.955536606 76.0374893406 297.344034501 108.426832774 319 129 c 1
 294.333333333 181 282 244.666666667 282 320 c 0
 282 352.909132052 287.225634361 404.941522464 296 426 c 1
 337.307313109 429.05980097 375.86795868 436.466989671 414 446 c 0
 416.640614334 446 419 442.614378624 419 440 c 0
 411.426158036 417.278474109 400.816129219 389.928226133 390 371 c 1
 382.646803021 345.999130269 381 327.485589867 381 294 c 0
 381 190.675160701 413.997211492 109.078531832 480 71 c 1
 527.526054174 103.517826541 547 154.511071278 547 231 c 0
 547 297.464844753 517.120055537 354.319916692 490 395 c 0
 488 397.666666667 487 400.666666667 487 404 c 1
 523.792415018 410.813410188 565.72734084 433.587438784 598 446 c 1
 613.333333333 407.333333333 621 362.666666667 621 312 c 0
 621 216.176561049 595.030810958 153.546216436 556 95 c 0
 523.333333333 43.6666666667 488.333333333 9 451 -9 c 0
 449.666666667 -9.66666666667 447.333333333 -10 444 -10 c 0
 441.333333333 -10 439.666666667 -9.66666666667 439 -9 c 0
 391.123244758 22.9178368278 359.252081144 56.2463179785 330 108 c 0
 328.613860996 109.386139004 328.386408989 110.613591011 327 112 c 0
 282.097539242 69.7388604609 233.241834598 25.2761466226 180 -8 c 0
 177.333333333 -9.33333333333 175.333333333 -10 174 -10 c 0
 172 -10 170.333333333 -9.33333333333 169 -8 c 0
 137.012402414 19.4179407879 111.576566106 65.5170272157 93.5 111 c 0
 74.0995033556 159.814152847 60 219.887407766 60 286 c 0
 60 336.387558563 72.8628721217 395.10575735 85 430 c 1
 123.459519546 433.076761563 164.430995613 438.955811677 202 446 c 0
 205.333333333 446 207 443.666666667 207 439 c 0
 200.554717472 427.398491448 190.725699647 411.300932862 183 401 c 0
 169.228412381 369.700937228 158 325.136326128 158 281 c 0
 158 208.173031109 181.526410569 137.261125873 210 91.5 c 0
 219.333333333 76.5 228.666666667 66.6666666667 238 62 c 1xcac0
37 755 m 0
 37 758.921843002 37.9738559782 764 42 764 c 2
 642 764 l 2xd5c0
 648.108717771 764 648 755.185239757 648 750 c 1
 590.965538421 725.202408007 554.164509116 672.493527349 534 612 c 0
 532.777803315 608.333409946 528.577740185 607 524 607 c 0xe5c0
 518 607 515 608.666666667 515 612 c 2
 515 746 l 1
 390 746 l 1xd5c0
 393 607 l 1
 292 607 l 1xe5c0
 295 746 l 1
 168 746 l 1xd5c0
 171 607 l 1
 70 607 l 1xe5c0
 73 746 l 1
 42 746 l 2xd5c0
 38.6666666667 746 37 749 37 755 c 0
EndSplineSet
Validated: 1
LCarets2: 1 0
Ligature2: "'ccmp' Precomposed Glyphs-1" uni0461 uni2DEE
EndChar

StartChar: uni0479
Encoding: 1145 1145 44
Width: 625
Flags: W
HStem: -11 21G<118 120.333 306.333 324.5> 9 18<392 412> 427 16G<135.667 138 252 270.278 580.511 607.333>
VStem: 56 37<135.819 301.398> 163 38<133.124 301.632> 303 89<26 246.559> 410 45<-260.634 8.00146>
DStem2: 424.5 191 477 278 0.0526315 0.998614<-302.473 -182.406 0 140.202>
AnchorPoint: "Yerok" 546 557 basechar 0
AnchorPoint: "Diacritic" 415 556 basechar 0
LayerCount: 2
Fore
SplineSet
201 229 m 0xbe
 201 131.872330406 169.043908675 43.8526904079 125 -9 c 0
 123.666666667 -10.3333333333 121.666666667 -11 119 -11 c 0
 117 -11 115.333333333 -10.3333333333 114 -9 c 0
 80.3497978532 42.148307263 56 120.079616821 56 206 c 0
 56 306.632962465 88.9341824089 382.401273612 130 444 c 0
 132 446 134.333333333 447 137 447 c 0
 139 447 140.666666667 446 142 444 c 0
 168.063065154 384.42727965 201 315.554985745 201 229 c 0xbe
159 133 m 2
 161.666666667 133 163 134.666666667 163 138 c 2
 163 300 l 2
 163 303.333333333 161.666666667 305 159 305 c 2
 97 305 l 2
 94.3333333333 305 93 303.333333333 93 300 c 2
 93 138 l 2
 93 134.666666667 94.3333333333 133 97 133 c 2
 159 133 l 2
412 9 m 1x7e
 375.493381517 4.78769786732 340.999649984 -2.1154788504 308 -11 c 0xbe
 304.666666667 -11 303 -9 303 -5 c 0
 303 137.656089049 282.695183884 265.453104632 260.5 384.5 c 0
 256.833333333 404.166666667 253.333333333 421.333333333 250 436 c 0
 250 440.666666667 251 443 253 443 c 0
 287.556546375 443 324.195961009 439.134006497 355 434 c 1
 376.418399996 312.629066687 386.425106725 162.584885282 392 26 c 1
 413 27 l 1
 416.450865049 85.6647058433 419.018134531 136.18134532 424.5 191 c 2
 430 246 l 258
 436.299842864 308.998428637 450.27092001 368.321717512 482 406 c 0
 507.348369953 436.101189319 555.021914026 440.316942842 606 443 c 0
 608.666666667 443 610 440.333333333 610 435 c 1
 593.940125688 415.49872405 583 396.752188321 583 365 c 0
 583 357 584 348 586 338 c 0
 586 334.078156998 585.026144022 329 581 329 c 0
 564.861076059 335.207278438 553.654342342 343 533 343 c 0
 500.280946933 343 480.780383989 306.982943918 477 278 c 0
 464.583813186 172.462412096 455 61.1052768269 455 -55.5 c 2
 455 -113.5 l 2
 455 -234.936044525 446.263642049 -358.225730097 425 -461 c 0
 418.367274575 -493.058172885 418.203484842 -518.786434343 385 -521 c 1
 381.666666667 -518.333333333 380 -514.333333333 380 -509 c 1
 387.175748745 -506.129700503 390.952920078 -484.423719291 392 -475 c 0
 402.900344315 -339.835730479 410 -198.270621434 410 -49 c 0
 410 -31.6666666667 410.666666667 -12.3333333333 412 9 c 1x7e
EndSplineSet
Validated: 1
Ligature2: "'ccmp' Precomposed Glyphs-1" uni1C82 uni0443
EndChar

StartChar: uni0475
Encoding: 1141 1141 45
Width: 481
Flags: W
HStem: -3 21G<199.989 218.857> 419 20G<93.5507 111.229 424.763 443.209>
VStem: 149 113<-2.23953 26.7038>
AnchorPoint: "Yerok" 376 557 basechar 0
AnchorPoint: "Diacritic" 221 556 basechar 0
LayerCount: 2
Fore
SplineSet
255 27 m 0
 257.530314656 20.6742133585 259.139403589 14.7211928235 262 9 c 1
 262 -1 l 1
 246.858336671 -2.51416633287 227.713591669 -3 210 -3 c 0
 189.977605388 -3 165.14890375 -2.93616431838 149 0 c 1
 149 42.0797319972 141.300703818 89.1032528361 134.5 132 c 0
 121.121008651 216.390560825 100.915556381 303.7063089 74.5 374.5 c 0
 66.1666666667 396.833333333 57.3333333333 415 48 429 c 0
 48 432.364916815 48.2361931657 437 52 437 c 0
 66.6361734968 438.46361735 85.1013244628 439 102 439 c 256
 120.457592936 439 140.876102062 438.317222919 158 437 c 1
 195.702096038 352.170283916 210.870573392 233.841272951 227 129 c 0
 230.225779898 111.258210559 234.289755787 92.1307326403 240 75 c 1
 245.786890026 140.584753629 257.65835417 195.243142376 272 255 c 0
 281.528891661 294.703715255 298.110328414 335.220656829 315 369 c 0
 330.156701802 399.313403604 344.525638278 413.039101052 369 426.5 c 0
 388.425258377 437.183892108 409.525061427 440 440 440 c 0
 446.417073554 440 462.630709771 438.073858047 468 437 c 0
 468 433.166307533 467.15365995 429.15365995 465 427 c 0
 446.256587794 414.113904109 431 387.868363284 431 358 c 0
 431 342.877668563 434.427346295 328.863268529 437 316 c 0
 437 310.666666667 434.666666667 308 430 308 c 0
 404.114926709 324.881569538 384.76874375 340.53860478 356 349 c 1
 348.666666667 348.333333333 340.666666667 343.833333333 332 335.5 c 0
 313.451883343 317.665272447 300.844239963 278.417454895 291 249.5 c 0
 268.090655705 182.203801127 261.527810655 108.597633213 255 27 c 0
EndSplineSet
Validated: 1
EndChar

StartChar: uni0461
Encoding: 1121 1121 46
Width: 670
Flags: W
HStem: -10 21G<172.333 205.374 461.333 482.423> 426 20G<183.274 203.333 400.265 420.797 584.845 608.667>
VStem: 59 98<157.417 393.446> 281 105<181.487 397.2> 541 83<186.587 346.575>
AnchorPoint: "Yerok" 546 557 basechar 0
AnchorPoint: "Diacritic" 351 556 basechar 0
LayerCount: 2
Fore
SplineSet
323 134 m 1
 297.015294089 184.670176527 281 244.563389058 281 320 c 0
 281 352.909132052 286.225634361 404.941522464 295 426 c 1
 335.897593027 429.029451335 381.530653139 436.632663285 419 446 c 0
 422.594617036 446 424 443.243331326 424 440 c 0
 416.426158036 417.278474109 405.816129219 389.928226133 395 371 c 1
 387.646803021 345.999130269 386 327.485589867 386 294 c 0
 386 217.524306275 413.961612496 153.836952965 449 110.5 c 0
 461.666666667 94.8333333333 475.666666667 82.3333333333 491 73 c 1
 527.173603415 106.589774599 541 164.394918321 541 233 c 0
 541 305.537242506 517.335160233 359.997259651 490 401 c 0
 488.666666667 403 488 404.833333333 488 406.5 c 2
 488 411 l 1
 524.921719089 417.837355386 568.690484685 433.573263339 601 446 c 1
 616.333333333 407.333333333 624 362.666666667 624 312 c 0
 624 217.16944476 594.71086825 159.066302375 556 101 c 0
 527.415840613 55.7417476381 501.845176871 19.5223344214 463 -10 c 0
 459.666666667 -10 457.333333333 -9.66666666667 456 -9 c 0
 399.257845468 25.918248943 368.977271661 60.3463966742 332 119 c 1
 286.417590037 73.4175900366 233.748844221 23.3816730721 177 -10 c 1
 173 -10 l 2
 171.666666667 -10 170.333333333 -9.66666666667 169 -9 c 0
 117.723448507 34.9513298511 85.4086725517 113.906287913 68.5 194 c 0
 62.1666666667 224 59 254.666666667 59 286 c 0
 59 336.387558563 71.8628721217 395.10575735 84 430 c 1
 122.38690629 433.070952502 164.548381473 438.977821526 202 446 c 0
 204.666666667 446 206 444 206 440 c 0
 199.596735545 428.47412398 189.674188936 411.232251914 182 401 c 0
 168.228412381 369.700937228 157 325.136326128 157 281 c 0
 157 208.173031109 180.526410569 137.261125873 209 91.5 c 0
 218.333333333 76.5 227.666666667 66.6666666667 237 62 c 1
 262.77339685 77.160821677 301.117496024 112.117496024 323 134 c 1
EndSplineSet
Validated: 1
EndChar

StartChar: uni046F
Encoding: 1135 1135 47
Width: 478
Flags: W
HStem: -176 47<134.563 200.246> 4 19<152.315 276.274> 415 27<217.594 308.757>
VStem: 45 71<-110.962 -12.284> 62 94<288.064 346.822> 321 92<49.1136 181.589 274.449 388.356>
DStem2: 282 549 246 469 0.695363 0.718658<-137.582 -88.013 0 158.423>
AnchorPoint: "Yerok" 265 698 basechar 0
AnchorPoint: "Diacritic" 263 698 basechar 0
LayerCount: 2
Fore
SplineSet
196 4 m 0xec
 155.128588038 4 116 -14.3813398615 116 -55 c 0
 116 -86.6799785026 130.501854087 -104.210341927 146 -121 c 1
 155.867892637 -125.229096844 172.287413395 -129 187 -129 c 0
 229.783858475 -129 252.77122475 -100.704795875 290 -94.5 c 0
 296 -93.5 303.333333333 -93 312 -93 c 0
 366.686863901 -93 410.4974574 -121.483896864 418 -169 c 0
 418.666666667 -171.666666667 419 -174.333333333 419 -177 c 2
 419 -185 l 1
 386.411344778 -185 346.951164479 -183.487791119 321 -177 c 1
 309.531612002 -156.356901605 293.327395537 -130 263 -130 c 1
 233.492679455 -138.047451058 202.268065804 -152.010016705 178.5 -165.5 c 0
 166.166666667 -172.5 151.666666667 -176 135 -176 c 0
 116.200348124 -176 106.658686942 -172.847033989 91 -170 c 1
 65.3347987274 -153.317619172 45 -116.99003913 45 -75 c 0xf4
 45 -3.17130671143 100.371644206 23 172 23 c 0
 192.462444806 23 209.237584992 21 228 21 c 0
 277.966544168 21 319 50.6895910949 319 101.5 c 2
 319 130.5 l 2
 319 158.473105299 304.416700492 180.739975646 286 194 c 1
 245.287465565 190.607288795 200.544171963 191.089911528 176 172 c 1
 168.248831591 152.068424092 161.334015576 127.671101252 158 106 c 1
 128.275861748 97.5073890708 87.6726349081 92 48 92 c 1
 48 96.5 l 2
 48 98.1666666667 48.6666666667 99.6666666667 50 101 c 0
 68.2935859477 135.300473652 85.8501291657 160.56377727 111 188 c 1
 139.555231077 212.830635719 182.736545848 233.392308587 229 239 c 1
 258.158459094 247.874313638 287.692729284 259.071820048 307 277 c 1
 317.143309098 293.482877285 321 305.961584905 321 331 c 0
 321 377.391839926 287.68510942 412.352417612 244 415 c 0
 224.397826582 415 203.673420655 404.41441271 190 396 c 1
 176.757534223 373.929223705 164.921246923 351.224364226 158 327 c 0
 156.666666667 319.666666667 156 313.5 156 308.5 c 2
 156 293 l 1
 142.961217096 287.204985375 116.764941799 286 97 286 c 0
 85.0000000003 286 73.6666666664 286.666666666 63 288 c 0
 62.3333333333 289.333333333 62 292.333333333 62 297 c 256
 62 315.76058825 65.6931156406 324.160182025 78.5 340.5 c 0
 113.914570725 385.684107475 164.701355677 425.869599119 205 468 c 1
 220 483 l 1
 192.533949981 521.452470024 155.610793841 576.311593359 129.5 616 c 0
 121.166666667 628.666666667 117 635.333333333 117 636 c 0
 117 649.626066168 123.602755899 651.117008714 134.205089589 651.117008714 c 0
 137.175251459 651.117008714 140.45929897 651 144 651 c 0
 168.743433307 651 199.245177223 649.891529271 220 646 c 1
 237.489834985 615.392788777 261.853647282 577.204893809 282 549 c 1
 313.940447669 583.306406755 346.122217389 618.122217389 377 649 c 1
 387.36225956 651.590564889 391.94389091 653 404 653 c 0
 411.363897396 653 413 645.620893241 413 639 c 1
 357.37214533 586.644372073 298.60554936 524.528079882 246 469 c 0
 233.106763194 454.817439515 221.151185203 441.332879654 210 426 c 1
 233.102295895 434.984226182 261.46130451 442 293 442 c 0
 324.514137195 442 356.748594205 432.417135264 379 425 c 1
 403.02777573 405.777779415 413 381.898217363 413 342 c 0
 413 291.177294783 382.442286584 252.0933885 352 226 c 1
 385.024988589 199.580009132 418 160.623010954 418 101 c 0
 418 33.5190617938 376.459329928 -6 304 -6 c 0
 264.690895092 -6 236.764035101 4 196 4 c 0xec
EndSplineSet
Validated: 1
EndChar

StartChar: uni0477
Encoding: 1143 1143 48
Width: 481
Flags: W
HStem: -3 21G<199.989 218.857> 419 20G<93.5507 111.229 424.763 443.209>
VStem: 149 113<-2.23953 26.7038>
DStem2: 222 693 144 684 0.497587 -0.867414<0 117.713> 394 693 316 684 0.497587 -0.867414<0 117.713>
AnchorPoint: "Yerok" 219 797 basechar 0
AnchorPoint: "Diacritic" 221 796 basechar 0
LayerCount: 2
Fore
SplineSet
316 684 m 1
 316 687.384890924 316.21351223 693 320 693 c 2
 394 693 l 1
 468 564 l 1
 468 560.615109076 467.78648777 555 464 555 c 2
 390 555 l 1
 316 684 l 1
144 684 m 1
 144 687.384890924 144.21351223 693 148 693 c 2
 222 693 l 1
 296 564 l 1
 296 560.615109076 295.78648777 555 292 555 c 2
 218 555 l 1
 144 684 l 1
255 27 m 0
 257.530314656 20.6742133585 259.139403589 14.7211928235 262 9 c 1
 262 -1 l 1
 246.858336671 -2.51416633287 227.713591669 -3 210 -3 c 0
 189.977605388 -3 165.14890375 -2.93616431838 149 0 c 1
 149 42.0797319972 141.300703818 89.1032528361 134.5 132 c 0
 121.121008651 216.390560825 100.915556381 303.7063089 74.5 374.5 c 0
 66.1666666667 396.833333333 57.3333333333 415 48 429 c 0
 48 432.364916815 48.2361931657 437 52 437 c 0
 66.6361734968 438.46361735 85.1013244628 439 102 439 c 256
 120.457592936 439 140.876102062 438.317222919 158 437 c 1
 195.702096038 352.170283916 210.870573392 233.841272951 227 129 c 0
 230.225779898 111.258210559 234.289755787 92.1307326403 240 75 c 1
 245.786890026 140.584753629 257.65835417 195.243142376 272 255 c 0
 281.528891661 294.703715255 298.110328414 335.220656829 315 369 c 0
 330.156701802 399.313403604 344.525638278 413.039101052 369 426.5 c 0
 388.425258377 437.183892108 409.525061427 440 440 440 c 0
 446.417073554 440 462.630709771 438.073858047 468 437 c 0
 468 433.166307533 467.15365995 429.15365995 465 427 c 0
 446.256587794 414.113904109 431 387.868363284 431 358 c 0
 431 342.877668563 434.427346295 328.863268529 437 316 c 0
 437 310.666666667 434.666666667 308 430 308 c 0
 404.114926709 324.881569538 384.76874375 340.53860478 356 349 c 1
 348.666666667 348.333333333 340.666666667 343.833333333 332 335.5 c 0
 313.451883343 317.665272447 300.844239963 278.417454895 291 249.5 c 0
 268.090655705 182.203801127 261.527810655 108.597633213 255 27 c 0
EndSplineSet
Validated: 1
Ligature2: "'ccmp' Precomposed Glyphs-1" uni0475 uni030F
EndChar

StartChar: uni0467
Encoding: 1127 1127 49
Width: 613
Flags: W
HStem: -3 21G<96.6667 117.667 290.305 308.333 504.085 521.963> 222 18<235 258 346 356> 425 20G<221.333 245.568>
VStem: 249 99.5<-2.18494 218.712> 258 89.5<3.41909 222> 460 105<-2.29987 89.121>
AnchorPoint: "Yerok" 486 557 basechar 0
AnchorPoint: "Diacritic" 281 556 basechar 0
LayerCount: 2
Fore
SplineSet
513 -3 m 256xec
 495.169493742 -3 474.846262736 -2.69932049753 460 0 c 1
 460 44.7417486417 445.948919478 76.9026412762 432 111 c 0
 413.461950825 153.780113479 394.831010993 184.54503406 369 222 c 1
 346 222 l 1
 346.666666667 205.333333333 347.166666667 186.5 347.5 165.5 c 2xec
 348.5 102.5 l 2
 349.030778483 69.0609555094 350 29.8114173035 350 0 c 1
 334.666666667 -2 317.666666667 -3 299 -3 c 0
 281.609555211 -3 263.059777692 -2.81195553829 249 0 c 1xf4
 249 72.8433227172 254.666294477 151.992184049 258 222 c 1
 225 222 l 1
 191.195683476 163.492529093 165.225815467 112.580708274 154 34 c 0
 153.333333333 32.6666666667 153 30.8333333333 153 28.5 c 2
 153 23 l 2
 153 14.4859589511 155 7.73405047766 155 0 c 1
 143 -2 127.333333333 -3 108 -3 c 0
 85.3333333333 -3 65.6666666667 -2 49 0 c 1
 53.7111315338 50.2520696937 71.5404431988 81.4647091181 95 119 c 0
 121.169274448 160.123145564 150.118410458 191.118410458 183.5 224.5 c 0
 218.071745627 259.071745627 255.753268982 302.119282784 280 344 c 1
 264.570178955 364.573094727 246.755922698 391.536970063 237 413 c 0
 232.642927197 421.714145606 227.447734515 429.793554571 220 436 c 1
 220 440 220.666666667 443 222 445 c 0
 269.135771775 445 320.871658113 440.152024422 365 437 c 1
 362.178902058 417.2523144 363.453258917 416.813035666 359 399 c 1
 373.307745092 353.21521571 400.965605713 312.636247014 428 277 c 0
 471.349192578 220.104184741 505.859830322 173.049941462 537 104 c 0
 551.077456422 72.5964433681 565 39.2306976178 565 0 c 1
 550.066158533 -2.7152439032 530.925555595 -3 513 -3 c 256xec
293 325 m 1
 269.186169076 299.697804645 254.736969235 272.072575005 235 240 c 1
 356 240 l 1
 334.863103022 266.42112122 312.81581599 297.257857614 293 325 c 1
EndSplineSet
Validated: 1
EndChar

StartChar: uniA64B0311
Encoding: 59621 59621 50
Width: 407
Flags: W
HStem: -10 18<148.284 224.199> 417 20G<62.6144 170.874 293.021 339.385> 653 46<144.145 250.41>
VStem: 58 58<30.8174 159.273> 80 46<557 634.009> 268 46<557 635.012>
DStem2: 218.5 346.5 171 259 0.600636 -0.799522<-104.628 21.4996 73.6277 210.95>
AnchorPoint: "Yerok" 196 757 basechar 0
AnchorPoint: "Diacritic" 195 756 basechar 0
LayerCount: 2
Fore
SplineSet
346 97 m 4xf4
 346 18.09822839 288.391394012 -10 209 -10 c 4
 128.180057779 -10 58 12.6221014189 58 93 c 4
 58 141.584755655 76.0348852776 167.854652791 102 195 c 4
 127.834631961 223.418095159 145.301112929 233.301112929 171 259 c 5
 130.890232914 315.153673923 91.459924306 366.080151388 60 429 c 4
 60 435.718771332 59.2287572465 437 66 437 c 6
 162 437 l 5
 179.748328273 405.940425522 200.393202506 374.48323249 218.5 346.5 c 4
 222.166666667 340.833333333 226.333333333 335 231 329 c 5
 259.085180944 362.702217133 282.042831273 395.668858866 304 437 c 5
 337 437 l 6
 341.770279766 437 342 433.087543494 342 429 c 4
 313.66533414 383.664534624 282.432046595 349.432982218 249 307 c 5
 263.8441644 287.588400401 281.35885983 264.961710256 294 246 c 4
 310 220.666666667 322.666666667 196.833333333 332 174.5 c 4
 341.333333333 152.166666667 346 126.333333333 346 97 c 4xf4
116 82 m 4
 116 39.5741868428 139.710607157 8 184 8 c 4
 242.316522416 8 254.801888824 43.632110036 258 98 c 5
 250.778749004 153.362924303 219.524370509 195.423528442 190 233 c 5
 164.396733862 199.518805822 142.092952294 175.919037378 125.5 134 c 4
 119.166666667 118 116 100.666666667 116 82 c 4
197 653 m 256
 156.21847413 653 126 624.471745586 126 583 c 2
 126 557 l 1
 80 557 l 1
 80 583 l 2xec
 80 636.016901999 113.253350365 673.989774571 151.5 690 c 0
 165.833333333 696 181 699 197 699 c 256
 251.853711605 699 287.077410583 666.513092398 304.5 628 c 0
 310.833333333 614 314 599 314 583 c 2
 314 557 l 1
 268 557 l 1
 268 583 l 2
 268 625.356734108 238.322762065 653 197 653 c 256
EndSplineSet
Validated: 1
LCarets2: 1 0
Ligature2: "'ccmp' Precomposed Glyphs-1" uniA64B uni0311
EndChar

StartChar: quotesinglbase
Encoding: 8218 8218 51
Width: 199
Flags: W
HStem: 45.9522 77.2642<76.253 128.004>
VStem: 128 55<-61.743 40.4163>
LayerCount: 2
Fore
SplineSet
183 29 m 0
 183 -64.564946668 124.628518553 -120.953095216 67 -158 c 0
 60.6560834425 -164.343916558 60.1798299497 -153.11227208 64 -147 c 0
 81.3333333333 -125.666666667 96.3333333333 -103.166666667 109 -79.5 c 0
 121.666666667 -55.8333333333 128 -33.3333333333 128 -12 c 0
 128 11.4147153301 117.034717119 42.4956603601 93 45.5 c 0
 90.5502235038 45.806222062 88.1200200305 45.9521918936 85.7145327873 45.9521918936 c 0
 57.0848477812 45.9521918936 31.9563009838 25.2750679783 19 8 c 0
 14.1502769332 1.93784616663 7.04134351406 5.60335878514 10 13 c 0
 23.0370767073 44.2889840975 47.2909623821 77.0838842736 71 97.5 c 0
 83.5572956479 108.313226808 103.606844717 123.216427233 125.247107757 123.216427233 c 0
 130.760680281 123.216427233 136.377513064 122.248994774 142 120 c 0
 169.482050176 107.63307742 183 69.6310055236 183 29 c 0
EndSplineSet
Validated: 1
EndChar

StartChar: quotedblbase
Encoding: 8222 8222 52
Width: 393
Flags: W
HStem: 45.9522 77.2642<76.253 128.004 268.555 319.576>
VStem: 128 55<-61.743 40.4163> 320 55<-62.4073 39.9096>
LayerCount: 2
Fore
SplineSet
375 30 m 0
 375 -66.1337861902 317.805185138 -120.196666696 259 -158 c 0
 253.086370967 -163.913629033 250.5597873 -154.346914817 256 -148 c 0
 273.333333333 -126 288.333333333 -103.166666667 301 -79.5 c 0
 313.666666667 -55.8333333333 320 -33.3333333333 320 -12 c 0
 320 11.4147153301 309.034717119 42.4956603601 285 45.5 c 0
 282.577358777 45.8028301528 280.165852734 45.9472124692 277.771739083 45.9472124692 c 0
 249.109263234 45.9472124692 222.939643531 25.2528580409 210 8 c 0
 206.151184963 1.58530827104 197.845390326 6.07565054379 202 13 c 0
 215.12539323 44.5009437498 239.251911865 77.1840342647 263.5 97.5 c 0
 276.483399768 108.377983589 295.419765109 122.903103364 316.581015197 122.903103364 c 0
 322.570610243 122.903103364 328.738451293 121.73942756 335 119 c 0
 362.852987076 107.85880517 375 70.0085771919 375 30 c 0
183 29 m 0
 183 -64.564946668 124.628518553 -120.953095216 67 -158 c 0
 60.6560834425 -164.343916558 60.1798299497 -153.11227208 64 -147 c 0
 81.3333333333 -125.666666667 96.3333333333 -103.166666667 109 -79.5 c 0
 121.666666667 -55.8333333333 128 -33.3333333333 128 -12 c 0
 128 11.4147153301 117.034717119 42.4956603601 93 45.5 c 0
 90.5502235038 45.806222062 88.1200200305 45.9521918936 85.7145327873 45.9521918936 c 0
 57.0848477812 45.9521918936 31.9563009838 25.2750679783 19 8 c 0
 14.1502769332 1.93784616663 7.04134351406 5.60335878514 10 13 c 0
 23.0370767073 44.2889840975 47.2909623821 77.0838842736 71 97.5 c 0
 83.5572956479 108.313226808 103.606844717 123.216427233 125.247107757 123.216427233 c 0
 130.760680281 123.216427233 136.377513064 122.248994774 142 120 c 0
 169.482050176 107.63307742 183 69.6310055236 183 29 c 0
EndSplineSet
Validated: 1
EndChar

StartChar: quoteleft
Encoding: 8216 8216 53
Width: 205
Flags: W
HStem: 556.703 77.2898<52.8734 124.273>
VStem: 18 56<640.826 740.618>
LayerCount: 2
Fore
SplineSet
191 673 m 0
 191.753284181 672.62335791 192.092824638 671.79958584 192.092824638 670.620694667 c 0
 192.092824638 660.532837419 167.230487365 624.441920126 164 620 c 0
 145.895326169 595.106073482 121.629502562 570.734690089 92.5 560.5 c 0
 85.1020813698 557.900731292 78.3252823761 556.702769036 72.1393269768 556.702769036 c 0
 33.6073976197 556.702769036 18 603.183299641 18 647 c 0
 18 729.130609204 58.9842578602 779.331799609 104.5 817 c 0
 114.166666667 825 123.666666667 831.666666667 133 837 c 0
 140.38580887 842.539356652 142.993514475 834.990920266 138 828 c 0
 120.666666667 805.333333333 105.666666667 782.333333333 93 759 c 0
 80.3333333333 735.666666667 74 713.333333333 74 692 c 0
 74 668.909019864 84.9438617724 637.572539769 108.5 634.5 c 0
 111.136855253 634.156062358 113.762121407 633.992523532 116.367265939 633.992523532 c 0
 144.514306916 633.992523532 170.312446312 653.083261749 183 670 c 0
 185.666666667 673.333333333 188.333333333 674.333333333 191 673 c 0
EndSplineSet
Validated: 1
EndChar

StartChar: quoteright
Encoding: 8217 8217 54
Width: 199
Flags: W
HStem: 655.992 77.2001<80.7566 133.067>
VStem: 132 56<550.86 650.501>
LayerCount: 2
Fore
SplineSet
188 641 m 0
 188 551.345566719 128.92868003 486.735514093 72 453 c 0
 64.235332862 447.823555243 62.8632800696 455.986605794 69 463 c 0
 86.3333333333 485.666666667 101.166666667 508.5 113.5 531.5 c 0
 125.833333333 554.5 132 576.666666667 132 598 c 0
 132 622.454648255 121.895606472 652.388049191 97 655.5 c 0
 94.3317346056 655.833533174 91.6963362964 655.992364914 89.0985535868 655.992364914 c 0
 60.2701795874 655.992364914 36.0741691957 636.432225594 23 619 c 0
 18.9559867491 612.259977916 10.0472727155 617.094545431 14 625 c 0
 28.1215867019 655.810734622 51.8035956683 687.836329724 76 708 c 0
 88.5902349726 718.491862477 108.759391506 733.192503698 130.314529616 733.192503698 c 0
 135.820328453 733.192503698 141.416553955 732.233378418 147 730 c 0
 174.529261105 717.611832502 188 681.726284294 188 641 c 0
EndSplineSet
Validated: 1
EndChar

StartChar: quotedblleft
Encoding: 8220 8220 55
Width: 392
Flags: W
HStem: 556.829 77.1524<47.4159 118.206 252.749 324.74>
VStem: 12 56<641.068 737.738> 217 55<640.931 739.708>
LayerCount: 2
Fore
SplineSet
389.5 673 m 0
 390.698100311 672.315371251 391.224604221 671.010476603 391.224604221 669.245402922 c 0
 391.224604221 657.463269719 367.764832664 625.176644914 364 620 c 0
 345.895326169 595.106073482 321.629502562 570.734690089 292.5 560.5 c 0
 285.235627802 557.947653012 278.560578245 556.771162861 272.447600876 556.771162861 c 0
 233.051068006 556.771162861 217 605.636255426 217 650 c 0
 217 728.925957576 259.196254564 781.157003651 304 817 c 0
 308.760329646 820.808263717 328.91384471 838.357072476 337.07953978 838.357072476 c 0
 338.085259885 838.357072476 338.909132144 838.090867856 339.5 837.5 c 0
 341.166666667 835.833333333 340 832.666666667 336 828 c 0
 318.666666667 805.333333333 303.666666667 782.5 291 759.5 c 0
 278.333333333 736.5 272 714.333333333 272 693 c 0
 272 669.151624532 283.607721782 637.549034777 308 634.5 c 0
 310.678281682 634.16521479 313.330826302 634.005799341 315.951368937 634.005799341 c 0
 344.424102483 634.005799341 369.118915792 652.825221056 382 670 c 0
 384.666666667 673.333333333 387.166666667 674.333333333 389.5 673 c 0
185.5 673 m 0
 186.152143562 672.627346536 186.448206501 671.868023705 186.448206501 670.796569212 c 0
 186.448206501 660.932399643 161.35491437 624.613007258 158 620 c 0
 139.895326169 595.106073482 115.629502562 570.734690088 86.5 560.5 c 0
 79.3482105109 557.987209099 72.7699455245 556.828816523 66.7406537937 556.828816523 c 0
 28.0912103214 556.828816523 12 604.429113114 12 648 c 0
 12 724.928114199 55.0015169429 781.001255401 98.5 817 c 0
 108.166666667 825 117.666666667 831.666666667 127 837 c 0
 134.417125398 842.562844048 138.252117002 835.294136503 132 828 c 0
 114.666666667 806 99.6666666667 783.333333333 87 760 c 0
 74.3333333333 736.666666667 68 714.333333333 68 693 c 0
 68 669.471857493 79.5837705961 637.619508183 103.5 634.5 c 0
 106.197278874 634.148181016 108.864261632 633.98117557 111.495872597 633.98117557 c 0
 139.924921042 633.98117557 164.2259822 653.471178641 178 670 c 0
 180.666666667 673.333333333 183.166666667 674.333333333 185.5 673 c 0
EndSplineSet
Validated: 1
EndChar

StartChar: quotedblright
Encoding: 8221 8221 56
Width: 404
Flags: W
HStem: 655.992 77.2001<80.7566 133.067 285.602 348.67>
VStem: 132 56<550.86 650.501> 338 56<550.731 649.874>
LayerCount: 2
Fore
SplineSet
394 641 m 0
 394 551.345566719 334.92868003 486.735514093 278 453 c 0
 268.96583121 448.482915607 268.598927952 455.798570603 274 463 c 0
 291.333333333 485 306.333333333 507.666666667 319 531 c 0
 331.666666667 554.333333333 338 576.666666667 338 598 c 0
 338 622.132679515 326.980001219 652.377499848 302 655.5 c 0
 299.331734606 655.833533174 296.696336296 655.992364914 294.098553587 655.992364914 c 0
 265.270179588 655.992364914 241.074169196 636.432225594 228 619 c 0
 223.147067327 612.933834161 214.260958636 616.391437956 220 625 c 0
 238.135268889 668.52464533 274.114577186 713.905121715 318.5 729.5 c 0
 325.253720228 731.872928728 331.443748996 732.933848243 337.109837374 732.933848243 c 0
 360.229888284 732.933848243 374.626399068 715.269674762 383 697 c 0
 390.333333333 681 394 662.333333333 394 641 c 0
188 641 m 0
 188 551.345566719 128.92868003 486.735514093 72 453 c 0
 64.235332862 447.823555243 62.8632800696 455.986605794 69 463 c 0
 86.3333333333 485.666666667 101.166666667 508.5 113.5 531.5 c 0
 125.833333333 554.5 132 576.666666667 132 598 c 0
 132 622.454648255 121.895606472 652.388049191 97 655.5 c 0
 94.3317346056 655.833533174 91.6963362964 655.992364914 89.0985535868 655.992364914 c 0
 60.2701795874 655.992364914 36.0741691957 636.432225594 23 619 c 0
 18.9559867491 612.259977916 10.0472727155 617.094545431 14 625 c 0
 28.1215867019 655.810734622 51.8035956683 687.836329724 76 708 c 0
 88.5902349726 718.491862477 108.759391506 733.192503698 130.314529616 733.192503698 c 0
 135.820328453 733.192503698 141.416553955 732.233378418 147 730 c 0
 174.529261105 717.611832502 188 681.726284294 188 641 c 0
EndSplineSet
Validated: 1
EndChar

StartChar: uni2DE4
Encoding: 11748 11748 57
Width: 1
Flags: W
HStem: 540 33<-363.691 -287.679> 546 51<-102.501 23.6906> 650 90<-380.795 -319.101> 663 80<-37.1413 67.6081> 782 23<-258.359 -238.218>
VStem: -472 91<587.005 649.999> -238 95<671.568 785>
AnchorPoint: "Stacking" -190 911 basemark 0
AnchorPoint: "Stacking" -191 552 mark 0
AnchorPoint: "Diacritic" -191 553 mark 0
LayerCount: 2
Fore
SplineSet
-141 838 m 0xae
 -141 800.393977442 -143 756.642163971 -143 716 c 2
 -143 667 l 1
 -107.100259627 691.681071504 -74.2043316717 715.698315461 -31 732.5 c 0
 -13 739.5 7.66666666667 743 31 743 c 0
 62.4774011085 743 88.945979522 730.886935153 103 713 c 0
 103 709 101.666666667 705 99 701 c 0
 74.3508594988 685.432121789 40.3225027554 673.662728274 11 663 c 1
 1 663 l 1
 -16.2987156134 672.88498035 -19.4431726564 674.939047088 -38 680 c 1
 -80.8115692619 675.718843075 -113.684592346 653.286337584 -143 637 c 1
 -143 632 l 1
 -109.468824994 620.165467645 -73.7400941143 609.268128458 -35.5 601 c 0
 -23.1666666667 598.333333333 -12.3333333333 597 -3 597 c 0
 12.62744682 597 18.925157999 598.406447499 27 608.5 c 2
 37 621 l 1
 47.4411220772 618.016822264 47.4245551819 616.890533782 54 609 c 1
 41.3842734124 580.965052028 19.8749652777 559.937482638 -8 546 c 1x5e
 -82.9157645605 549.257207154 -142.883001888 570.151930488 -208 593 c 0
 -209.333333333 593 -210.333333333 593.333333333 -211 594 c 0
 -251.805799601 569.737092129 -305.051493302 541.581902965 -362 540 c 1
 -364.52664385 547.579931551 -366 562.782281942 -366 573 c 1
 -319.286404004 575.919599749 -278.270654933 589.972787274 -243 607 c 1
 -274.30462835 619.890141087 -304.095912251 632.785967094 -338 645.5 c 0
 -346 648.5 -354.666666667 650 -364 650 c 0
 -370.414599513 650 -375.077209164 649.184558168 -381 648 c 1
 -381 601 l 1
 -402.313384975 585.955257664 -410.884308661 579 -444 579 c 0
 -454.666666667 579 -464 580 -472 582 c 1
 -472 691 l 1
 -444.467124678 711.287381815 -418.92482564 725.267301503 -382 738 c 0
 -378 739.333333333 -373.666666667 740 -369 740 c 0
 -363.666666667 740 -359.333333333 739 -356 737 c 0
 -304.297879263 711.779453299 -275.548128325 694.540969458 -228 670 c 1
 -230.287739976 703.172229656 -235.080127569 754.341339465 -238 785 c 1
 -242.585069127 783.853732718 -251.45564861 782 -257 782 c 1
 -258.333333333 787.333333333 -259.333333333 795 -260 805 c 1
 -226.127255696 818.549097723 -183.803673367 835.54908166 -146 845 c 0
 -142.666666667 843.666666667 -141 841.333333333 -141 838 c 0xae
EndSplineSet
Validated: 1
EndChar

StartChar: endash
Encoding: 8211 8211 58
Width: 481
Flags: W
HStem: 190 54<35 448>
LayerCount: 2
Fore
SplineSet
35 190 m 5
 35 244 l 5
 448 244 l 5
 448 190 l 5
 35 190 l 5
EndSplineSet
Validated: 1
EndChar

StartChar: emdash
Encoding: 8212 8212 59
Width: 641
Flags: W
HStem: 190 54<35 608>
LayerCount: 2
Fore
SplineSet
35 190 m 1
 35 244 l 1
 608 244 l 1
 608 190 l 1
 35 190 l 1
EndSplineSet
Validated: 1
EndChar

StartChar: uniA64B0300
Encoding: 59620 59620 61
Width: 407
Flags: W
HStem: -10 18<148.284 224.199> 417 20G<293.021 339.385> 642 20G<128.993 145.802 211.177 254.63>
VStem: 25 87<492.921 586.507> 58 58<30.8174 159.273>
DStem2: 231 329 171 259 0.600636 -0.799522<-192.002 0 52.1281 189.45> 216 669 206 622 0.88804 -0.459766<1.9013 171.894>
AnchorPoint: "Yerok" 196 757 basechar 0
AnchorPoint: "Diacritic" 195 756 basechar 0
LayerCount: 2
Fore
SplineSet
346 97 m 0xf0
 346 18.09822839 288.391394012 -10 209 -10 c 0
 128.180057779 -10 58 12.6221014189 58 93 c 0xe8
 58 141.584755655 76.0348852776 167.854652791 102 195 c 0
 127.834631961 223.418095159 145.301112929 233.301112929 171 259 c 1
 126.27854356 321.610039019 83.3288145603 378.831862269 49.5 451 c 0
 37.94605925 475.648406934 25 494.169678308 25 527 c 0
 25 569.872490697 51.0755143455 593.630882039 74.5 614 c 0
 95.9684732848 632.66823764 116.98595806 645.990638707 141 662 c 1
 150.603877814 659.599030547 155.413519677 650.518881934 157 641 c 1
 144.786806289 625.733507859 136.006300752 619.279600821 122 604 c 0
 113.791634403 594.619010747 112 580.236634639 112 564 c 0
 112 544.52049848 117.682688779 533.622605856 123 519 c 0
 146.11146063 457.369438317 185.291411409 397.822364185 218.5 346.5 c 0
 222.166666667 340.833333333 226.333333333 335 231 329 c 1
 259.085180944 362.702217133 282.042831273 395.668858866 304 437 c 1
 337 437 l 2
 341.770279766 437 342 433.087543494 342 429 c 0
 313.66533414 383.664534624 282.432046595 349.432982218 249 307 c 1
 263.8441644 287.588400401 281.35885983 264.961710256 294 246 c 0
 310 220.666666667 322.666666667 196.833333333 332 174.5 c 0
 341.333333333 152.166666667 346 126.333333333 346 97 c 0xf0
116 82 m 0
 116 39.5741868428 139.710607157 8 184 8 c 0
 242.316522416 8 254.801888824 43.632110036 258 98 c 1
 250.778749004 153.362924303 219.524370509 195.423528442 190 233 c 1
 164.396733862 199.518805822 142.092952294 175.919037378 125.5 134 c 0
 119.166666667 118 116 100.666666667 116 82 c 0
206 622 m 1
 204.666666667 628.666666667 204 635.333333333 204 642 c 0
 204 650.33243666 206.353742693 669 216 669 c 1
 357 596 l 1
 358.844863348 592.310273303 360 578.443802757 360 573 c 0
 360 561.052119827 356.33326253 551.666646436 347 549 c 1
 206 622 l 1
EndSplineSet
Validated: 1
Ligature2: "'ccmp' Precomposed Glyphs-1" uniA64B gravecomb
EndChar

StartChar: uniA64B0301
Encoding: 59618 59618 62
Width: 407
Flags: W
HStem: -10 18<148.284 224.199> 417 20G<293.021 339.385> 654 20G<152.667 166.24>
VStem: 25 90<487.296 580.989> 58 58<30.8174 159.273>
DStem2: 218.5 346.5 171 259 0.600636 -0.799522<-175.178 21.4996 73.6277 210.95>
AnchorPoint: "Yerok" 208 781 basechar 0
AnchorPoint: "Diacritic" 207 780 basechar 0
LayerCount: 2
Fore
SplineSet
346 97 m 0xf0
 346 18.09822839 288.391394012 -10 209 -10 c 0
 128.180057779 -10 58 12.6221014189 58 93 c 0xe8
 58 141.584755655 76.0348852776 167.854652791 102 195 c 0
 127.834631961 223.418095159 145.301112929 233.301112929 171 259 c 1
 120.595766617 329.565926739 71.2266213902 395.456108663 36 480 c 0
 28.599100812 497.268764771 25 504.967953475 25 527 c 0
 25 574.252395463 77.8409816961 615.457844069 108 637 c 0
 126.666666667 650.333333333 144.333333333 662.666666667 161 674 c 1
 171.480418235 671.671018171 173 665.040544004 173 654 c 1
 149.846899528 633.570793701 144.010944811 626.398085921 125 603 c 0
 117.924637317 593.56618309 115 579.453734003 115 564 c 0
 115 527.229094725 126.024113415 509.093482054 139.5 481.5 c 0
 162.35561537 434.700406624 191.765991663 387.816194702 218.5 346.5 c 0
 222.166666667 340.833333333 226.333333333 335 231 329 c 1
 259.085180944 362.702217133 282.042831273 395.668858866 304 437 c 1
 337 437 l 2
 341.770279766 437 342 433.087543494 342 429 c 0
 313.66533414 383.664534624 282.432046595 349.432982218 249 307 c 1
 263.8441644 287.588400401 281.35885983 264.961710256 294 246 c 0
 310 220.666666667 322.666666667 196.833333333 332 174.5 c 0
 341.333333333 152.166666667 346 126.333333333 346 97 c 0xf0
116 82 m 0
 116 39.5741868428 139.710607157 8 184 8 c 0
 242.316522416 8 254.801888824 43.632110036 258 98 c 1
 250.778749004 153.362924303 219.524370509 195.423528442 190 233 c 1
 164.396733862 199.518805822 142.092952294 175.919037378 125.5 134 c 0
 119.166666667 118 116 100.666666667 116 82 c 0
312 787 m 1
 319.104804513 797.657206772 333.199458595 800.328455414 348 803.5 c 2
 362 806.5 l 2
 366.666666667 807.5 370.333333333 808 373 808 c 0
 378.333333333 808 381 805.333333333 381 800 c 1
 257 549 l 2
 255 545.666666667 251.666666667 544 247 544 c 0
 235.228042809 545.17719572 218.800491215 546.198280745 216 556 c 1
 312 787 l 1
EndSplineSet
Validated: 1
Ligature2: "'ccmp' Precomposed Glyphs-1" uniA64B acutecomb
EndChar

StartChar: uni0482
Encoding: 1154 1154 63
Width: 224
Flags: W
HStem: -133 238
VStem: 20 190
DStem2: 49 14 20 -17 0.810158 -0.586212<0 53.0094 97.9655 146.5> 90 80 65 48 0.798427 -0.602092<0 55.3896 99.908 152.107> 69 -51 103 -77 0.555584 0.83146<-68.5666 -2.72811 41.0481 73.8199 118.736 188.044>
LayerCount: 2
Fore
SplineSet
210 83 m 1
 198.42529056 61.7796993597 183.130548623 44.7765764089 168 21 c 1
 186 8.33333333333 200.666666667 -3 212 -13 c 1
 187 -44 l 1
 145 -13 l 1
 141.666666667 -17.6666666667 138.333333333 -22.6666666667 135 -28 c 2
 125 -44 l 1
 171 -75 l 1
 143 -106 l 1
 128.526260492 -96.3508403279 117.383526445 -88.9862720375 103 -77 c 1
 85.6666666667 -100.333333333 73.6666666667 -119 67 -133 c 1
 29 -112 l 1
 41.1473695686 -93.7789456471 54.3782403067 -71.8882281333 69 -51 c 1
 53.2364249339 -40.8662731718 34.2975174687 -26.5316783125 20 -17 c 1
 49 14 l 1
 62.0379900134 5.85125624167 77.517545698 -8.08772042964 92 -17 c 1
 102 -3 l 2
 105.333333333 1.66666666667 108.666666667 6.66666666667 112 12 c 1
 96.4005728897 24.2566927299 78.4298945009 36.2488423116 65 48 c 1
 90 80 l 1
 102.13097123 69.385400174 120.137291434 57.3970314245 134 47 c 1
 148.975374221 66.2540525709 164.792040803 84.7424897636 174 105 c 1
 210 83 l 1
EndSplineSet
Validated: 1
EndChar

StartChar: uni04630300
Encoding: 59659 59659 64
Width: 572
Flags: W
HStem: 0 18<331 416> 419 18<36.0234 57 154 244 337 398.03>
VStem: 59 95<229.974 419> 235 95<18 173.938 187 379.035> 242 88<133.654 173.938 187 419>
DStem2: 246 692 244 642 0.93185 -0.362844<3.34803 253.671>
AnchorPoint: "Yerok" 296 757 basechar 0
AnchorPoint: "Diacritic" 295 756 basechar 0
LayerCount: 2
Fore
SplineSet
59 285 m 2xe8
 59 329.153637255 58.3884998981 377.34500306 57 419 c 1
 42 419 l 2
 38 419 36 422.333333333 36 429 c 0
 36 434.333333333 37.6666666667 437 41 437 c 2
 245 437 l 1
 246.371048535 458.936776555 246.689433483 479.720369222 248 502 c 1
 343 502 l 1
 340.258614665 480.06891731 339.625808094 459.319368806 337 437 c 1
 523 437 l 1
 523 432.333333333 522.333333333 428.666666667 521 426 c 0
 481.283101056 400.300830096 464.315749105 351.806829155 453 299 c 0
 453 296.333333333 451.666666667 295 449 295 c 0
 447 295 444.666666667 296.333333333 442 299 c 0
 419.807560303 330.330503103 406.660174272 376.35930291 396 419 c 1
 336 419 l 1
 336 408.438944675 335 396.560515354 335 386 c 0
 332.513370437 318.861001779 330 253.641545805 330 187 c 1
 346.459812538 195.229906269 365.970105487 201.315894868 380 209.5 c 0
 392 216.5 404 224.666666667 416 234 c 0
 417.333333333 235.333333333 419 236 421 236 c 0
 422.333333333 236 423.666666667 235.333333333 425 234 c 0
 455.035754451 188.946368323 479.794081471 131.165536137 501 75.5 c 0
 509 54.5 516 34 522 14 c 0
 522.666666667 10.6666666667 523 6 523 0 c 1
 235 0 l 1xf0
 235 130.713320047 235.183255677 257.754105973 242 385 c 0
 242 390.333333333 242.166666667 395.166666667 242.5 399.5 c 2
 244 419 l 1
 154 419 l 1
 155.467490445 394.052662453 156 363.759018088 156 336 c 0
 156 303.915422712 155.567647473 266.217654497 154 238 c 1
 127.079890101 225.763586409 97.1789098407 219.972079116 63 217 c 0
 59.9647457089 217 58 222.791210237 58 226 c 0
 58.6666666667 235.333333333 59 244.833333333 59 254.5 c 2
 59 285 l 2xe8
416 18 m 1
 409.240247361 72.0780210883 391.253982437 126.138305786 362.5 159 c 0
 355.5 167 348.333333333 172 341 174 c 1
 335.666666667 172.666666667 332 171.666666667 330 171 c 1
 330 85 l 2
 330 61.6666666667 330.333333333 39.3333333333 331 18 c 1
 416 18 l 1
475 563 m 256
 475 557.666666667 472.333333333 555 467 555 c 1
 244 642 l 1
 240.623448565 654.380688593 239 670.49199294 239 685 c 0
 239 689.666666667 241.333333333 692 246 692 c 1
 472 604 l 1
 474.217935356 591.801355537 475 576.199343342 475 563 c 256
EndSplineSet
Validated: 1
Ligature2: "'ccmp' Precomposed Glyphs-1" uni0463 gravecomb
EndChar

StartChar: guillemotleft
Encoding: 171 171 65
Width: 480
Flags: W
HStem: -5 21G<212.767 255 422.498 467> 417 20G<212.47 255 422.196 467>
LayerCount: 2
Fore
SplineSet
229 -5 m 1
 48 218 l 1
 229 437 l 1
 255 437 l 1
 141 218 l 1
 255 -5 l 1
 229 -5 l 1
439 -5 m 1
 255 218 l 1
 439 437 l 1
 467 437 l 1
 354 218 l 1
 467 -5 l 1
 439 -5 l 1
EndSplineSet
Validated: 1
EndChar

StartChar: logicalnot
Encoding: 172 172 66
Width: 399
Flags: W
HStem: 223 54<36 310>
VStem: 310 54<91 223>
LayerCount: 2
Fore
SplineSet
364 277 m 1
 364 91 l 1
 310 91 l 1
 310 223 l 1
 36 223 l 1
 36 277 l 1
 364 277 l 1
EndSplineSet
Validated: 1
EndChar

StartChar: uniA67E
Encoding: 42622 42622 67
Width: 334
Flags: W
HStem: 538 57<112.541 221.62>
VStem: 21 58<629.96 729> 253 58<627.749 729>
LayerCount: 2
Fore
SplineSet
166 538 m 256
 92.1782370851 538 47.5692252478 586.38805198 30 643 c 0
 24 662.333333333 21 681.666666667 21 701 c 2
 21 729 l 1
 79 729 l 1
 79 704 l 2
 79 658.797435529 96.9807714658 623.648599976 125.5 605.5 c 0
 136.5 598.5 150 595 166 595 c 256
 225.004950804 595 253 645.996496854 253 704 c 2
 253 729 l 1
 311 729 l 1
 311 701 l 2
 311 630.167086747 276.466502782 577.991270014 229 552.5 c 0
 211 542.833333333 190 538 166 538 c 256
EndSplineSet
Validated: 1
EndChar

StartChar: uni0407
Encoding: 1031 1031 68
Width: 316
Flags: W
HStem: 0 18<45 60.9656> 645 18<245.478 261> 706 90<59 130 186 257>
VStem: 59 71<706 796> 135 45<400.863 567.163> 186 71<706 796>
AnchorPoint: "Yerok" 155 856 basechar 0
AnchorPoint: "Diacritic" 155 856 basechar 0
LayerCount: 2
Fore
SplineSet
252 796 m 2
 255.333333333 796 257 794 257 790 c 2
 257 712 l 2
 257 708 255.666666667 706 253 706 c 2
 191 706 l 2
 187.666666667 706 186 708 186 712 c 2
 186 790 l 2
 186 794 187.333333333 796 190 796 c 2
 252 796 l 2
125 796 m 2
 128.333333333 796 130 794 130 790 c 2
 130 712 l 2
 130 708 128.666666667 706 126 706 c 2
 64 706 l 2
 60.6666666667 706 59 708 59 712 c 2
 59 790 l 2
 59 794 60.3333333333 796 63 796 c 2
 125 796 l 2
257 335 m 0
 257 291.103137922 218.949156168 268.324859361 181 262 c 1
 185.094328807 182.160588236 196.158596322 103.5172783 229.5 53 c 0
 240.5 36.3333333333 254.333333333 24.6666666667 271 18 c 1
 271 0 l 1
 257.666666667 0 244.333333333 0.333333333333 231 1 c 0
 208.861390036 1 180.135910105 2 158 2 c 256
 135.861390036 2 107.135910105 1 85 1 c 0
 71.6666666667 0.333333333333 58.3333333333 0 45 0 c 1
 45 18 l 1
 117.731548179 47.0926192717 130.054879983 165.570159652 135 262 c 1
 97.0399848055 268.326669198 59 291.098792421 59 335 c 256
 59 378.91696439 97.0559099529 399.675984993 135 406 c 1
 132.940628073 484.25613319 125.53321325 561.447501636 94.5 610.5 c 0
 84.1666666667 626.833333333 71 638.333333333 55 645 c 1
 55 663 l 1
 67 662.333333333 79 662 91 662 c 0
 101.666666667 661.333333333 113 661 125 661 c 2
 190.5 661 l 2
 202.166666667 661 213.333333333 661.333333333 224 662 c 0
 236 662 248.333333333 662.333333333 261 663 c 1
 261 645 l 1
 189.916539406 616.566615761 182.540454008 502.537252266 180 406 c 1
 216.771472118 399.871421314 257 376.978703417 257 335 c 0
EndSplineSet
Validated: 1
LCarets2: 1 0
Ligature2: "'ccmp' Precomposed Glyphs-1" uni0406 uni0308
EndChar

StartChar: uni0457
Encoding: 1111 1111 69
Width: 241
Flags: W
HStem: -4 21G<119.202 138.02> 422 20G<159.367 178.066> 520 115<5.7197 80.8977> 526 115<142.72 217.898>
VStem: 68 105<0.470703 420.56>
AnchorPoint: "Yerok" 113 715 basechar 0
AnchorPoint: "Diacritic" 111 716 basechar 0
LayerCount: 2
Fore
SplineSet
233 531 m 1xd8
 219.330585382 527.271977831 201.90830657 526 185 526 c 0
 173.666666667 526 161.333333333 527.666666667 148 531 c 1
 139.317250442 551.259748969 135.992897804 585.740056025 133.5 611.5 c 0
 132.5 621.833333333 132 630.666666667 132 638 c 1
 147.00773356 640.501288926 164.015543784 641 181 641 c 0
 193.831362578 641 205.870732071 639.391158492 217 638 c 1
 226.681545135 608.955364595 233 568.130628925 233 531 c 1xd8
96 525 m 1
 82.3305853826 521.271977832 64.9083065698 520 48 520 c 0
 36.6666666667 520 24.3333333333 521.666666667 11 525 c 1
 2.31725044237 545.259748969 -1.00710219586 579.740056025 -3.5 605.5 c 0
 -4.5 615.833333333 -5 624.666666667 -5 632 c 1
 10.0077335595 634.501288926 27.0155437838 635 44 635 c 0xe8
 56.8313625789 635 68.8707320707 633.391158492 80 632 c 1
 89.681545135 602.955364595 96 562.130628926 96 525 c 1
180 442 m 1
 176.131500449 364.630009023 173 278.283855954 173 197 c 0
 173 143.777750747 174.819656601 88.1478981465 177 38 c 0
 177.666666667 22.6666666667 178.666666667 10 180 0 c 1
 164.982001579 -2.73054516749 147.039204072 -4 129 -4 c 256
 109.403178941 -4 89.6305144994 -2.51864492849 72 0 c 1
 68.6771890153 43.1965428017 68 100.869957369 68 152 c 0
 68 246.472499608 72.4834225232 345.026204062 79 433 c 1
 114.829501642 439.635092896 138.734035131 442 180 442 c 1
EndSplineSet
Validated: 1
Ligature2: "'ccmp' Precomposed Glyphs-1" uni0456 uni0308
EndChar

StartChar: paragraph
Encoding: 182 182 70
Width: 501
Flags: W
VStem: 78 196<412.349 567.932> 218 56<-91 349> 331 56<-91 633>
LayerCount: 2
Fore
SplineSet
218 -91 m 1x60
 218 349 l 1x60
 153.810489472 349 110.762209996 384.144369552 90 428.5 c 0
 82.6666666667 444.166666667 78.6666666667 460.666666667 78 478 c 2
 78 502 l 1xa0
 80.4955256647 559.397090283 119.387165257 601.477206909 162.5 621 c 0
 180.166666667 629 198.666666667 633 218 633 c 2
 274 633 l 1
 274 -91 l 1
 218 -91 l 1x60
331 -91 m 1
 331 633 l 1
 387 633 l 1
 387 -91 l 1
 331 -91 l 1
EndSplineSet
Validated: 1
EndChar

StartChar: uni04630301
Encoding: 59658 59658 71
Width: 572
Flags: W
HStem: 0 18<331 416> 419 18<36.0234 58 154 243 338 398.03>
VStem: 58 96<229.974 419> 235 95<18 173.938 189 259.923> 243 91<192.16 418.554 437 593.785>
DStem2: 244 437 338 437 0.0919169 0.995767<8.64019 280.138>
AnchorPoint: "Yerok" 318 826 basechar 0
AnchorPoint: "Diacritic" 318 826 basechar 0
LayerCount: 2
Fore
SplineSet
497 762 m 1xe0
 504.104804513 772.657206772 518.199458595 775.328455414 533 778.5 c 2
 547 781.5 l 2
 551.666666667 782.5 555.333333333 783 558 783 c 0
 563.333333333 783 566 780.333333333 566 775 c 1
 433 530 l 2
 431 526.666666667 427.666666667 525 423 525 c 0
 411.228042809 526.17719572 394.800491215 527.198280745 392 537 c 1
 497 762 l 1xe0
63 217 m 0
 59.9647457089 217 58 222.791210237 58 226 c 0
 58.6666666667 235.333333333 59 244.833333333 59 254.5 c 2
 59 353.5 l 2
 59 375.833333333 58.6666666667 397.666666667 58 419 c 1
 42 419 l 2
 38 419 36 422.333333333 36 429 c 0
 36 434.333333333 37.6666666667 437 41 437 c 2
 244 437 l 1
 248.410439254 529.619224359 255.777292377 624.213970458 261 713 c 1
 302.505621721 714.338891024 349.848836159 725.058139033 379 739 c 0
 383 739 385 736.666666667 385 732 c 0
 366.278932718 678.956976035 358.02517894 609.919957837 349 549 c 0
 343.567543136 512.330916175 340.648529978 476.727949675 338 437 c 1
 520 437 l 1
 522.366723971 435.816638014 523 431.307462332 523 428 c 0
 483.005922461 402.12147924 464.40369016 352.217220746 453 299 c 0
 453 296.333333333 451.666666667 295 449 295 c 0
 447 295 444.666666667 296.333333333 442 299 c 0
 419.807560303 330.330503103 406.660174272 376.35930291 396 419 c 1
 337 419 l 1
 335.832496298 409.659970388 334 389.386023948 334 379 c 0xe8
 331.47106225 310.71868072 330 256.615681739 330 189 c 1
 331.333333333 189 334 189.666666667 338 191 c 0
 372.452264268 202.484088089 389.780901065 214.835675793 416 234.5 c 0
 417.333333333 235.5 418.666666667 236 420 236 c 256
 422.727127753 236 424.490166186 233.509833814 426 232 c 0
 466.336313014 171.49553048 498.783896269 91.3870124361 522 14 c 0
 523.282245758 8.87101697225 524 5.99476857496 524 0 c 1
 235 0 l 1xf0
 235 131.367197015 236.196445911 258.000323674 243 385 c 1
 243 419 l 1xe8
 154 419 l 1
 155.467490445 394.052662453 156 363.759018088 156 336 c 0
 156 303.915422712 155.567647473 266.217654497 154 238 c 1
 127.079890101 225.763586409 97.1789098407 219.972079116 63 217 c 0
416 18 m 1
 409.240247361 72.0780210883 391.253982437 126.138305786 362.5 159 c 0
 355.5 167 348.333333333 172 341 174 c 1
 335.666666667 172.666666667 332 171.666666667 330 171 c 1
 330 92 l 2xf0
 330 64 330.333333333 39.3333333333 331 18 c 1
 416 18 l 1
EndSplineSet
Validated: 1
Ligature2: "'ccmp' Precomposed Glyphs-1" uni0463 acutecomb
EndChar

StartChar: afii10101
Encoding: 1108 1108 72
Width: 481
Flags: W
HStem: 150 19<404.499 439.904> 362 13<436.152 462.93> 405 41<194.339 317.381>
VStem: 53 94<106.967 312.63>
AnchorPoint: "Yerok" 366 557 basechar 0
AnchorPoint: "Diacritic" 241 556 basechar 0
LayerCount: 2
Fore
SplineSet
233 175 m 1
 212.730952713 157.626530896 181.754519911 130.754519911 162 111 c 1
 172.61470827 52.6191045092 189.139280587 0.846187021049 208 -49 c 0
 215.342371172 -68.9292931786 234.093599502 -98.8705142152 256 -102 c 1
 280.171171415 -89.9144142917 304.270078553 -71.3938379049 323.5 -53 c 0
 331.166666667 -45.6666666667 337.333333333 -38 342 -30 c 1
 348.337268735 -28.7325462528 353.734871737 -28 361 -28 c 256
 370.668096005 -28 381 -28.4936360799 381 -38 c 1
 350.408142786 -81.3384643862 304.585257838 -125.00624668 251.5 -147.5 c 0
 231.833333333 -155.833333333 211.333333333 -160 190 -160 c 1
 152.317090435 -148.834693463 123.24878549 -105.971235017 111 -68 c 0
 82.1496908898 25.7635046082 53 107.098309147 53 230 c 0
 53 291.757974964 88.0326166959 343.171712788 123 376.5 c 0
 160.283248595 412.035596317 215.717876553 446 284 446 c 0
 350.762318102 446 395.080928729 408.671961582 430 375 c 1
 437.352621136 377.450873711 448.137634877 378.255053951 455 381 c 0
 460.333333333 381 463 377.333333333 463 370 c 0
 463 365.333333333 461.666666667 362.666666667 459 362 c 0
 419.039373103 352.009843276 375.149350689 336.496004005 334 327 c 1
 316.666666667 348.333333333 299.666666667 366.5 283 381.5 c 0
 266.333333333 396.5 246.333333333 404.333333333 223 405 c 0
 164.476028604 399.42628844 147 326.870763487 147 263 c 0
 147 215.634229262 151.375756447 174.070310034 158 133 c 1
 194.753139947 167.302930618 243.866574649 213.105455871 277 249 c 0
 278.333333333 250.333333333 279.666666667 251 281 251 c 256
 282.333333333 251 284.333333333 250.333333333 287 249 c 0
 328.401462207 228.890718357 372.735863272 188.797831481 404 162 c 1
 414.666666667 164 424 166.333333333 432 169 c 0
 437.333333334 169 440 163.254901268 440 158 c 0
 440 153.333333333 438.666666667 150.666666667 436 150 c 0
 396.159699905 140.039924976 349.061918378 124.015479593 309 114 c 1
 292.75682911 133.19647469 259.854268328 164.491808045 233 175 c 1
EndSplineSet
Validated: 1
EndChar

StartChar: guillemotright
Encoding: 187 187 73
Width: 480
Flags: W
HStem: -5 21G<13 57.6516 225 267.38> 417 20G<13 57.6516 225 267.38>
VStem: 126 99<166.5 265.5> 339 93<169.5 262.5>
LayerCount: 2
Fore
SplineSet
251 437 m 1
 432 216 l 1
 251 -5 l 1
 225 -5 l 1
 339 216 l 1
 225 437 l 1
 251 437 l 1
41 437 m 1
 225 216 l 1
 41 -5 l 1
 13 -5 l 1
 126 216 l 1
 13 437 l 1
 41 437 l 1
EndSplineSet
Validated: 1
EndChar

StartChar: afii10054
Encoding: 1029 1029 74
Width: 566
Flags: W
HStem: -11 44<297.375 389.333> 90 42<111 185.284> 300 28<248.596 364.751> 393 27<213.472 336.145> 640 33<237.782 312.627>
VStem: 25 104<8.40536 87.5539> 98 104<457.653 607.495> 414 114<75.0817 257.306>
DStem2: 148 251 160 237 0.75276 0.658296<0 30.2964 104.707 235.274 259.577 338.571> 396 524 413 520 0.206346 0.978479<0 29.8878 126.671 149.827>
AnchorPoint: "Yerok" 465 716 basechar 0
AnchorPoint: "Diacritic" 255 716 basechar 0
LayerCount: 2
Fore
SplineSet
379 633 m 0xfb
 401.233913869 635.779239233 422.079247786 651.316991143 427 671 c 1
 444 667 l 1
 413 520 l 1
 396 524 l 1
 398 534 l 1
 393.41787967 561.492721981 387.060692364 584.939307636 370 602 c 0
 355.085652834 615.050053772 327.908822391 635.213676641 306 638.5 c 0
 299.333333333 639.5 290.666666667 640 280 640 c 0
 229.553913692 640 202 584.64818189 202 534 c 0xfb
 202 484.905003628 221.58638242 448.236352903 253.5 430 c 0
 265.166666667 423.333333333 279 420 295 420 c 0
 326.708902906 420 353.716056972 434.875095688 374 448 c 1
 403 474 l 1
 415 460 l 1
 239 306 l 1
 272.333333333 320.666666667 309.333333333 328 350 328 c 0
 425.511208266 328 467.517943644 305.457484763 501 265 c 0
 513.959192043 248.506482854 528 216.449828542 528 188 c 0
 528 89.2465912939 494.886241871 25.3544967489 424 -3 c 0
 410.666666667 -8.33333333333 396.666666667 -11 382 -11 c 0
 349.127295098 -11 325.512932578 -5.65466622268 304 7 c 0
 269.305161814 27.4087283442 221.007625714 62.4610744764 193 83 c 0
 183.44099236 86.5846278651 174.116537925 90 162 90 c 0
 138.043689515 90 129 67.6175530179 129 43 c 0
 129 33.8597160286 134.694586617 21.3817667282 139 16 c 1
 139 0 l 1
 127 -2 111.666666667 -3 93 -3 c 0
 74.2728037266 -3 54.4029756445 -2.80054102629 39 0 c 1
 31.6463260457 11.765878327 25 25.9187619618 25 46 c 0xfd
 25 84.5829028334 51.6096760526 111.250137625 79.5 124 c 0
 91.1666666667 129.333333333 104 132 118 132 c 0
 152.226214145 132 170.132096365 122.957808663 191 107 c 0
 217.697936132 87.2667428587 258.394510173 55.7330194053 287 40 c 1
 305 35.5 l 2
 311.666666667 33.8333333333 318.333333333 33 325 33 c 0
 398.370380249 33 414 103.590025874 414 176 c 0
 414 226.626738319 391.982702161 272.195298843 361.5 288.5 c 0
 347.166666667 296.166666667 329 300 307 300 c 0
 253.987900854 300 215.479150323 278.793257915 184 257 c 1
 183 257 l 1
 160 237 l 1
 148 251 l 1
 325 406 l 1
 300.379555231 396.620782946 267.051640535 393 235 393 c 0
 191.943459275 393 155.31860741 415.958679503 132 438.5 c 0
 107.828543146 461.865741627 98 491.477167443 98 536 c 0
 98 610.163828949 136.671000642 647.497535091 193.5 666 c 0
 207.833333333 670.666666667 223.333333333 673 240 673 c 0
 284.35527254 673 303.174411673 662.136855253 335 645 c 0
 348.333333333 637.666666667 363 633.666666667 379 633 c 0xfb
EndSplineSet
Validated: 1
EndChar

StartChar: afii10102
Encoding: 1109 1109 75
Width: 595
Flags: W
HStem: -7 21<378.135 411.669> 19 85<135.447 302.175> 250 45<361.12 406.495> 427 17<203.276 269.483>
VStem: 63 97<255.922 370.705> 453 94<74.4247 204.85>
DStem2: 249 220 161 159 0.905277 0.424821<-15.2802 127.505>
AnchorPoint: "Yerok" 466 557 basechar 0
AnchorPoint: "Diacritic" 281 556 basechar 0
LayerCount: 2
Fore
SplineSet
402 14 m 1
 432.628322515 40.6333239264 453 80.6396378639 453 138 c 0
 453 179.127181655 428.07730975 215.92269025 407 237 c 0
 396.219949892 244.186700072 386.525881778 250 370 250 c 2
 360.5 250 l 2
 356.833333333 250 353.333333333 249.333333333 350 248 c 0
 288.718510258 222.766445398 223.371339249 183.255520821 161 159 c 0
 157 157 153.666666667 156 151 156 c 256
 148.333333333 156 145.666666667 157 143 159 c 0
 99.7119319171 184.251373048 63 219.954792321 63 285 c 0
 63 356.589553428 97.7276346401 402.447370077 145 428 c 1
 173.666666667 438.666666667 207.333333333 444 246 444 c 0
 290.491204514 444 320.905790421 434 364 434 c 0
 384.29379832 434 392.412899473 434.369499761 407 441 c 0
 408.475306228 443.950612455 411.629105489 445.629105489 414 448 c 0
 420.194718436 448 425.539270823 441.382187529 427 437 c 1
 388.708233767 398.708233767 359.259611373 369.856965638 331 331 c 1
 325.871577205 331 318.497546224 336.502453776 316 339 c 0
 317.357241272 341.714482543 319 343.937632418 319 348 c 0
 306.911606829 386.682858151 285.015690467 427 235 427 c 0
 188.289653709 427 160 382.593742815 160 336 c 0
 160 286.959670782 177.968141155 247.654706607 209.5 229.5 c 0
 220.5 223.166666667 233.666666667 220 249 220 c 1
 293.376310799 240.603287157 329.839706743 260.417432228 379 282 c 0
 397.796998459 290.771932615 410.435901151 295 436 295 c 0
 510.298916822 295 547 234.845714447 547 161 c 0
 547 119.478072856 528.831982104 76.0673049983 513 51 c 1
 490.60309732 25.8034844853 462.050534821 11.6662781066 430 -5 c 1
 418.666666667 -6.33333333333 408.666666667 -7 400 -7 c 2
 371 -7 l 2
 333.731073096 -7 309.320174958 -0.134158813773 279 7 c 0
 243.817618748 13.7658425484 223.974608554 19 183 19 c 0
 137.477264238 19 100.975937743 3.15664072619 67 -11 c 1
 54.8718505966 -9.652427844 49.392315975 -5.08847396242 44 3 c 1
 68.4349452973 36.0590436375 94.9244685418 59.4238655071 133 81 c 0
 161.444846353 97.0775218524 181.973986975 104 223 104 c 0
 280.292572223 104 322.041930557 71.6945987235 354.5 44.5 c 0
 366.833333333 34.1666666667 378.666666667 24 390 14 c 1
 402 14 l 1
EndSplineSet
Validated: 1
EndChar

StartChar: afii10017
Encoding: 1040 1040 76
Width: 460
Flags: W
HStem: 0 18<20 65.926 174.362 209 230 280 380 430> 605 18<196 229.293> 645 18<230 280 380 430>
VStem: 75 54<310.062 388.197> 108 29<81.1453 156.356> 130 85<534.252 604.592> 280 100<18 540.438 569 645>
AnchorPoint: "Yerok" 332 716 basechar 0
AnchorPoint: "Diacritic" 333 716 basechar 0
LayerCount: 2
Fore
SplineSet
196 623 m 0xf6
 237.567076851 623 264.808864581 596.344043757 280 569 c 1
 280 645 l 1
 230 645 l 1
 230 663 l 1
 430 663 l 1
 430 645 l 1
 380 645 l 1
 380 18 l 1
 430 18 l 1
 430 0 l 1
 230 0 l 1
 230 18 l 1
 280 18 l 1
 280 436 l 1
 277.689148751 432.533723126 276.727812249 429.455624496 275 426 c 0
 252.530006199 379.455012839 219.253385819 329.367828078 186 297.5 c 0
 178 289.833333333 168.666666667 284.333333333 158 281 c 1
 181.900666775 271.43973329 203 251.881289146 203 220 c 0
 203 181.939539134 171.828473228 156.679113325 137 154 c 1
 137 130 l 2
 137 83.7193024384 158.406886902 41.5931130998 182 18 c 1
 209 18 l 1
 209 0 l 1
 20 0 l 1
 20 18 l 1
 55 18 l 1
 73.162864919 29.1771476423 78.896934312 44.1929927133 88 65 c 0
 96.3276051199 84.7780621599 102.147353987 112.810446922 106 134 c 0
 107.333333333 140.666666667 108 148 108 156 c 1xea
 81.1334712201 163.327235122 59 188.117521853 59 221 c 256
 59 253.856287685 82.9468069872 277.90147978 111 284 c 1
 89.8869122975 295.260313441 75 313.559744614 75 347 c 0
 75 375.960854244 95.6887783516 404.472636833 111 417 c 0
 138.559410304 439.54860843 172.496383157 455.04746821 201 475 c 0
 221.517934239 490.388450679 255 521.387867601 255 554 c 0
 255 586.67793702 225.218762382 605 196 605 c 1
 208.666666667 596.333333333 215 584.666666667 215 570 c 0
 215 547.541751993 194.431370471 528 172 528 c 0
 147.63378987 528 130 546.330192473 130 571 c 0
 130 603.984145795 160.392027805 623 196 623 c 0xf6
129 337 m 0xf2
 129 322.228554532 136.773448349 310 151 310 c 0
 174.391747183 310 186.119792037 326.046441372 199 340 c 0
 227.001260026 370.546829121 256.288110359 421.864331073 271.5 467.5 c 0
 275.833333333 480.5 278 493 278 505 c 256
 278 517 276 529 272 541 c 1
 266.394380306 503.629202038 241.148857152 476.148857152 219 454 c 0
 193.216902609 428.216902609 175.461920864 413.461920864 149 387 c 0
 138.832662638 376.832662638 129 357.218530713 129 337 c 0xf2
EndSplineSet
Validated: 1
EndChar

StartChar: afii10018
Encoding: 1041 1041 77
Width: 472
Flags: W
HStem: 0 18<30 80 180 292 392 442> 317 18<393.512 430> 645 18<30 80 180 276.75>
VStem: 80 100<18 419 423.478 645> 292 100<18 317>
AnchorPoint: "Yerok" 345 716 basechar 0
AnchorPoint: "Diacritic" 233 716 basechar 0
LayerCount: 2
Fore
SplineSet
346 513 m 2
 346 507.744823664 344.359477355 502 339 502 c 0
 331.609333677 502 326.236194972 509.40951257 324 515 c 0
 303.217962126 560.231494198 287.26776047 595.928958119 275 645 c 1
 180 645 l 1
 180 445 l 1
 208.560466744 414.852840658 228.474144328 398.333068418 269 375 c 0
 310.60130005 349.787090879 339.521735699 337.973913214 399 335 c 1
 430 335 l 1
 430 317 l 1
 392 317 l 1
 392 18 l 1
 442 18 l 1
 442 0 l 1
 30 0 l 1
 30 18 l 1
 80 18 l 1
 80 645 l 1
 30 645 l 1
 30 663 l 1
 405 663 l 2
 408.333333333 663 410 659.666666667 410 653 c 0
 410 648.713473898 406.196131293 642.196131293 404 640 c 0
 371.615378513 620.569227108 354.873087271 584.987758538 348 541 c 0
 346.666666667 535.666666667 346 530.5 346 525.5 c 2
 346 513 l 2
292 341 m 1
 265.648668916 351.850548095 231.650179625 375.494304737 213 390 c 0
 201 399.333333333 190 409 180 419 c 1
 180 18 l 1
 292 18 l 1
 292 341 l 1
EndSplineSet
Validated: 1
EndChar

StartChar: afii10019
Encoding: 1042 1042 78
Width: 472
Flags: W
HStem: 0 18<30 80 180 292 392 442> 286 18<392.187 430> 435 35<279.76 333.054> 657 16<230.194 302.929>
VStem: 80 100<18 396 434 595.845> 292 100<18 286> 347 86<477.025 621.786>
DStem2: 180 434 188 415 0.627159 0.778891<0 86.8919>
AnchorPoint: "Yerok" 385 716 basechar 0
AnchorPoint: "Diacritic" 269 716 basechar 0
LayerCount: 2
Fore
SplineSet
273 673 m 0xfc
 364.314425126 673 433 641.076592801 433 548 c 0xfa
 433 499.243695504 413.292154986 468.276825899 383 449 c 0
 368.333333333 439.666666667 351 435 331 435 c 0
 301.807413434 435 277.592096498 451.113582632 262.5 467 c 0
 256.166666667 473.666666667 251.666666667 481.333333333 249 490 c 1
 188 415 l 1
 222.563265305 371.795918371 262.499735306 333.285789914 323 316 c 0
 346.333333333 309.333333333 372 305.333333333 400 304 c 1
 430 304 l 1
 430 286 l 1
 392 286 l 1
 392 18 l 1
 442 18 l 1
 442 0 l 1
 30 0 l 1
 30 18 l 1
 80 18 l 1
 80 571 l 2
 80 581.213626425 94.806745427 593.504215892 102 598 c 0
 135.699192028 624.959353622 174.387521523 651.077812711 221.5 665.5 c 0
 237.833333333 670.5 255 673 273 673 c 0xfc
292 308 m 1xfc
 262.381196495 319.847521401 237.706739842 339.6834433 215 360 c 0
 202.333333333 371.333333333 190.666666667 383.333333333 180 396 c 1
 180 18 l 1
 292 18 l 1
 292 308 l 1xfc
267 657 m 0
 190.036503056 657 180 581.859591452 180 505 c 2
 180 434 l 1
 242 511 l 2
 245.872252669 516.808379003 250.116811332 532 258 532 c 0
 263.333333333 532 266 528.666666667 266 522 c 2
 266 507 l 2
 266 484.755834174 281.145117222 470 302 470 c 0
 325.284984402 470 331.471627038 481.026230297 338 498 c 0
 343.853880452 509.707760902 347 534.450049796 347 553 c 0xfa
 347 591.070233661 331.550236029 626.18979544 311 644 c 0
 301 652.666666667 286.333333333 657 267 657 c 0
EndSplineSet
Validated: 1
EndChar

StartChar: afii10020
Encoding: 1043 1043 79
Width: 438
Flags: W
HStem: 0 18<30 80 180 235> 645 18<30 80 180 276.701 398.454 422.999>
VStem: 80 100<18 645> 315 22<481.98 522.392>
AnchorPoint: "Yerok" 345 716 basechar 0
AnchorPoint: "Diacritic" 235 716 basechar 0
LayerCount: 2
Fore
SplineSet
337 492 m 2
 337 486.744823664 335.359477355 481 330 481 c 0
 323.068876221 481 317.345869542 489.308260914 315 494 c 0
 294.914110373 538.897870932 287.30379621 595.784815158 275 645 c 1
 180 645 l 1
 180 18 l 1
 235 18 l 1
 235 0 l 1
 30 0 l 1
 30 18 l 1
 80 18 l 1
 80 645 l 1
 30 645 l 1
 30 663 l 1
 418 663 l 2
 421.333333333 663 423 660 423 654 c 0
 423 649.333333333 421 646.333333333 417 645 c 0
 394.541558647 640.187476853 377.541819578 615.954634494 366.5 596.5 c 0
 354.713249614 575.732868369 343.755155076 545.360827075 339 520 c 0
 337.666666667 514.666666667 337 509.5 337 504.5 c 2
 337 492 l 2
EndSplineSet
Validated: 1
EndChar

StartChar: afii10021
Encoding: 1044 1044 80
Width: 518
Flags: W
HStem: 0 18<164.459 260> 349 96<164 204.465> 453 18<164.325 218.216> 645 18<210 260 360 410>
VStem: 95 51<44.2747 153.937> 116 97<357.211 436.528> 247 113<328.5 439.458> 260 100<18 327 423 645>
AnchorPoint: "Yerok" 385 716 basechar 0
AnchorPoint: "Diacritic" 308 716 basechar 0
LayerCount: 2
Fore
SplineSet
190 471 m 0xf6
 225.092736061 471 249.274309315 449.218355008 260 423 c 1
 260 645 l 1
 210 645 l 1
 210 663 l 1
 410 663 l 1
 410 645 l 1
 360 645 l 1
 360 18 l 1
 483 18 l 2
 490.333333333 18 494 14.6666666667 494 8 c 256
 494 -4.52411847313 483.39674279 -15.6720953509 479 -23 c 0
 435.836143088 -82.1961466237 408.281055813 -136.589226119 369 -194 c 0
 367 -197.333333333 364.333333333 -199 361 -199 c 256
 357.666666667 -199 356 -196.333333333 356 -191 c 2
 356 0 l 1
 164 0 l 1
 164 -191 l 2
 164 -196.333333333 162.333333333 -199 159 -199 c 0
 155 -199 152.333333333 -197.333333333 151 -194 c 0
 109.321214247 -133.084851591 76.4585696168 -71.9447594887 30 -10 c 0
 26 -4.66666666667 24 1.33333333333 24 8 c 256
 24 14.6666666667 27.6666666667 18 35 18 c 2
 140 18 l 1
 118.79502475 35.4629207942 95 70.7832002829 95 109 c 0xf9
 95 136.333333333 100.333333333 160.166666667 111 180.5 c 0
 126.755499902 210.533921686 155.112954177 248.112954177 180 273 c 0
 199.646698808 292.646698808 219.621642144 316.814090172 234.5 343 c 0
 242.833333333 357.666666667 247 372.666666667 247 388 c 0
 247 421.758661011 223.644114974 453 190 453 c 0
 180 453 171.333333333 450.333333333 164 445 c 1
 190.432195673 445 213 423.457514492 213 397 c 256
 213 370.541751993 190.431370471 349 164 349 c 256
 137.541751993 349 116 370.542485508 116 397 c 0
 116 440.471625444 148.503868013 471 190 471 c 0xf6
260 327 m 1
 253.159995996 299.639983981 237.336388163 270.53913751 226 249 c 0
 196.438150287 192.832485547 146 148.277339059 146 67 c 0
 146 48.4668164133 157.24581625 24.0726239294 171.5 20 c 0
 173.833333333 19.3333333333 176.333333333 18.6666666667 179 18 c 2
 260 18 l 1
 260 327 l 1
EndSplineSet
Validated: 1
EndChar

StartChar: afii10022
Encoding: 1045 1045 81
Width: 487
Flags: W
HStem: -11 21G<133.523 143> 318 18<283.011 315.75 421 449.202> 445 23<227.634 292.807> 524 18<279.895 314 420.044 445.275> 657 16<205.948 276.265>
VStem: 34 109<332.576 557.797> 150 49<44.8377 139.401>
DStem2: 287 237 283 219 0.983763 -0.17947<-3.96126 25.2711 129.524 151.582>
AnchorPoint: "Yerok" 355 716 basechar 0
AnchorPoint: "Diacritic" 240 716 basechar 0
LayerCount: 2
Fore
SplineSet
128 -1 m 1
 140.122600176 17.8573780508 150 37.0581372524 150 68 c 0
 150 90.8459028653 137.787984968 118.498858901 129.5 138 c 0
 96.0139956889 216.790598372 53.5445222581 277.051700871 39 374.5 c 0
 35.6666666667 396.833333333 34 422.333333333 34 451 c 0
 34 554.575622459 82.277316464 625.309633889 156 656.5 c 0
 182 667.5 211.333333333 673 244 673 c 0
 312.800990777 673 364.662400108 646.866266535 396 609 c 0
 411.81098275 589.540328923 417.901648936 571.434335116 421 542 c 1
 441 542 l 1
 447.068363756 538.358981746 446.531813864 528.531813864 442 524 c 1
 285 524 l 1
 277.214779004 527.114088398 278.423275325 536.423275325 284 542 c 1
 314 542 l 1
 314 584.201169051 306.207658091 632.49232756 279.5 648 c 0
 269.166666667 654 256.333333333 657 241 657 c 0
 155.558500512 657 143 543.754114862 143 458 c 0
 143 423.693925717 146.14735939 391.542163958 151 360 c 1
 159.666666667 382.666666667 170.666666667 403 184 421 c 0
 208 452.333333333 240.666666667 468 282 468 c 0
 355.765937727 468 412.095500084 425.044999128 419 356 c 2
 421 336 l 1
 446 336 l 1
 451.162005778 332.128495667 450.048796487 322.048796487 446 318 c 1
 288 318 l 1
 284.666666667 320 283 322.833333333 283 326.5 c 0
 283 330.166666667 284.666666667 333.333333333 288 336 c 1
 314 336 l 1
 316.666666667 346.666666667 318 361.666666667 318 381 c 256
 318 414.553898378 293.038206144 445 262 445 c 0
 235.353184691 445 211.438417802 425.830713566 199 410 c 0
 180.817918784 386.969363793 163.680189191 351.081135139 158 317 c 1
 162.898589129 296.180996205 166.185470506 273.897220855 172 255 c 0
 184.277447484 208.345699563 199 177.559586141 199 124 c 0
 199 97.3333333333 193.666666667 70.6666666667 183 44 c 1
 222.976794935 59.7051694382 253.879417079 83.3432422024 279 116 c 0
 295.666666667 136.666666667 305 160.666666667 307 188 c 1
 307 202.5 l 2
 307 206.833333333 306.666666667 211 306 215 c 1
 283 219 l 1
 277.726187608 224.273812392 282.191422978 234.114853787 287 237 c 1
 435 210 l 1
 438.989612683 206.010387317 432.84433003 193.84433003 431 192 c 1
 411 195 l 1
 401.84772637 137.035600341 370.468492348 97.2237436231 333 66 c 0
 298.44658932 37.2054910996 240.125210181 15.0840467728 191 0.5 c 0
 169.666666667 -5.83333333333 151 -9.66666666667 135 -11 c 0
 132.045750737 -8.04575073669 130.484447007 -4.72667051079 128 -1 c 1
EndSplineSet
Validated: 1
EndChar

StartChar: afii10024
Encoding: 1046 1046 82
Width: 750
Flags: W
HStem: 0 18<30 78 184.98 235 275 325 425 475 515 565.544 672 720> 573 100<88.2357 192 550.809 663> 645 18<275 325 425 475>
VStem: 78 105<18 181.596> 325 100<18 403 444 645> 567 105<18 182.845>
DStem2: 314 465 286 478 0.477092 -0.878853<-104.963 19.9682> 425 444 446 443 0.461353 0.887217<3.19904 125.948>
CounterMasks: 1 1c
AnchorPoint: "Yerok" 625 716 basechar 0
AnchorPoint: "Diacritic" 374 716 basechar 0
LayerCount: 2
Fore
SplineSet
183 63 m 0xdc
 183 48.7354471721 184.370708219 29.4050424618 186 18 c 1
 235 18 l 1
 235 0 l 1
 30 0 l 1
 30 18 l 1
 78 18 l 1
 78 35.5 l 2
 78 165.723125024 119.337664054 261.800794086 192 332 c 0
 216.841158581 355.461094215 244.121670576 375.709503518 270 399 c 0
 283.087749155 410.897953778 296.109681722 428.18280287 305 443 c 1
 286 478 l 2
 268.220895886 509.607296203 246.412407087 546.035324267 216 564.5 c 0
 206.666666667 570.166666667 197 573 187 573 c 0
 163.666666667 573 144.166666667 567.666666667 128.5 557 c 0
 112.833333333 546.333333333 97.3333333333 533.666666667 82 519 c 1
 76 519 73 522.333333333 73 529 c 0
 79.3456941503 544.229665961 86 561.061526693 86 582 c 0
 86 612.596722196 70.3068437368 639.973250007 49 650 c 0
 45.9721438888 653.027856111 45 658.829024529 45 664 c 1
 55.0231190936 666.863748312 77.196206177 673 91 673 c 0xdc
 151.11414895 673 187.510050309 652.180711183 218 617 c 0
 258.48731459 568.726663372 282.142713785 523.405024725 314 465 c 0
 318 457.666666667 321.666666667 450.666666667 325 444 c 1
 325 645 l 1
 275 645 l 1
 275 663 l 1
 475 663 l 1
 475 645 l 1
 425 645 l 1xbc
 425 444 l 1
 435.5 465 l 2
 464.791582568 523.583165129 492.217422156 569.566926415 532 617 c 0
 562.517554752 652.212563176 598.838001686 673 659 673 c 0xdc
 667 673 675.666666667 671.666666667 685 669 c 2
 706 663 l 1xbc
 706 657.764667971 705.500834558 653.333889705 702 651 c 0
 680.742536983 640.996487992 664 612.556879825 664 582 c 0
 664 561.07109602 670.65824469 544.220212746 677 529 c 0
 677 522.506626363 675.25582153 518 668 518 c 1
 651.333333333 533.333333333 635.5 546.333333333 620.5 557 c 0
 605.5 567.666666667 586.333333333 573 563 573 c 0
 538.617462812 573 520.474860171 555.511387875 507 541 c 0
 490.275288309 522.988772027 476.305788429 499.876957208 464 478 c 2
 446 443 l 1
 462.137470091 410.725059814 493.18862871 386.449097033 520 365 c 0
 533.333333333 354.333333333 546 343.333333333 558 332 c 0
 630.663432824 261.79973439 672 166.891188889 672 36.5 c 2
 672 18 l 1
 720 18 l 1
 720 0 l 1
 515 0 l 1
 515 18 l 1
 564 18 l 1
 566.936101629 29.7444065199 567 47.6095627003 567 63 c 0
 567 136.694886958 552.892452987 202.322641043 533.5 260.5 c 0
 515.211953667 315.364138997 483.95434436 349.120592924 453 391 c 0
 443.666666667 402.333333333 437.333333333 412.666666667 434 422 c 1
 425 403 l 1
 425 18 l 1
 475 18 l 1
 475 0 l 1
 275 0 l 1
 275 18 l 1
 325 18 l 1
 325 403 l 1
 316 422 l 1
 293.829512561 377.65902513 262.254308925 350.578815301 238 309 c 0
 202.594230307 246.359022854 183 156.36191806 183 63 c 0xdc
EndSplineSet
Validated: 1
EndChar

StartChar: afii10025
Encoding: 1047 1047 83
Width: 624
Flags: W
HStem: -9 35<307.798 424.276> 66 75<100.904 210.539> 298 18<284.39 361.934> 396 18<284.221 378.239> 635 34<303.085 400.379>
VStem: 40 40<-4.94887 44.2981> 147 16<646 668.438> 157 16<487 498> 215 51<323.131 389.073> 448 100<446.365 590.551> 470 114<79.3372 280.636>
AnchorPoint: "Yerok" 475 716 basechar 0
AnchorPoint: "Diacritic" 345 716 basechar 0
LayerCount: 2
Fore
SplineSet
584 171 m 0xfca0
 584 50.8050174904 511.477630012 -9 389 -9 c 0
 318.25981551 -9 277.521365727 24.2771040511 230.5 51.5 c 0
 212.319340934 62.0256447233 194.967556977 66 166 66 c 0
 138.123100052 66 115.584507565 56.3341873205 100 45 c 1
 90.5180229673 30.0997503774 85.1882170638 10.4558139892 80 -9 c 1
 62 -9 l 1
 47.9667251502 12.6877884043 40 32.7374051778 40 67 c 0
 40 116.965600558 77.3529338943 141 128 141 c 0
 166.530136358 141 192.465195363 131.689869758 216 116 c 0
 237.051400419 98.2725049103 256.402547446 77.0635531218 272 58 c 1
 293.978750216 41.80513142 318.101055376 26 353 26 c 0
 379.504100987 26 404.779288638 26.7273092672 422 36 c 1
 439.184263623 50.5405307572 453.799418867 89.9575592372 460 116 c 0
 466.666666667 145.333333333 470 174 470 202 c 0xfca0
 470 259.248832214 458.082157409 318.516861951 433 355 c 1
 407.133662685 321.37376149 366.729650298 298 308 298 c 0
 271.248091498 298 240.077047867 309.022470283 223.5 329.5 c 0
 217.833333333 336.5 215 344.666666667 215 354 c 0
 215 395.765561545 264.538680933 414 309 414 c 0
 356.239859805 414 401.406938154 402.01316808 431 384 c 1
 432.333333333 388 434 393.5 436 400.5 c 2
 443 425 l 1
 446.345385479 441.726927401 448 466.898815842 448 489 c 0
 448 514.984872415 447.29779373 545.485295045 440 563 c 0
 422.325608533 609.3952776 394.666681836 635 339 635 c 0
 299.492675297 635 261.841547042 615.032800296 239 597 c 0
 207.008813062 565.008813062 193.294424829 539.557222709 174 498 c 1
 173 487 l 1
 157 486 l 1xfdc0
 147 668 l 1
 163 669 l 1
 166 646 l 1
 176.052230441 631.480111584 189.460618858 615 212 615 c 0
 223.230803034 615 226.200076273 615.228604117 235 619 c 0
 279.809965813 644.60569475 325.62067267 669 394 669 c 0
 458.986788433 669 520.949329307 631.423249024 537.5 586.5 c 0
 544.5 567.5 548 544.666666667 548 518 c 0xfec0
 548 495.228336167 544.361116615 469.538903201 538 453 c 1
 511.605558065 420.321167129 484.403838741 396.237453038 451 373 c 1
 494.130349731 350.087001706 536.854172824 320.526032124 563 280 c 1
 579.529849668 243.125719974 584 220.707332193 584 171 c 0xfca0
319 396 m 0
 290.493189066 396 266 382.454237363 266 354 c 0
 266 340.666666667 272 331 284 325 c 0
 296 319 307 316 317 316 c 0
 363.423742423 316 401.954393108 343.658905917 422 368 c 1
 398.486780776 384.087992101 357.791101434 396 319 396 c 0
EndSplineSet
Validated: 1
EndChar

StartChar: afii10026
Encoding: 1048 1048 84
Width: 505
Flags: W
HStem: 0 18<30 80 180 230 275 325 425 475> 645 18<30 80 180 230 275 325 425 475>
VStem: 80 100<18 269 294 645> 325 100<18 405 430 645>
DStem2: 180 294 180 269 0.72938 0.684108<0 181.696>
AnchorPoint: "Yerok" 381 716 basechar 0
AnchorPoint: "Diacritic" 252 716 basechar 0
LayerCount: 2
Fore
SplineSet
475 0 m 1
 275 0 l 1
 275 18 l 1
 325 18 l 1
 325 405 l 1
 180 269 l 1
 180 18 l 1
 230 18 l 1
 230 0 l 1
 30 0 l 1
 30 18 l 1
 80 18 l 1
 80 645 l 1
 30 645 l 1
 30 663 l 1
 230 663 l 1
 230 645 l 1
 180 645 l 1
 180 294 l 1
 325 430 l 1
 325 645 l 1
 275 645 l 1
 275 663 l 1
 475 663 l 1
 475 645 l 1
 425 645 l 1
 425 18 l 1
 475 18 l 1
 475 0 l 1
EndSplineSet
Validated: 1
EndChar

StartChar: afii10027
Encoding: 1049 1049 85
Width: 505
Flags: W
HStem: 0 18<30 80 180 230 275 325 425 475> 645 18<30 80 180 230 275 325 425 475> 716 52<232.273 292.845>
VStem: 80 100<18 269 294 645> 187 41<771.502 851.379> 297 39<772.081 859.98> 325 100<18 405 430 645>
DStem2: 180 294 180 269 0.72938 0.684108<0 181.696>
AnchorPoint: "Yerok" 258 941 basechar 0
AnchorPoint: "Diacritic" 258 939 basechar 0
LayerCount: 2
Fore
SplineSet
299 878 m 1xfc
 317.414605388 863.26831569 336 838.218255788 336 806 c 0
 336 765.941007209 315.66958719 738.023012743 288.5 724 c 0
 278.166666667 718.666666667 266.333333333 716 253 716 c 0
 214.541751993 716 187 752.777781703 187 791 c 0
 187 822.261734946 202.549717692 848.084075045 218 864.5 c 0
 223.333333333 870.166666667 228.666666667 874 234 876 c 1
 238.666666667 874 242.666666667 870.666666667 246 866 c 1
 239.330270886 849.992650124 228 832.724522707 228 810 c 256
 228 787.541751993 240.359477355 768 263 768 c 0
 282.504382934 768 297 786.990062151 297 807 c 0
 297 832.09350318 290.023739532 849.241626583 281 866 c 1
 285 872 291 876 299 878 c 1xfc
475 0 m 1
 275 0 l 1
 275 18 l 1
 325 18 l 1
 325 405 l 1
 180 269 l 1
 180 18 l 1
 230 18 l 1
 230 0 l 1
 30 0 l 1
 30 18 l 1
 80 18 l 1
 80 645 l 1
 30 645 l 1
 30 663 l 1
 230 663 l 1
 230 645 l 1
 180 645 l 1
 180 294 l 1
 325 430 l 1
 325 645 l 1
 275 645 l 1
 275 663 l 1
 475 663 l 1
 475 645 l 1
 425 645 l 1
 425 18 l 1xfa
 475 18 l 1
 475 0 l 1
EndSplineSet
Validated: 1
LCarets2: 1 0
Ligature2: "'ccmp' Precomposed Glyphs-1" afii10026 uni0306
EndChar

StartChar: afii10028
Encoding: 1050 1050 86
Width: 505
Flags: W
HStem: 0 18<30 80 180 230 275 325 425 475> 356 18<180 260.381> 645 18<30 80 180 230 265 309 409 449>
VStem: 80 100<18 356 374 645> 309 100<447.098 645> 325 100<18 282.14>
AnchorPoint: "Yerok" 364 716 basechar 0
AnchorPoint: "Diacritic" 242 716 basechar 0
LayerCount: 2
Fore
SplineSet
235 374 m 1xf4
 280.126415194 380.446630741 309 423.448338807 309 474 c 2
 309 645 l 1
 265 645 l 1
 265 663 l 1
 449 663 l 1
 449 645 l 1
 409 645 l 1
 409 533 l 2xf8
 409 444.197247748 353.278212872 388.413265796 284 367 c 1
 362.855086379 349.194012754 425 289.041979139 425 194 c 2
 425 18 l 1
 475 18 l 1
 475 0 l 1
 275 0 l 1
 275 18 l 1
 325 18 l 1
 325 253 l 2
 325 296.640233981 303.208514077 331.756621311 274.5 347.5 c 0
 264.166666667 353.166666667 252.666666667 356 240 356 c 2
 180 356 l 1
 180 18 l 1
 230 18 l 1
 230 0 l 1
 30 0 l 1
 30 18 l 1
 80 18 l 1
 80 645 l 1
 30 645 l 1
 30 663 l 1
 230 663 l 1
 230 645 l 1
 180 645 l 1
 180 374 l 1
 235 374 l 1xf4
EndSplineSet
Validated: 1
EndChar

StartChar: afii10029
Encoding: 1051 1051 87
Width: 469
Flags: W
HStem: 0 18<24 63 187.837 218 239 289 389 439> 645 18<239 289 389 439>
VStem: 56 103<34.3094 205.484> 289 100<18 645>
AnchorPoint: "Yerok" 335 716 basechar 0
AnchorPoint: "Diacritic" 336 716 basechar 0
LayerCount: 2
Fore
SplineSet
159 113 m 0
 159 70.8340268908 172.111024517 34.8278340646 198 18 c 1
 218 18 l 1
 218 0 l 1
 24 0 l 1
 24 18 l 1
 63 18 l 1
 58.3333333333 30 56 46 56 66 c 0
 56 162.663159895 77.5452125315 226.061753702 118.5 282 c 0
 145.301841581 318.607393378 185.50575317 365.658677496 215 399 c 0
 238.130132045 425.14710579 269.316110194 463.705637635 280.5 505 c 0
 284.833333333 521 287.666666667 536.333333333 289 551 c 1
 289 645 l 1
 239 645 l 1
 239 663 l 1
 439 663 l 1
 439 645 l 1
 389 645 l 1
 389 18 l 1
 439 18 l 1
 439 0 l 1
 239 0 l 1
 239 18 l 1
 289 18 l 1
 289 482 l 1
 264.392337002 420.480842506 236.946209759 354.57438293 210 295.5 c 0
 191.88232526 255.780482301 176.613074401 225.867239783 167.5 179 c 0
 163.635215542 159.123965641 159 134.304447106 159 113 c 0
EndSplineSet
Validated: 1
EndChar

StartChar: afii10030
Encoding: 1052 1052 88
Width: 732
Flags: W
HStem: 0 18<27 67 190.604 219 257 307 407 457 502 552 652 702> 480 104<209.094 261.174> 594 18<212.05 274.328> 645 18<257 307 407 457 502 552 652 702>
VStem: 53 104<40.9314 201.875> 166 105<490.619 573.759> 307 100<18 247 276 454 457.716 576.479 578 645> 552 100<18 437 465 645>
DStem2: 407 276 407 247 0.606673 0.794951<0 215.955>
AnchorPoint: "Yerok" 605 716 basechar 0
AnchorPoint: "Diacritic" 481 716 basechar 0
LayerCount: 2
Fore
SplineSet
244 612 m 0
 273.174412693 612 293.971751391 595.765793559 307 578 c 1
 307 645 l 1
 257 645 l 1
 257 663 l 1
 457 663 l 1
 457 645 l 1
 407 645 l 1
 407 276 l 1
 552 465 l 1
 552 645 l 1
 502 645 l 1
 502 663 l 1
 702 663 l 1
 702 645 l 1
 652 645 l 1
 652 18 l 1
 702 18 l 1
 702 0 l 1
 502 0 l 1
 502 18 l 1
 552 18 l 1
 552 437 l 1
 407 247 l 1
 407 18 l 1
 457 18 l 1
 457 0 l 1
 257 0 l 1
 257 18 l 1
 307 18 l 1
 307 454 l 1
 287.530596615 410.56825399 259.464300635 367.405300912 232 328 c 0
 194.563994363 273.925769637 157 219.784592143 157 132 c 0
 157 84.3460625695 171.376704322 35.5046747185 201 18 c 1
 219 18 l 1
 219 0 l 1
 27 0 l 1
 27 18 l 1
 67 18 l 1
 59.8215727512 30.921169048 53 68.6804466392 53 90 c 0
 53 138 64.8333333333 185.5 88.5 232.5 c 0
 118.728697146 292.531637993 171.07255733 355.52107268 226.5 401 c 0
 250.437299927 420.64086148 273.49056645 441.424528868 291 465.5 c 0
 299 476.5 304.333333333 488.666666667 307 502 c 1
 307 539 l 1
 300.664334614 565.609794622 276.702345102 594 244 594 c 0
 230 594 218.333333333 590.333333333 209 583 c 1
 211 583.666666667 214 584 218 584 c 0
 247.098862341 584 271 561.12418116 271 532 c 256
 271 502.875085327 247.098037138 480 218 480 c 0
 190.260523325 480 166 504.261440218 166 532 c 0
 166 567.397890747 186.812927219 593.082102795 211.5 605 c 0
 221.166666667 609.666666667 232 612 244 612 c 0
EndSplineSet
Validated: 1
EndChar

StartChar: afii10031
Encoding: 1053 1053 89
Width: 505
Flags: W
HStem: 0 18<30 80 180 230 275 325 425 475> 645 18<30 80 180 230 275 325 425 475>
VStem: 80 100<18 418 445 645> 325 100<18 256 284 645>
DStem2: 180 445 180 418 0.666929 -0.745121<20.1183 216.669>
AnchorPoint: "Yerok" 375 716 basechar 0
AnchorPoint: "Diacritic" 253 716 basechar 0
LayerCount: 2
Fore
SplineSet
475 0 m 1
 275 0 l 1
 275 18 l 1
 325 18 l 1
 325 256 l 1
 180 418 l 1
 180 18 l 1
 230 18 l 1
 230 0 l 1
 30 0 l 1
 30 18 l 1
 80 18 l 1
 80 645 l 1
 30 645 l 1
 30 663 l 1
 230 663 l 1
 230 645 l 1
 180 645 l 1
 180 445 l 1
 325 284 l 1
 325 645 l 1
 275 645 l 1
 275 663 l 1
 475 663 l 1
 475 645 l 1
 425 645 l 1
 425 18 l 1
 475 18 l 1
 475 0 l 1
EndSplineSet
Validated: 1
EndChar

StartChar: afii10032
Encoding: 1054 1054 90
Width: 487
Flags: W
HStem: -11 21G<192.333 228.692> 654 20G<269.159 306>
VStem: 40 106<274.735 482.456> 185 59<27 84.4067> 339 108<180.16 371.319>
AnchorPoint: "Yerok" 265 716 basechar 0
AnchorPoint: "Diacritic" 264 716 basechar 0
LayerCount: 2
Fore
SplineSet
304 674 m 0
 308 672.666666667 310.666666667 669.666666667 312 665 c 0
 321.732092934 590.387287502 344.029282891 542.450219085 379 483 c 0
 396.333333333 453.666666667 412 423.333333333 426 392 c 0
 440 360.666666667 447 324.333333333 447 283 c 0
 447 200.089641962 410.025002703 137.420777503 367.5 92.5 c 0
 323.947007 46.4933172546 262.384207405 7.63818502718 195 -11 c 1
 189.666666667 -7 186.333333333 -3.66666666667 185 -1 c 1
 185 15 l 1
 174.848472661 79.7159867932 142.738397116 123.202530871 115 167 c 0
 77.3474308075 229.01599632 40 280.861747808 40 379 c 0
 40 464.151000413 81.122464353 529.031970462 126 574.5 c 0
 170.264699082 619.347129334 234.317142828 660.36639751 304 674 c 0
244 27 m 1
 250 29 l 1
 300.600038339 76.9368784269 339 166.471114113 339 266 c 0
 339 331.709697775 314.276566217 374.638382243 297 424 c 0
 279.125286652 473.15546171 264 515.535997173 264 582 c 0
 264 606.492898841 264.771565305 626.267304758 269 646 c 1
 264 645 l 1
 208.227233174 612.465886019 172.716639679 541.491114444 155.5 469 c 0
 149.166666667 442.333333333 146 415.666666667 146 389 c 0
 146 353 150.666666667 321.833333333 160 295.5 c 0
 169.333333333 269.166666667 181 241.333333333 195 212 c 0
 226.333333333 144.666666667 242.666666667 83.3333333333 244 28 c 1
 244 27 l 1
EndSplineSet
Validated: 1
EndChar

StartChar: afii10033
Encoding: 1055 1055 91
Width: 505
Flags: W
HStem: 0 18<30 80 180 230 275 325 425 475> 645 18<30 80 180 325 425 475>
VStem: 80 100<18 645> 325 100<18 645>
AnchorPoint: "Yerok" 385 716 basechar 0
AnchorPoint: "Diacritic" 258 716 basechar 0
LayerCount: 2
Fore
SplineSet
475 0 m 1
 275 0 l 1
 275 18 l 1
 325 18 l 1
 325 645 l 1
 180 645 l 1
 180 18 l 1
 230 18 l 1
 230 0 l 1
 30 0 l 1
 30 18 l 1
 80 18 l 1
 80 645 l 1
 30 645 l 1
 30 663 l 5
 475 663 l 1
 475 645 l 1
 425 645 l 1
 425 18 l 1
 475 18 l 1
 475 0 l 1
EndSplineSet
Validated: 1
EndChar

StartChar: afii10034
Encoding: 1056 1056 92
Width: 475
Flags: W
HStem: 0 18<30 80 180 235> 371 48<266.716 339.441> 656 17<240.571 314.121>
VStem: 80 100<18 344 386 610.438> 360 100<438.282 614.606>
DStem2: 180 386 180 344 0.450891 0.892579<0 71.1855>
AnchorPoint: "Yerok" 385 716 basechar 0
AnchorPoint: "Diacritic" 276 716 basechar 0
LayerCount: 2
Fore
SplineSet
235 0 m 1
 30 0 l 1
 30 18 l 1
 80 18 l 1
 80 582 l 2
 80 593.333333333 84.6666666667 601.666666667 94 607 c 0
 146.533719203 631.884393306 194.791829737 659.740617697 261.5 670.5 c 0
 271.833333333 672.166666667 283.666666667 673 297 673 c 0
 356.029126016 671.594544618 401.786037147 657.024479746 431 624 c 0
 452.249177817 600.389802427 460 570.175603269 460 529 c 0
 458.616203803 484.718521721 449.384422287 438.158143868 428 413 c 0
 410.19665678 391.381654661 373.168765883 371 334 371 c 0
 291.019178725 371 260.218813998 392.869981582 241.5 417.5 c 0
 235.166666667 425.833333333 231 433.666666667 229 441 c 1
 180 344 l 1
 180 18 l 1
 235 18 l 1
 235 0 l 1
298 419 m 0
 350.259625235 419 360 479.844199959 360 533 c 0
 360 581.607825697 347.924390392 623.410936159 319.5 644.5 c 0
 309.166666667 652.166666667 296.333333333 656 281 656 c 0
 211.800681147 656 180 599.857206269 180 531 c 2
 180 386 l 1
 227 479 l 1
 236.054358364 479 242 475.076215057 242 467 c 0
 242 435.933190014 265.373039717 419 298 419 c 0
EndSplineSet
Validated: 1
EndChar

StartChar: afii10035
Encoding: 1057 1057 93
Width: 549
Flags: W
HStem: -11 21G<240 276> 343 18<343 380 484.606 514> 453 18<343 377 480.964 514> 656 17<243.403 312.682>
VStem: 50 108<283.771 531.905> 377 105<191.864 343 471 569.257>
AnchorPoint: "Yerok" 415 716 basechar 0
AnchorPoint: "Diacritic" 275 716 basechar 0
LayerCount: 2
Fore
SplineSet
514 343 m 1
 485 343 l 1
 480.927172328 273.761929618 472.656652693 211.313305386 448 162 c 0
 426 119.333333333 397.5 83.6666666667 362.5 55 c 0
 327.5 26.3333333333 293 4.33333333333 259 -11 c 1
 240 -11 l 1
 240 27.978003774 228.734132831 49.2652359882 211 81 c 0
 185.750426262 126.183447741 143.125896549 163.282868343 114 203 c 0
 74.1920007083 257.283635398 50 322.865187331 50 415 c 0
 50 539.880760768 109.517041343 617.30605423 199 655.5 c 0
 226.333333333 667.166666667 256 673 288 673 c 0
 363.373524319 673 415.375209431 634.633644342 449 589 c 0
 471.001739048 559.232941288 476.49511121 516.415332515 482 471 c 1
 514 471 l 1
 514 453 l 1
 343 453 l 1
 343 471 l 1
 377 471 l 1
 373.567036866 546.52518892 364.252195609 622.373902193 311 649 c 0
 301.666666667 653.666666667 291.333333333 656 280 656 c 0
 215.988160486 656 194.148278328 597.444834981 178 549 c 0
 165.809677693 510.905242786 158 459.646686831 158 406 c 256
 158 270.285974988 231.667032472 181.998902593 266 79 c 0
 269.333333333 69 272 57.3333333333 274 44 c 1
 329.06401489 87.2645831273 366.23562094 151.264887695 374.5 238.5 c 0
 377.5 270.166666667 379.333333333 305 380 343 c 1
 343 343 l 1
 343 361 l 1
 514 361 l 1
 514 343 l 1
EndSplineSet
Validated: 1
EndChar

StartChar: afii10036
Encoding: 1058 1058 94
Width: 600
Flags: W
HStem: 0 18<200 250 350 400> 645 18<167.489 250 350 432.512 559.166 584.999>
VStem: 119.5 22.5<469.102 523.978> 250 100<18 645> 458 22.5<469.102 523.586>
CounterMasks: 1 38
AnchorPoint: "Yerok" 485 716 basechar 0
AnchorPoint: "Diacritic" 303 716 basechar 0
LayerCount: 2
Fore
SplineSet
580 663 m 2
 583.333333333 663 585 660 585 654 c 0
 585 650 583 647.333333333 579 646 c 0
 553.719903775 639.679975943 534.752463894 611.316811815 522 589 c 0
 505.576257568 560.258450743 490.450158893 524.840508448 480.5 493 c 0
 477.893401923 484.658886155 477.417091484 469 468 469 c 0
 461.291352792 469 459.319825258 474.720698971 458 480 c 0
 449.451520912 534.140367556 441.904456236 594.112537569 431 645 c 1
 350 645 l 1
 350 18 l 1
 400 18 l 1
 400 0 l 1
 200 0 l 1
 200 18 l 1
 250 18 l 1
 250 645 l 1
 169 645 l 1
 158.100730171 594.1367408 150.502859807 533.851445444 142 480 c 0
 140.68013619 474.720544762 138.708750691 469 132 469 c 0
 122.683697406 469 122.076260364 484.755966837 119.5 493 c 0
 104.939354341 539.594066096 81.5259680174 592.867897359 51.5 626 c 0
 41.8333333333 636.666666667 31.6666666667 643.333333333 21 646 c 0
 17 647.333333333 15 650 15 654 c 0
 15 660 16.6666666667 663 20 663 c 2
 580 663 l 2
EndSplineSet
Validated: 1
EndChar

StartChar: uniA64A
Encoding: 42570 42570 95
Width: 501
Flags: W
HStem: -11 18<161.598 324.391> 70 18<164 210.607 285.167 329> 169 18<163.853 239 257 325.301> 274 18<85 116 216 243> 574 97<354 401.945> 645 18<33 76 176 221>
VStem: 63 18<59.6618 116.54> 239 18<120.2 169 187 274 292 340.73> 405 18<59.4604 119.437>
DStem2: 176 645 76 645 0.112594 -0.993641<0 344>
AnchorPoint: "Yerok" 255 716 basechar 0
AnchorPoint: "Diacritic" 255 716 basechar 0
LayerCount: 2
Fore
SplineSet
439 567 m 0xfb80
 439 552.08277685 442.142347421 537.430610318 445 526 c 0
 445 522 442.333333333 520 437 520 c 1
 422.333333333 532.666666667 409.166666667 544.833333333 397.5 556.5 c 0
 385.833333333 568.166666667 373.666666667 574 361 574 c 0xfb80
 343 574 329.666666667 566 321 550 c 0
 292.193645846 496.819038487 277.125439444 423.409435961 267 350 c 0
 264.333333333 330.666666667 262.666666667 311.666666667 262 293 c 2
 257 187 l 1
 322.625639335 184.94919877 378.321411706 168.061243766 409 133 c 0
 418.333333333 122.333333333 423 107.333333333 423 88 c 0
 423 57.3333333333 405 32.3333333333 369 13 c 0
 337.477871202 -5.38790846549 292.668233635 -11 243 -11 c 256
 193.336043533 -11 148.517157661 -5.38500863574 117 13 c 0
 81 32.3333333333 63 57.3333333333 63 88 c 256
 63 118.666666667 81 143.666666667 117 163 c 0
 147.462941862 180.218184532 191.258910551 187 239 187 c 1
 243 274 l 1
 85 274 l 1
 85 292 l 1
 116 292 l 1
 76 645 l 1
 33 645 l 1
 33 663 l 1
 221 663 l 1
 221 645 l 1
 176 645 l 1xf780
 216 292 l 1
 244 292 l 1
 244 293 l 1
 246.270331917 356.569293637 255.004239296 421.204556226 265.5 477.5 c 0
 274.956663325 528.222103286 288.394401333 571.62126561 309.5 610.5 c 0
 320.014387779 629.868609069 333.879495195 650.033122999 353 658 c 0
 374.333333333 666.666666667 395.5 671 416.5 671 c 0
 437.5 671 458.333333333 671.666666667 479 673 c 0
 482.698611439 670.534259041 484 664.891116287 484 659 c 1
 462.751887943 637.751887943 439 608.528243906 439 567 c 0xfb80
257 151 m 2
 257 123.339233144 281.496976551 88 307 88 c 2
 329 88 l 1
 329 70 l 1
 164 70 l 1
 164 88 l 1
 186 88 l 2
 208.465707746 88 225.922321413 109.152410684 234 124.5 c 0
 237.333333333 130.833333333 239 136.666666667 239 142 c 2
 239 169 l 1
 176.543175679 167.107368959 121.200375107 156.250468884 93 121 c 0
 85 111 81 100 81 88 c 256
 81 59.0918383099 103.950335712 40.5773153588 125 29 c 0
 155.10341628 13.2938697664 197.394526844 7 243 7 c 256
 307.861356266 7 364.381444709 19.2268058864 393 55 c 0
 401 65 405 76 405 88 c 0
 405 121.716057765 384.417827223 134.120195028 361 147 c 256
 335.01365769 161.29248827 295.784202272 167.662613714 257 169 c 1
 257 151 l 2
EndSplineSet
Validated: 1
EndChar

StartChar: afii10038
Encoding: 1060 1060 96
Width: 714
Flags: W
HStem: 0 18<222 261.68 451.454 492> 124 27<174.06 276.998 435.178 523.333> 506 27<188.667 276.413 435.778 537.94> 645 18<222 260.924 451.495 492>
VStem: 35 106<218.939 436.2> 278 158<286.238 369.624> 571 106<220.988 436.118>
AnchorPoint: "Yerok" 603 716 basechar 0
AnchorPoint: "Diacritic" 355 716 basechar 0
LayerCount: 2
Fore
SplineSet
378 481 m 1
 407.253394531 512.691177408 452.856438963 533 511 533 c 0
 564.880616587 533 606.989109183 503.740143692 633 473 c 0
 661.501296224 438.560933729 677 388.067260774 677 329 c 0
 677 236.014032038 641.335983826 174.371800794 579.5 141 c 0
 558.5 129.666666667 535.666666667 124 511 124 c 0
 452.265700121 124 407.127438607 143.231631567 378 176 c 1
 385.738350161 114.093198724 403.080570641 58.6129529064 444.5 31 c 0
 457.5 22.3333333333 473.333333333 18 492 18 c 1
 492 0 l 1
 222 0 l 1
 222 18 l 1
 302.86843425 18 325.923927891 103.39142314 335 176 c 1
 306.182838217 143.580692994 258.909617989 124 201 124 c 0
 147.119383413 124 105.010890816 153.259856309 79 184 c 0
 50.218123357 218.778100943 35 269.075059175 35 329 c 0
 35 421.17943424 71.0986519285 482.862764534 132.5 516 c 0
 153.5 527.333333333 176.333333333 533 201 533 c 0
 258.217942351 533 306.119602564 512.287097221 335 481 c 1
 327.132756801 543.937945584 309.972931022 602.787970831 268.5 631.5 c 0
 255.5 640.5 240 645 222 645 c 1
 222 663 l 1
 492 663 l 1
 492 645 l 1
 409.11011107 645 387.282220415 555.257763309 378 481 c 1
342 270 m 1
 310.154650759 273.821441909 278 292.511163098 278 328 c 256
 278 363.485958642 310.162317999 382.17947816 342 386 c 1
 338.666666667 426 328.333333333 456 311 476 c 0
 293.666666667 496 273.666666667 506 251 506 c 0
 214.953004569 506 183.93610555 475.53788769 169 451 c 0
 151.119823282 423.492035821 141 375.611400521 141 329 c 256
 141 253.444339092 161.925159429 197.986553296 205.5 167 c 0
 220.5 156.333333333 235.666666667 151 251 151 c 0
 273.666666667 151 293.5 160.833333333 310.5 180.5 c 0
 327.5 200.166666667 338 230 342 270 c 1
436 328 m 256
 436 292.088743307 403.627137076 273.764669663 371 270 c 1
 375 230 385.333333333 200.166666667 402 180.5 c 0
 418.666666667 160.833333333 438.333333333 151 461 151 c 0
 497.046995431 151 528.06389445 181.46211231 543 206 c 0
 560.846287033 233.455826203 571 282.46763428 571 329 c 256
 571 404.260135665 549.935729822 459.112369903 506.5 490 c 0
 491.5 500.666666667 476.333333333 506 461 506 c 0
 401.985171377 506 377.227403157 448.274031573 371 386 c 1
 403.096420145 381.062089208 436 364.295003251 436 328 c 256
EndSplineSet
Validated: 1
EndChar

StartChar: afii10039
Encoding: 1061 1061 97
Width: 539
Flags: W
HStem: 0 18<32 76.2239 199.825 243 300 351 455 504> 645 18<72 119 223 276>
VStem: 95 132<152.05 226.626>
DStem2: 223 645 119 645 0.347022 -0.937857<0 145.838 154.476 270.521 273.02 632.455> 170 244 188 238 0.309783 0.950807<-1.70023 122.887>
AnchorPoint: "Yerok" 425 716 basechar 0
AnchorPoint: "Diacritic" 275 716 basechar 0
LayerCount: 2
Fore
SplineSet
170 244 m 1
 184.253917609 290.325232231 199.904121889 334.410991707 217 380 c 1
 119 645 l 1
 72 645 l 1
 72 663 l 1
 276 663 l 1
 276 645 l 1
 223 645 l 1
 273 508 l 1
 294.237804593 550.475609188 319.726813492 595.494286156 345 632 c 0
 350.780466236 641.248745978 361.500682754 654.125170689 373 657 c 0
 404.337540058 662.222923342 463.214981216 668 497 668 c 1
 497 660.5 l 2
 497 657.5 496.333333333 655 495 653 c 0
 473.215537145 636.661652858 457 594.622668456 457 558 c 2
 457 541 l 2
 457 535 457.666666667 529 459 523 c 0
 458.333333333 518.333333333 454.666666667 516 448 516 c 1
 414.761313421 538.602306873 390.729281611 566.20820024 365 596 c 1
 357.217642432 596 350.693909467 593.632691361 346 588 c 0
 324.367680843 560.467957436 302.598990265 518.134928922 283 481 c 1
 455 18 l 1
 504 18 l 1
 504 0 l 1
 300 0 l 1
 300 18 l 1
 351 18 l 1
 226 355 l 1
 212.330395388 315.23387749 199.675689316 277.405451445 188 238 c 1
 207.020422585 229.049212901 227 211.846892202 227 186 c 0
 227 154.591205993 198.901152259 134 168 134 c 2
 162 134 l 1
 162 83.3405441032 180.243419485 18 226 18 c 2
 243 18 l 1
 243 0 l 1
 32 0 l 1
 32 18 l 1
 51 18 l 2
 75.5358428405 18 92.0376239287 41.05985625 103 58.5 c 0
 117.30565563 81.2589975938 130.439024565 112.597561411 141 139 c 1
 118.303484349 146.943780479 95 164.453567611 95 193 c 0
 95 225.316786732 122.523609417 245 154 245 c 2
 162 245 l 2
 164.666666667 245 167.333333333 244.666666667 170 244 c 1
EndSplineSet
Validated: 1
EndChar

StartChar: afii10040
Encoding: 1062 1062 98
Width: 529
Flags: W
HStem: 0 18<30 80 180 325> 645 18<30 80 180 230 275 325 425 475>
VStem: 80 100<18 645> 325 100<18 645> 375 100<-123 0>
DStem2: 24 -142 36 -156 0.745656 0.666331<0 67.6326> 316 -168 87 -111 0.806908 -0.590678<-210.319 -31.001> 316 -168 273 -203 0.929741 0.368214<0 62.2642>
AnchorPoint: "Yerok" 381 716 basechar 0
AnchorPoint: "Diacritic" 250 716 basechar 0
LayerCount: 2
Fore
SplineSet
246 -212 m 256xe8
 232.521118392 -212 224.33180103 -210.832375643 215 -205 c 2
 87 -111 l 1
 36 -156 l 1
 24 -142 l 1
 118 -58 l 2
 124.666666667 -52 132.666666667 -49 142 -49 c 0
 151.928849672 -49 156.534024671 -52.1204148022 163 -56 c 2
 316 -168 l 1
 349 -154 l 2
 373.758079731 -144.096768108 375 -135.191622703 375 -104 c 2
 375 0 l 1xe8
 30 0 l 1
 30 18 l 1
 80 18 l 1
 80 645 l 1
 30 645 l 1
 30 663 l 1
 230 663 l 1
 230 645 l 1
 180 645 l 1
 180 18 l 1
 325 18 l 1
 325 645 l 1xf0
 275 645 l 1
 275 663 l 1
 475 663 l 1
 475 645 l 1xe8
 425 645 l 1
 425 18 l 1xf0
 475 18 l 1
 475 -123 l 1
 273 -203 l 2
 266.054569468 -205.778172212 256.138515174 -212 246 -212 c 256xe8
EndSplineSet
Validated: 1
EndChar

StartChar: afii10041
Encoding: 1063 1063 99
Width: 480
Flags: W
HStem: 0 18<237 287 387 437> 645 18<27 77 177 217 247 287 387 437>
VStem: 77 100<449.607 645> 287 100<18 177.614 286.484 344 364 645>
DStem2: 237 386 161 400 0.913812 -0.406138<-42.654 54.6256>
AnchorPoint: "Yerok" 335 716 basechar 0
AnchorPoint: "Diacritic" 231 716 basechar 0
LayerCount: 2
Fore
SplineSet
387 291 m 1
 414.339559914 281.490587856 438 263.908156881 438 229 c 0
 438 196.173099538 415.039040641 180.095443617 387 174 c 1
 387 18 l 1
 437 18 l 1
 437 0 l 1
 237 0 l 1
 237 18 l 1
 287 18 l 1
 287 172 l 1
 255.170032551 178.121147586 227 192.239294823 227 229 c 0
 227 267.477788942 255.513642536 285.522903759 287 294 c 1
 287 344 l 1
 161 400 l 2
 116.030619696 420.117880662 77 457.475733523 77 519 c 2
 77 645 l 1
 27 645 l 1
 27 663 l 1
 217 663 l 1
 217 645 l 1
 177 645 l 1
 177 498 l 2
 177 440.960016694 194.297949994 404.300878574 237 386 c 2
 287 364 l 1
 287 645 l 1
 247 645 l 1
 247 663 l 1
 437 663 l 1
 437 645 l 1
 387 645 l 1
 387 291 l 1
EndSplineSet
Validated: 1
EndChar

StartChar: afii10042
Encoding: 1064 1064 100
Width: 750
Flags: W
HStem: 0 18<30 80 180 325 425 570 670 720> 645 18<30 80 180 230 275 325 425 475 520 570 670 720>
VStem: 80 100<18 645> 325 100<18 645> 570 100<18 645>
CounterMasks: 1 38
AnchorPoint: "Yerok" 615 716 basechar 0
AnchorPoint: "Diacritic" 375 716 basechar 0
LayerCount: 2
Fore
SplineSet
475 645 m 1
 425 645 l 1
 425 18 l 1
 570 18 l 1
 570 645 l 1
 520 645 l 1
 520 663 l 1
 720 663 l 1
 720 645 l 1
 670 645 l 1
 670 18 l 1
 720 18 l 1
 720 0 l 1
 30 0 l 1
 30 18 l 1
 80 18 l 1
 80 645 l 1
 30 645 l 1
 30 663 l 1
 230 663 l 1
 230 645 l 1
 180 645 l 1
 180 18 l 1
 325 18 l 1
 325 645 l 1
 275 645 l 1
 275 663 l 1
 475 663 l 1
 475 645 l 1
EndSplineSet
Validated: 1
EndChar

StartChar: afii10043
Encoding: 1065 1065 101
Width: 750
Flags: W
HStem: -153 20<447.705 482.997> 0 18<30 80 180 325 425 570 670 720> 645 18<30 80 180 230 275 325 425 475 520 570 670 720>
VStem: 80 100<18 645> 325 100<18 645> 361 28<-76.4426 0> 570 100<18 645>
AnchorPoint: "Yerok" 621 716 basechar 0
AnchorPoint: "Diacritic" 372 716 basechar 0
LayerCount: 2
Fore
SplineSet
475 645 m 1xfa
 425 645 l 1
 425 18 l 1xfa
 570 18 l 1
 570 645 l 1
 520 645 l 1
 520 663 l 1
 720 663 l 1
 720 645 l 1
 670 645 l 1
 670 18 l 1
 720 18 l 1
 720 0 l 1
 389 0 l 1
 389 -14 l 2
 389 -78.8699760316 421.713366757 -119.590231133 472 -133 c 0
 479.333333333 -135 483 -138.333333333 483 -143 c 0
 483 -148.333333333 479.333333333 -151.666666667 472 -153 c 0
 438.067131665 -159.786573667 414.151481718 -190.221088938 398.5 -216 c 0
 392.833333333 -225.333333333 389 -234 387 -242 c 0
 384.448058858 -249.655823429 383.459872726 -253.590021212 375 -255 c 0
 366.541004259 -253.590167376 365.551585076 -249.65475523 363 -242 c 0
 355.392721402 -211.570885607 330.06102848 -182.472163202 307 -166 c 0
 297.666666667 -159.333333333 288 -155 278 -153 c 0
 271.993351745 -151.998891957 267 -148.765281204 267 -143 c 0
 267 -138.333333333 270.666666667 -135 278 -133 c 0
 328.075090036 -119.646642655 361 -78.4236942732 361 -14 c 2
 361 0 l 1xf6
 30 0 l 1
 30 18 l 1
 80 18 l 1
 80 645 l 1
 30 645 l 1
 30 663 l 1
 230 663 l 1
 230 645 l 1
 180 645 l 1
 180 18 l 1
 325 18 l 1
 325 645 l 1
 275 645 l 1
 275 663 l 1
 475 663 l 1
 475 645 l 1xfa
EndSplineSet
Validated: 1
EndChar

StartChar: afii10044
Encoding: 1066 1066 102
Width: 512
Flags: W
HStem: 0 18<47 86 193 347 450 487> 290 18<378 432> 645 18<182 271 378 417>
DStem2: 86 18 193 18 0.282994 0.959122<30.2804 313.801 332.763 653.723> 378 290 275 290 0.255893 -0.966705<0 255.011>
AnchorPoint: "Yerok" 345 716 basechar 0
AnchorPoint: "Diacritic" 265 716 basechar 0
LayerCount: 2
Fore
SplineSet
92 488 m 0
 84.6519216963 559.031423603 75.420922178 619.94124937 27 647 c 1
 27 663 l 1
 417 663 l 1
 417 645 l 1
 378 645 l 1
 279 308 l 1
 432 308 l 1
 432 290 l 1
 378 290 l 1
 450 18 l 1
 487 18 l 1
 487 0 l 1
 47 0 l 1
 47 18 l 1
 86 18 l 1
 271 645 l 1
 182 645 l 1
 103 487 l 2
 101.01904454 484.028566809 92 483.040575178 92 488 c 0
193 18 m 1
 347 18 l 1
 275 290 l 1
 273 290 l 1
 193 18 l 1
EndSplineSet
Validated: 1
EndChar

StartChar: afii10045
Encoding: 1067 1067 103
Width: 680
Flags: W
HStem: 0 18<30 80 180 300 400 430 450 500 600 650> 333 18<400 427> 645 18<30 80 180 230 450 500 600 650>
VStem: 80 100<18 424 429.315 645> 300 100<18 333> 500 100<18 645>
AnchorPoint: "Yerok" 345 716 basechar 0
AnchorPoint: "Diacritic" 345 716 basechar 0
LayerCount: 2
Fore
SplineSet
427 333 m 1
 400 333 l 1
 400 18 l 1
 430 18 l 1
 430 0 l 1
 30 0 l 1
 30 18 l 1
 80 18 l 1
 80 645 l 1
 30 645 l 1
 30 663 l 1
 230 663 l 1
 230 645 l 1
 180 645 l 1
 180 451 l 1
 205.025342341 423.194064067 229.920480845 403.661261051 264 384 c 0
 304.122481178 360.703075445 341.588206782 353.849355766 400 351 c 1
 427 351 l 1
 427 333 l 1
650 0 m 1
 450 0 l 1
 450 18 l 1
 500 18 l 1
 500 645 l 1
 450 645 l 1
 450 663 l 1
 650 663 l 1
 650 645 l 1
 600 645 l 1
 600 18 l 1
 650 18 l 1
 650 0 l 1
300 348 m 1
 252.933489068 365.115094887 209.582885989 393.431017811 180 424 c 1
 180 18 l 1
 300 18 l 1
 300 348 l 1
EndSplineSet
Validated: 1
EndChar

StartChar: afii10046
Encoding: 1068 1068 104
Width: 477
Flags: W
HStem: 0 18<30 80 180 300 400 430> 333 18<400 427> 645 18<30 80 180 230>
VStem: 80 100<18 424 429.315 645> 300 100<18 333>
AnchorPoint: "Yerok" 244 716 basechar 0
AnchorPoint: "Diacritic" 245 716 basechar 0
LayerCount: 2
Fore
SplineSet
427 333 m 1
 400 333 l 1
 400 18 l 1
 430 18 l 1
 430 0 l 1
 30 0 l 1
 30 18 l 1
 80 18 l 1
 80 645 l 1
 30 645 l 1
 30 663 l 1
 230 663 l 1
 230 645 l 1
 180 645 l 1
 180 451 l 1
 205.025342341 423.194064067 229.920480845 403.661261051 264 384 c 0
 304.122481178 360.703075445 341.588206782 353.849355766 400 351 c 1
 427 351 l 1
 427 333 l 1
300 348 m 1
 252.933489068 365.115094887 209.582885989 393.431017811 180 424 c 1
 180 18 l 1
 300 18 l 1
 300 348 l 1
EndSplineSet
Validated: 1
EndChar

StartChar: uni0462
Encoding: 1122 1122 105
Width: 705
Flags: W
HStem: 0 18<235 285 385 525 625 675> 335 18<625 660> 380 18<40 60 160 180> 645 18<30 60 160 285 385 476.75> 921 18<255 285 385 415>
VStem: 60 100<398 645> 285 100<18 436 441.177 645 663 921> 525 100<18 335>
AnchorPoint: "Yerok" 545 716 basechar 0
AnchorPoint: "Diacritic" 155 716 basechar 0
LayerCount: 2
Fore
SplineSet
546 513 m 2
 546 507.744823664 544.359477355 502 539 502 c 0
 531.609333677 502 526.236194972 509.40951257 524 515 c 0
 503.217962126 560.231494198 487.26776047 595.928958119 475 645 c 1
 385 645 l 1
 385 463 l 1
 423.416408359 420.064014185 472.975032139 379.371334409 543 364 c 0
 570.333333333 358 597.333333333 354.333333333 624 353 c 1
 660 353 l 1
 660 335 l 1
 625 335 l 1
 625 18 l 1
 675 18 l 1
 675 0 l 1
 235 0 l 1
 235 18 l 1
 285 18 l 1
 285 645 l 1
 160 645 l 1
 160 398 l 1
 180 398 l 1
 180 380 l 1
 40 380 l 1
 40 398 l 1
 60 398 l 1
 60 645 l 1
 30 645 l 1
 30 663 l 1
 285 663 l 1
 285 921 l 1
 255 921 l 1
 255 939 l 1
 415 939 l 1
 415 921 l 1
 385 921 l 1
 385 663 l 1
 605 663 l 2
 608.333333333 663 610 659.666666667 610 653 c 0
 610 648.713473898 606.196131293 642.196131293 604 640 c 0
 571.615378513 620.569227108 554.873087271 584.987758538 548 541 c 0
 546.666666667 535.666666667 546 530.5 546 525.5 c 2
 546 513 l 2
525 350 m 1
 465.287343037 366.138555937 419.753458934 398.764151141 385 436 c 1
 385 18 l 1
 525 18 l 1
 525 350 l 1
EndSplineSet
Validated: 1
EndChar

StartChar: afii10048
Encoding: 1070 1070 106
Width: 727
Flags: W
HStem: -11 21G<437.333 473.748> 0 18<30 80 180 230> 645 18<30 80 180 230> 654 20G<493.39 529>
VStem: 80 100<18 309 328 645> 286 102<250.171 348 367 469.941> 576 111<204.044 390.269>
DStem2: 180 328 180 309 0.938494 0.345295<0 106.386>
AnchorPoint: "Yerok" 355 716 basechar 0
AnchorPoint: "Diacritic" 357 716 basechar 0
LayerCount: 2
Fore
SplineSet
180 645 m 1x6e
 180 328 l 1
 286 367 l 1
 287.49534665 447.748719041 323.362625599 515.119087129 363 563.5 c 0
 403.091087715 612.434710005 459.780428974 657.568549306 527 674 c 0
 531 672.666666667 533.666666667 669.666666667 535 665 c 0
 547.106025739 595.39035201 584.163168443 556.181409258 619 507 c 0
 639 478.333333333 655.333333333 449.166666667 668 419.5 c 0
 680.666666667 389.833333333 687 354.333333333 687 313 c 0
 687 227.864763161 648.657190157 157.031079196 608 106.5 c 0
 566.717688119 55.1919838037 507.49555031 8.49871453395 440 -11 c 1x9e
 434.666666667 -7 431 -3.66666666667 429 -1 c 0
 426.187662519 6.03084370308 423.813082269 7.96729432525 421 15 c 0
 406.336884454 50.8431713356 388.80383437 74.3508691039 367 101 c 0
 338.59791007 135.713665468 315.115431806 187.956412796 302.5 231.5 c 0
 292.166666667 267.166666667 286.666666667 306 286 348 c 1
 180 309 l 1
 180 18 l 1
 230 18 l 1
 230 0 l 1
 30 0 l 1
 30 18 l 1
 80 18 l 1
 80 645 l 1
 30 645 l 1
 30 663 l 1
 230 663 l 1
 230 645 l 1
 180 645 l 1x6e
576 260 m 0
 576 325.066501754 555.762747559 393.063474551 536 440 c 0
 516.285854328 485.999673234 504.496419833 525.021481011 495 582 c 0
 493.759186281 589.444882308 493 598.57372005 493 607 c 0
 493 622.598605794 495.218271404 635.482221314 498 648 c 1
 493 647 l 1
 439.710065992 613.693791245 409.437439356 539.903847275 395.5 466.5 c 0
 390.5 440.166666667 388 414.333333333 388 389 c 0
 388 310.271776213 404.542618096 251.44020886 433 197 c 0
 462.864859004 140.71622726 474.572786378 96.9714860811 478 25 c 1
 484 26 l 1
 542.434622099 70.4611255096 576 159.146822385 576 260 c 0
EndSplineSet
Validated: 1
EndChar

StartChar: uniA656
Encoding: 42582 42582 107
Width: 710
Flags: W
HStem: 0 18<30 80 180 230 260 293.667 421.531 449 480 530 630 680> 471 112<307.2 395.253> 518 18<180 297.228 404.097 528> 645 18<30 80 180 230 480 530 630 680>
VStem: 80 100<18 518 536 645> 323 50<286.924 362.772> 347 30<83.3417 146.462> 530 100<18 474 536 645>
AnchorPoint: "Yerok" 351 716 basechar 0
AnchorPoint: "Diacritic" 352 716 basechar 0
LayerCount: 2
Fore
SplineSet
351 583 m 256xdd
 379.793831626 583 402.182113908 561.452573946 406 536 c 1
 530 536 l 1
 530 645 l 1
 480 645 l 1
 480 663 l 1
 680 663 l 1
 680 645 l 1
 630 645 l 1
 630 18 l 1
 680 18 l 1
 680 0 l 1
 480 0 l 1
 480 18 l 1
 530 18 l 1
 530 426 l 1
 507.289022053 379.242104226 482.733466492 336.750892534 452 298 c 0
 439.560159774 282.167476076 426.071438437 272.017859609 406 267 c 1
 426.567035113 257.321395241 443 239.859462931 443 211 c 0
 443 172.481912371 412.670061497 146.642226777 377 144 c 1
 377 130 l 2xbb
 377 105.359847316 390.802281818 72.3954363635 400 54 c 0
 408.666666667 37.3333333333 420.333333333 25.3333333333 435 18 c 1
 449 18 l 1
 449 0 l 1
 260 0 l 1
 260 18 l 1
 280 18 l 1
 299.911779212 29.3781595503 312.671467767 41.0518690037 323 63 c 0xbd
 336.819429997 91.4066061054 347 115.943589606 347 147 c 1xbb
 321.035509323 154.418425908 299 178.610486525 299 211 c 0
 299 244.758627338 323.159583164 269.026597193 353 274 c 1
 336.986556505 284.294356533 323 302.60785584 323 327 c 0
 323 372.809094911 368.949114948 398.697818077 399.5 414.5 c 0
 449.75285609 440.492856598 494.597504107 475.487732499 528 518 c 1
 406 518 l 1xbd
 402.181171846 492.54114564 379.797786814 471 351 471 c 256xdd
 321.744197651 471 299.994264896 493.028675526 295 518 c 1
 180 518 l 1
 180 18 l 1
 230 18 l 1
 230 0 l 1
 30 0 l 1
 30 18 l 1
 80 18 l 1
 80 645 l 1
 30 645 l 1
 30 663 l 1
 230 663 l 1
 230 645 l 1
 180 645 l 1
 180 536 l 1
 295 536 l 1xbd
 299.996139063 560.98069531 321.738155486 583 351 583 c 256xdd
530 474 m 1
 499.583356633 440.004928 459.359320405 413.846424663 422.5 385 c 0
 402.037159827 368.985603344 373 351.424272671 373 317 c 0x9d
 373 301 375.333333333 291 380 287 c 1
 383.2850322 286.402721418 386.555062364 286.122163009 389.78134114 286.122163009 c 0
 409.85743576 286.122163009 428.239401236 296.985868315 438 310 c 0
 475.446189268 356.807736583 504.596601755 408.171077751 530 467 c 1
 530 474 l 1
EndSplineSet
Validated: 1
EndChar

StartChar: afii10065
Encoding: 1072 1072 108
Width: 349
Flags: W
HStem: -7 98<71.5524 138.969> 421 20G<267.809 283.333>
VStem: 47 91<0.155762 67.9927> 176 110<333.757 433.717> 177 101<323.858 433.512>
AnchorPoint: "Yerok" 266 557 basechar 0
AnchorPoint: "Diacritic" 227 556 basechar 0
LayerCount: 2
Fore
SplineSet
286 435 m 0xf0
 281.675379652 403.28611745 278 369.551881659 278 332 c 0
 278 217.17417327 289.286615178 97.4236165079 307 0 c 1
 289 -2 271 -3 253 -3 c 0
 237 -3 222.666666667 -2 210 0 c 1
 203.617510285 45.9539259504 200.327952855 83.8351695477 196 130 c 1
 171.303337668 97.0711168932 146.217067417 46.56338203 138 0 c 1
 124.029394611 -6.35027517712 106.775164585 -7 87 -7 c 0
 71.69932259 -7 60.7512212152 -3.91707373841 49 0 c 1
 47.6666666667 3.33333333333 47 6 47 8 c 2
 47 17 l 1
 51.4863850016 61.8638500143 65.2639073517 110.159768379 80 147 c 0
 107.008894425 218.573570226 143.708532346 299.417064689 177 366 c 1xe8
 176 432 l 1
 206.251490153 434.327037704 253.618738364 438.161873837 282 441 c 0
 284.666666667 441 286 439 286 435 c 0xf0
91 108 m 0
 94.8226349971 97.8063066751 107.254853142 91 121 91 c 256
 145.946834676 91 153.214996746 101.863209872 164 116.5 c 0
 175.733131074 132.423535027 188.567775065 152.838875317 193 175 c 1
 190.148762738 199.235516734 190.533730871 222.662691283 188 248 c 1
 183 338 l 1
 152.057259987 276.114519975 120.563641335 207.867690301 96 141 c 0
 93.0024825715 131.008275238 91 118.837955207 91 108 c 0
EndSplineSet
Validated: 1
EndChar

StartChar: afii10066
Encoding: 1073 1073 109
Width: 386
Flags: W
HStem: 0 18<145.334 249> 157 20<147 160.719> 419 18<157.573 236.927>
VStem: 46 99<18.3131 162.845 177 263.027> 60 92.5<179.297 419>
AnchorPoint: "Yerok" 285 557 basechar 0
AnchorPoint: "Diacritic" 201 556 basechar 0
LayerCount: 2
Fore
SplineSet
226 219 m 2xe8
 228 221.666666667 231 223 235 223 c 0
 237.666666667 223 240 222 242 220 c 0
 279.936271044 170.682847643 313.607569202 101.336212038 338 39 c 0
 342.607551725 28.6330086202 345 13.9874760803 345 0 c 1
 46 0 l 1xf0
 46 127.59364821 55.9708913436 264.097631657 60 389 c 0
 60.6666666667 409.666666667 61.3333333333 425.666666667 62 437 c 1
 332 437 l 2
 337.333333333 437 340 435 340 431 c 256
 340 427 338.666666667 423.666666667 336 421 c 0
 314.751981494 395.278714442 290.160908432 346.116815657 281 311 c 0
 280.333333333 307.666666667 277.666666667 306 273 306 c 0
 256.990318017 306 251.826644198 330.57344006 249 344 c 0
 243.872282735 368.613042874 241.644464996 399.888837511 234 419 c 1
 159 419 l 1
 154.167427493 394.837137459 153.963101612 359.175936 152.5 326.5 c 0
 150.408475964 279.789296539 148.254795861 225.937038553 147 177 c 1
 171.171245844 183.042811462 179.293804163 188.352764842 200 200 c 1
 226 219 l 2xe8
249 18 m 1
 232.00261064 68.9921680859 202.521381427 123.226480434 170 159 c 0
 168 161.666666667 165 163 161 163 c 0
 155 159.666666667 150 157.666666667 146 157 c 1
 145.333333333 140.333333333 145 124.5 145 109.5 c 2
 145 40.5 l 2
 145 32.1666666667 145.333333333 24.6666666667 146 18 c 1
 249 18 l 1
EndSplineSet
Validated: 1
EndChar

StartChar: afii10067
Encoding: 1074 1074 110
Width: 380
Flags: W
HStem: 0 18<137 242> 419 18<169.178 270>
VStem: 41 96<18 207.029>
DStem2: 146 228 144 210 0.691905 0.721988<0 20.2249>
AnchorPoint: "Yerok" 296 557 basechar 0
AnchorPoint: "Diacritic" 201 556 basechar 0
LayerCount: 2
Fore
SplineSet
189 260 m 1
 208.766490386 265.271064104 238.497113509 269.205372972 260 273 c 1
 276.330739303 251.225680929 289.384626488 215.87688921 300 183.5 c 0
 313.633197447 141.918747789 327.779912278 91.990394752 338 46 c 0
 341.396040138 32.415839449 342.409587086 14.3137162207 344 0 c 1
 41 0 l 1
 43.1642595173 116.87001393 50.9039847122 249.473312787 62.5 357 c 0
 66.1666666667 391 70 417.666666667 74 437 c 1
 312 437 l 2
 318.666666667 437 322 434.333333333 322 429 c 0
 322 426.333333333 321 423.666666667 319 421 c 2
 189 260 l 1
242 18 m 1
 239.56601963 76.4155288551 222.999459057 132.00135236 205 177 c 0
 198.333333333 193.666666667 191.333333333 208 184 220 c 0
 176.719651755 224.853565497 174.762143944 230.895142423 167 234 c 1
 144 210 l 1
 139.709895865 146.72096402 137 77.2845873913 137 18 c 1
 242 18 l 1
165 248 m 1
 203.533255138 299.377673517 236.401527653 361.882597008 270 419 c 1
 171 419 l 1
 157.715925877 369.184722037 151.465834247 291.40367727 146 228 c 1
 165 248 l 1
EndSplineSet
Validated: 1
EndChar

StartChar: afii10068
Encoding: 1075 1075 111
Width: 360
Flags: W
HStem: -2 21G<69 125> 419 18<154.492 237.746>
VStem: 48 96<-1.95508 298.764>
AnchorPoint: "Yerok" 286 557 basechar 0
AnchorPoint: "Diacritic" 190 556 basechar 0
LayerCount: 2
Fore
SplineSet
144 66 m 0
 144 44 145 21 145 0 c 1
 137 -1 129 -2 121 -2 c 2
 73 -2 l 2
 65 -2 57 -1 48 0 c 1
 48 40 l 2
 48 170 53 316 61 437 c 1
 341 437 l 2
 344 437 345 435 345 431 c 0
 345 419 335 412 329 406 c 0
 304 379 298 338 290 298 c 0
 289 294 286 292 282 292 c 0
 272 292 270 308 266 318 c 0
 256 349 243 386 236 419 c 1
 155 419 l 1
 144 312 144 183 144 66 c 0
EndSplineSet
Validated: 1
EndChar

StartChar: afii10069
Encoding: 1076 1076 112
Width: 425
Flags: W
HStem: 0 18<129.468 234> 423 20G<260.303 279.333>
VStem: 170 112<348.378 430.243> 178 92<159.881 425.201> 305 13<-189.98 -162.654>
AnchorPoint: "Yerok" 303 557 basechar 0
AnchorPoint: "Diacritic" 211 556 basechar 0
LayerCount: 2
Fore
SplineSet
380 18 m 2xd8
 389.163785639 18 394 14.1324757007 394 6 c 0
 394 3.33333333333 392.666666667 -0.666666666667 390 -6 c 0
 373.957511473 -29.3345287679 359.969751576 -63.174108641 348 -92.5 c 0
 336.429453579 -120.847838729 325.752481742 -155.540569378 318 -185 c 0
 316.666666667 -188.333333333 314.333333333 -190 311 -190 c 0
 307 -190 305 -188.333333333 305 -185 c 0
 295.985242957 -127.906538728 304.240774697 -48.6420658575 286 0 c 1
 130 0 l 1
 118.5722584 -39.9970955949 112.344831491 -98.0689323225 107 -143.5 c 0
 105.052334054 -160.055160545 106.884447659 -189 96 -189 c 0
 92 -189 90 -187.333333333 90 -184 c 0
 76.7331862435 -122.088202472 61.0997265119 -51.1994530238 36 -1 c 0
 34.7096685027 1.5806629944 33 6.09129725956 33 10 c 0
 33 15.3333333333 35.3333333333 18 40 18 c 2
 109 18 l 1
 124.367200028 75.6270001093 143.806423702 123.118200488 163 177.5 c 0
 169 194.5 174 213.666666667 178 235 c 1xd8
 173.812598221 295.71732581 177.934032571 368.4947557 170 428 c 1
 208.53580362 432.128836102 242.606866665 435.134859259 278 443 c 0
 280.666666667 443 282 441 282 437 c 0xe8
 282 435 281.333333333 432 280 428 c 0
 271.240517397 406.726970824 270 376.374842165 270 347 c 0
 270 220.392433599 287.200834212 115.068429101 322 25 c 0
 322.666666667 23 323.666666667 20.6666666667 325 18 c 1
 380 18 l 2xd8
186 178 m 1
 160.351703391 130.367449156 142.324092102 75.7377324398 129 18 c 1
 234 18 l 1
 186 178 l 1
EndSplineSet
Validated: 1
EndChar

StartChar: afii10070
Encoding: 1077 1077 113
Width: 274
Flags: W
HStem: -9 90<77 143> 363 83<152.346 228.255>
VStem: 55 84<257.335 348.698> 65 74<80.0278 172.956>
AnchorPoint: "Yerok" 192 557 basechar 0
AnchorPoint: "Diacritic" 141 556 basechar 0
LayerCount: 2
Fore
SplineSet
58 7 m 0xd0
 62.0353460613 36.5925377827 65 58.7945845547 65 92 c 0xd0
 65 152.112067348 55 203.909888306 55 266 c 0
 55 323.333333333 70 368 100 400 c 0
 120.620480936 421.995179665 164.583337262 443.489899229 206 446 c 0
 220.257880595 446 230 444.353646221 230 429 c 2
 230 420 l 2
 230 416.509968164 230.043982646 412.832631271 230.043982646 409.106770781 c 0
 230.043982646 390.595991491 228.958363276 370.887508983 216 367 c 0
 207.333333333 364.333333333 200.166666667 363 194.5 363 c 0
 166.632724725 363 139 336.729197156 139 310 c 2xe0
 139 257 l 1
 151.643591913 269.643591913 177.63765077 285.011073756 198 291 c 0
 201.333333333 292.333333333 204.333333333 293 207 293 c 2
 216 293 l 258
 219.333333333 293 221 291.333333333 221 288 c 0
 221 270.121936215 219.253896491 233.300654376 218 217 c 0
 218 212.333333333 215.333333333 209 210 207 c 0
 166.6948503 192.113854791 147.299462858 165.154303677 138 116 c 0
 138 104.03375781 139 90.498923202 139 80 c 1
 140.333333333 80.6666666667 141.666666667 81 143 81 c 0
 159.234886126 81 173.92607174 92.0967705121 181.5 100 c 0
 189.166666667 108 196.666666667 115.333333333 204 122 c 1
 208 122 210.666666667 121 212 119 c 1
 212 104 l 2
 212 89.3333333333 211 76.6666666667 209 66 c 1
 184.536497532 29.94852268 136.082201529 -7.65722269251 77 -9 c 0
 68.5790435929 -9 58 -1.79935621587 58 7 c 0xd0
EndSplineSet
Validated: 1
EndChar

StartChar: afii10072
Encoding: 1078 1078 114
Width: 635
Flags: W
HStem: -3 20.9842G<89.6201 107.881 307 325.667 558.968 566.862> 418 20G<94.6667 151.333 339.981 371 568.474 591.333>
VStem: 49 113<-2.16742 66.244> 71 83<231.221 352> 265 109<-1.82812 238.557> 274 94<3.75915 241 299.265 302.514> 277 106<360.039 437.859> 485 111<-2.08927 75.9496>
AnchorPoint: "Yerok" 534 557 basechar 0
AnchorPoint: "Diacritic" 330 556 basechar 0
LayerCount: 2
Fore
SplineSet
487 369 m 1xd3
 436.264117124 366.693823505 398.50277685 341.50277685 370 313 c 1
 370 312 l 1
 470.228182144 245.181211903 553.149289805 161.37466845 591 31 c 0
 593.577325242 23.2680242725 596 10.3851892116 596 0 c 1
 589.131632436 -2.74734702595 573.212375329 -3.01584813617 560.511335481 -3.01584813617 c 0
 557.425623883 -3.01584813617 554.529865859 -3 552 -3 c 0
 531.403874637 -3 503.489485394 -2.99808825366 487 0 c 1
 485.48624783 4.54125650922 485 7.63682133375 485 14 c 0
 485 18 486 22 486 26 c 0
 471.236766325 118.605738509 425.828217911 191.057448168 368 241 c 1
 368 196 l 2xc5
 368 127.784514347 370.792051861 59.3470405917 374 0 c 1
 354.666666667 -2 335.333333333 -3 316 -3 c 0
 298 -3 281 -2 265 0 c 1xc9
 268.140583214 80.0848719873 271.660274473 167.260292698 274 255 c 1
 218.073462739 195.345026921 170.537425806 127.449109675 162 25 c 1
 162 12.5 l 2
 162 8.83333333333 161.666666667 4.66666666667 161 0 c 1
 145.045032434 -2.90090319388 117.762387558 -3 98 -3 c 0
 81.2401772816 -3 62.1231290309 -2.91625089575 49 0 c 1xe5
 49 7.47916392549 49.5591343373 22.1182686743 52 27 c 0
 88.4672564197 118.168141049 131.352456851 177.547867207 203 232 c 0
 224.723377493 248.509766895 249.115061807 270.527766602 275 287 c 1
 275 289 l 1
 253 302.333333333 232.333333333 315 213 327 c 0
 193.666666667 339 179.333333333 346.666666667 170 350 c 0
 167.333333333 351.333333333 165 352 163 352 c 256
 161 352 158 351.333333333 154 350 c 1
 154 325.5 l 2
 154 304.941867844 155 279.69658566 155 259 c 2
 155 234 l 1
 138.987841906 231.536591063 122.584733543 230 105 230 c 2
 89 230 l 2
 83.6666666667 230 78.6666666667 230.666666667 74 232 c 1
 71.0412048266 267.505542082 71 313.502767075 71 354 c 2
 71 427 l 1
 72.3333333333 433.666666667 75.3333333333 437 80 437 c 0
 84 437.666666667 90.3333333333 438 99 438 c 2
 148 438 l 2
 154.666666667 438 160.333333333 437.666666667 165 437 c 0
 200.161669525 414.068476396 240.829278023 385.964220182 276 359 c 1
 276.666666667 372.333333333 277 385.333333333 277 398 c 2
 277 434 l 1
 298.438607925 439.044378336 326.961165026 441 353 441 c 2
 368.5 441 l 2
 373.5 441 378.333333333 440.666666667 383 440 c 1
 379.909448462 409.094484613 375.54391717 376.076560252 372 343 c 1
 401.712284596 372.712284596 435.649571733 402.930739126 472 428 c 1
 507.351318568 440.152015757 547.947907539 441.215126414 589 443 c 0
 593.666666667 443 596 440.333333333 596 435 c 0
 596 433.424396618 592.812716903 428.812716903 592 428 c 0
 571.474061031 406.007922533 557.094198853 386.354971356 555.5 346.5 c 0
 555.166666667 338.166666667 555 330.333333333 555 323 c 0
 555 316.227721993 556 310.772817978 556 304 c 256
 556 300.666666667 554.333333333 299 551 299 c 0
 549.666666667 299 548 300 546 302 c 0
 528.21132767 324.87115014 507.606220385 349.767527642 487 369 c 1xd3
EndSplineSet
Validated: 1
EndChar

StartChar: afii10073
Encoding: 1079 1079 115
Width: 518
Flags: W
HStem: -193 18<250.311 339.678> -88 17<9.04785 49.1255> 429 16<217.6 302.121>
VStem: 36 106<281.325 350.377> 380 89<257.06 379.176> 408 76<-111.486 -10.3606>
AnchorPoint: "Yerok" 416 557 basechar 0
AnchorPoint: "Diacritic" 267 556 basechar 0
LayerCount: 2
Fore
SplineSet
13 -71 m 0xf4
 51.5493823571 -65.6828438127 108.938738368 -57.4122523264 146 -50 c 1
 168.682883382 -87.2647369857 182.120587275 -118.540545328 216 -150 c 1
 240.965077067 -163.730792386 261.602729086 -175 298 -175 c 0
 346.689683575 -175 382.72465267 -143.954880622 399 -110.5 c 0
 405 -98.1666666667 408 -85.3333333333 408 -72 c 0xf4
 408 -49.7487492689 407.231344089 -40.3097043099 402 -22 c 1
 376.467756457 21.2084121484 339.042401052 64.2554278212 299.5 92.5 c 0
 287.833333333 100.833333333 278 106.333333333 270 109 c 1
 263.118176007 102.118176007 253.36677774 90.4514187575 246.5 82 c 2
 233.5 66 l 2
 229.166666667 60.6666666667 225.666666667 56.6666666667 223 54 c 1
 194.144581337 54 168.299678694 65.6697328559 148.5 76 c 0
 140.726929613 80.0555149843 126 86.6665838928 126 95 c 0
 126 97.6666666667 127 100 129 102 c 0
 153.572874236 145.972511791 205.001358055 189.863146044 243 220 c 0
 247 222.666666667 249.666666667 224 251 224 c 0
 253.067390499 224 258.40485878 221.79757061 260 221 c 0
 281.229126385 211.093074353 295.108932353 203.934640588 315 192 c 1
 334.161133866 213.556275601 357.866091371 242.272859559 371 270 c 0
 377 282.666666667 380 297.666666667 380 315 c 0
 380 369.006230234 345.233157299 403.950072014 306 420 c 0
 291.333333333 426 275.666666667 429 259 429 c 0
 188.952392068 429 155.933341213 376.955600205 145 315 c 0
 142.48210187 303.66945841 142 298.630705782 142 286 c 1
 125.762631423 280.095502335 97.3225746486 279 74 279 c 0
 60.3672762196 279 47.6164468789 279.547944139 36 281 c 1
 36 291 l 2
 36 293 36.3333333333 295.666666667 37 299 c 0
 46.7956229402 344.304756099 79.1444668727 389.000979836 112 409 c 0
 152.360070668 429.180035334 208.712333873 445 270 445 c 0
 366.863934766 445 443.144131699 430.953191732 467 357 c 0
 468.333333333 353.666666667 469 350.5 469 347.5 c 2
 469 338 l 2xf8
 469 301.938429704 459.915008899 270.303676752 442 250 c 1
 415.202692448 229.15764968 380.129454894 208.838836468 344 198 c 0
 338.869302726 192.869302726 335.267652 187.690202667 331 182 c 1
 372.321705885 155.436046217 407.981514219 124.407367115 440 85 c 0
 467.114213553 51.9913921961 484 24.254944277 484 -30 c 0
 484 -152.193885056 379.821838062 -193 258 -193 c 4
 188 -193 133 -179 93 -151 c 1
 75.6685461037 -133.668546104 54.9199835416 -105.859971198 43 -85 c 1
 35.4754635949 -86.0749337722 22.8724858377 -88 15 -88 c 0
 11 -88 9 -84.6666666667 9 -78 c 0
 9 -73.3333333333 10.3333333333 -71 13 -71 c 0xf4
EndSplineSet
Validated: 1
EndChar

StartChar: afii10074
Encoding: 1080 1080 116
Width: 431
Flags: W
HStem: -3 21G<83.6667 101.667 354.813 367.267> 425 20G<160.312 177 379.178 394.333>
VStem: 45 99<-2.10278 220.532 231 265.088> 280 117<-1.58666 158.722> 280 96.9969<7.12476 285>
DStem2: 146 231 145 210 0.881803 0.471617<0 147.156>
AnchorPoint: "Yerok" 346 557 basechar 0
AnchorPoint: "Diacritic" 241 556 basechar 0
LayerCount: 2
Fore
SplineSet
144 139 m 2xf0
 144 89.7176553533 145.465328885 44.5054623194 147 0 c 1
 129.666666667 -2 111.333333333 -3 92 -3 c 0
 75.3333333333 -3 59.6666666667 -2 45 0 c 1
 45 144.238059271 49.1286460775 278.148091821 69 404 c 0
 71 416.666666667 73 426.333333333 75 433 c 1
 108.664571856 435.589582452 145.624204955 438.323682945 175 445 c 0
 179 445 181 443 181 439 c 1
 175 417 l 2
 173 409.666666667 170.333333333 401.333333333 167 392 c 0
 155.326277163 346.764324003 148.433658236 288.190968564 146 231 c 1
 185.456094219 251.961050053 246.684105659 284.860196225 285 306 c 1
 287.263819223 350.144474869 290.452126568 396.986696126 297 433 c 1
 324.708323468 436.614129148 365.355483089 440.235548309 393 443 c 0
 395.666666667 443 397 440.333333333 397 435 c 0xf0
 395.447118959 422.576951679 391.3506639 409.92865145 389 397 c 0
 379.843249149 329.850493756 377 250.621113214 377 174 c 0
 377 169.388302059 376.996888427 164.936663253 376.996888427 160.617538176 c 0xe8
 376.996888427 119.995409859 377.272129834 91.0950911628 383 51 c 0
 385 37.6666666667 388.666666667 25.3333333333 394 14 c 0
 396 12 397 9.66666666667 397 7 c 0
 397 -1.92016880174 376.092775858 -3.21970552382 358.441737102 -3.21970552382 c 0
 351.18407945 -3.21970552382 344.476927146 -3 340 -3 c 0
 319.333333333 -3 301 -2 285 0 c 1
 281.804125628 36.752555292 280 83.54318256 280 127 c 256
 280 178.085961807 281.420393591 235.987478224 284 285 c 1
 245.14988998 263.695100958 183.923712315 230.759313235 145 210 c 1
 144.333333333 197.333333333 144 185.166666667 144 173.5 c 2
 144 139 l 2xf0
EndSplineSet
Validated: 1
EndChar

